{"glyphs":{"0":{"ha":810,"x_min":75,"x_max":735,"o":"m 621 422 q 603 581 621 515 q 557 688 586 646 q 488 748 528 729 q 404 767 449 767 q 321 747 360 767 q 253 685 282 726 q 206 578 224 643 q 189 422 189 513 q 245 165 189 254 q 404 76 301 76 q 565 165 508 76 q 621 422 621 254 m 404 -18 q 270 9 331 -18 q 166 91 210 36 q 99 228 122 146 q 75 422 75 311 q 103 625 75 542 q 176 761 131 708 q 281 838 222 814 q 404 861 340 861 q 528 837 468 861 q 633 760 588 813 q 707 624 679 707 q 735 422 735 540 q 711 228 735 311 q 644 91 688 146 q 539 9 600 36 q 404 -18 478 -18 z "},"1":{"ha":496,"x_min":21,"x_max":353,"o":"m 63 653 q 33 674 44 660 q 21 708 21 688 q 32 744 21 731 q 71 769 43 758 l 265 854 l 292 854 q 336 838 319 854 q 353 793 353 821 l 353 -1 q 331 -8 344 -4 q 300 -11 317 -11 q 240 40 240 -11 l 240 736 l 63 653 z "},"2":{"ha":706,"x_min":53,"x_max":614,"o":"m 79 757 q 98 794 79 775 q 149 828 117 813 q 224 852 181 843 q 315 861 267 861 q 526 796 450 861 q 601 619 601 731 q 592 545 601 582 q 560 470 582 508 q 501 390 538 432 q 414 301 465 349 l 188 92 l 600 92 q 610 74 606 85 q 614 47 614 63 q 571 0 614 0 l 81 0 q 53 56 53 19 q 86 128 53 96 l 336 368 q 407 442 378 408 q 453 504 436 475 q 478 561 471 533 q 486 618 486 589 q 442 726 486 685 q 307 767 397 767 q 197 746 244 767 q 118 701 150 725 q 91 722 103 708 q 79 757 79 736 z "},"3":{"ha":703,"x_min":44,"x_max":621,"o":"m 301 863 q 421 848 367 863 q 514 804 475 833 q 574 732 553 775 q 596 632 596 689 q 582 558 596 590 q 548 501 568 525 q 504 464 528 478 q 463 446 481 450 q 518 420 490 438 q 569 377 546 403 q 606 316 592 351 q 621 236 621 281 q 598 126 621 174 q 533 48 575 79 q 433 1 492 17 q 306 -15 375 -15 q 201 -6 249 -15 q 118 19 153 3 q 64 54 83 35 q 44 94 44 74 q 55 128 44 114 q 82 151 65 142 q 170 101 118 124 q 306 79 222 79 q 454 119 397 79 q 511 239 511 158 q 458 353 511 310 q 306 396 406 396 l 190 396 q 181 416 185 403 q 176 443 176 429 q 181 471 176 458 q 190 490 185 483 l 296 490 q 442 528 399 490 q 486 629 486 567 q 437 733 486 697 q 300 768 388 768 q 183 748 233 768 q 99 704 132 728 q 74 726 85 711 q 63 760 63 740 q 81 797 63 778 q 131 830 99 815 q 208 853 164 844 q 301 863 251 863 z "},"4":{"ha":761,"x_min":38,"x_max":733,"o":"m 449 846 q 477 851 461 849 q 506 853 493 853 q 558 839 535 853 q 582 785 582 825 l 582 299 l 721 299 q 729 280 725 292 q 733 253 733 268 q 690 206 733 206 l 582 206 l 582 -3 q 562 -8 575 -6 q 533 -11 549 -11 q 474 38 474 -11 l 474 206 l 72 206 q 48 230 58 213 q 38 271 38 247 q 40 292 38 283 q 44 310 42 301 l 449 846 m 478 736 l 475 736 l 167 299 l 475 299 l 478 736 z "},"5":{"ha":747,"x_min":93,"x_max":674,"o":"m 631 844 q 639 826 635 838 q 643 800 643 814 q 632 763 643 776 q 600 750 621 750 l 244 750 l 222 500 q 288 524 246 513 q 378 536 329 536 q 494 518 440 536 q 588 466 547 500 q 651 381 628 432 q 674 264 674 331 q 653 151 674 203 q 592 63 632 100 q 492 3 551 25 q 358 -18 433 -18 q 249 -8 299 -18 q 165 19 200 3 q 112 56 131 36 q 93 96 93 76 q 108 134 93 118 q 138 157 122 150 q 224 102 168 129 q 358 75 279 75 q 507 128 454 75 q 560 264 560 181 q 506 396 560 349 q 364 443 451 443 q 275 428 315 443 q 200 393 235 413 q 140 416 163 396 q 117 468 117 436 q 117 490 117 476 q 119 515 118 503 l 143 781 q 161 827 146 810 q 206 844 176 844 l 631 844 l 631 844 z "},"6":{"ha":764,"x_min":75,"x_max":696,"o":"m 632 779 q 623 748 632 763 q 600 726 614 733 q 531 753 569 742 q 449 765 493 765 q 348 746 394 765 q 266 687 301 726 q 210 587 231 647 q 188 444 189 526 q 223 474 201 458 q 273 503 244 489 q 338 526 301 517 q 415 535 374 535 q 528 517 476 535 q 617 465 579 500 q 675 379 654 431 q 696 260 696 328 q 675 143 696 194 q 615 56 654 92 q 522 1 576 21 q 400 -18 467 -18 q 271 5 331 -18 q 167 78 211 28 q 99 206 124 128 q 75 396 75 285 q 107 615 75 526 q 191 759 139 704 q 310 838 243 814 q 446 861 376 861 q 515 856 482 861 q 575 840 549 850 q 617 814 601 829 q 632 779 632 799 m 400 75 q 532 124 481 75 q 583 263 583 172 q 531 397 583 353 q 403 440 479 440 q 274 410 328 440 q 188 335 219 379 q 244 147 189 218 q 400 75 299 75 z "},"7":{"ha":636,"x_min":33,"x_max":608,"o":"m 576 844 q 608 789 608 826 q 593 731 608 761 l 244 -6 q 228 -7 236 -7 q 213 -7 221 -7 q 166 6 185 -7 q 147 43 147 19 q 153 76 147 60 q 171 113 160 92 l 485 750 l 46 750 q 38 768 42 757 q 33 794 33 779 q 44 831 33 818 q 76 844 56 844 l 576 844 z "},"8":{"ha":790,"x_min":82,"x_max":708,"o":"m 82 224 q 95 301 82 267 q 131 363 108 336 q 182 409 153 390 q 243 440 211 428 q 140 513 176 465 q 103 632 103 560 q 124 727 103 685 q 183 799 144 769 q 276 845 222 829 q 396 861 331 861 q 610 799 532 861 q 689 629 689 738 q 647 509 689 556 q 540 440 606 463 q 606 408 575 428 q 659 363 636 389 q 695 301 682 336 q 708 222 708 265 q 685 121 708 165 q 622 46 663 76 q 523 -1 581 15 q 396 -18 465 -18 q 167 45 253 -18 q 82 224 82 108 m 597 226 q 540 347 597 301 q 382 406 482 393 q 244 344 296 390 q 193 225 193 299 q 247 115 193 154 q 396 75 300 75 q 542 113 488 75 q 597 226 597 151 m 214 631 q 229 565 214 592 q 272 519 244 538 q 335 491 299 501 q 413 476 371 481 q 537 533 496 497 q 578 629 578 569 q 529 732 578 696 q 396 768 481 768 q 263 731 313 768 q 214 631 214 693 z "},"9":{"ha":767,"x_min":71,"x_max":692,"o":"m 114 68 q 123 100 114 85 q 146 122 132 115 q 215 92 172 107 q 315 78 257 78 q 417 94 369 78 q 501 149 465 111 q 558 247 538 186 q 579 394 579 307 q 551 369 569 383 q 506 341 533 354 q 444 319 479 328 q 367 310 410 310 q 254 325 308 310 q 160 372 200 340 q 95 456 119 404 q 71 581 71 507 q 94 698 71 646 q 156 786 117 750 q 249 842 196 822 q 364 861 303 861 q 495 837 435 861 q 599 762 556 813 q 667 633 643 711 q 692 449 692 556 q 665 232 692 321 q 588 88 638 143 q 469 7 539 32 q 317 -18 400 -18 q 238 -12 275 -18 q 174 4 201 -7 q 130 31 146 15 q 114 68 114 47 m 382 403 q 448 412 417 403 q 506 437 479 421 q 551 473 532 453 q 579 514 569 493 q 520 700 576 632 q 364 768 464 768 q 235 719 286 768 q 183 583 183 671 q 199 501 183 535 q 241 445 214 467 q 304 413 268 424 q 382 403 340 403 z "},"\u0000":{"ha":0,"x_min":0,"x_max":0,"o":""},"\r":{"ha":310,"x_min":0,"x_max":0,"o":""}," ":{"ha":278,"x_min":0,"x_max":0,"o":""},"!":{"ha":347,"x_min":92,"x_max":247,"o":"m 228 808 q 227 699 228 767 q 224 553 226 631 q 219 399 222 476 q 214 260 217 321 q 168 246 196 246 q 136 254 149 246 q 122 281 124 263 q 117 393 119 321 q 113 547 114 465 q 110 710 111 629 q 110 850 110 792 q 172 868 139 868 q 228 808 228 868 m 92 63 q 113 118 92 96 q 169 140 133 140 q 226 118 206 140 q 247 63 247 96 q 226 7 247 29 q 169 -15 206 -15 q 113 7 133 -15 q 92 63 92 29 z "},"\"":{"ha":375,"x_min":43,"x_max":332,"o":"m 140 581 q 97 572 121 572 q 51 613 53 572 l 43 854 q 97 868 68 868 q 149 814 149 868 q 148 767 149 796 q 146 704 147 738 q 143 638 144 671 q 140 581 142 606 m 325 581 q 281 572 304 572 q 236 613 238 572 l 226 854 q 252 865 239 861 q 282 868 265 868 q 332 813 332 868 q 331 767 332 796 q 329 704 331 738 q 327 638 328 671 q 325 581 326 606 z "},"#":{"ha":926,"x_min":60,"x_max":875,"o":"m 686 550 l 636 311 l 825 311 q 831 292 828 303 q 833 269 833 282 q 786 225 833 225 l 618 225 l 571 -4 q 555 -6 564 -6 q 536 -7 546 -7 q 501 3 514 -7 q 488 38 488 14 q 492 72 488 51 q 499 106 496 92 l 524 225 l 318 225 l 271 -4 q 255 -6 264 -6 q 236 -7 246 -7 q 201 3 214 -7 q 188 38 188 14 q 192 72 188 51 q 200 106 196 92 l 225 225 l 68 225 q 63 244 65 233 q 60 265 60 254 q 106 311 60 311 l 243 311 l 293 550 l 110 550 q 103 568 107 558 q 100 590 100 578 q 147 636 100 636 l 311 636 l 356 849 q 372 851 363 850 q 390 851 382 851 q 426 841 413 851 q 439 807 439 831 q 434 774 439 793 q 426 739 429 754 l 404 636 l 610 636 l 656 849 q 672 851 663 850 q 690 851 682 851 q 726 841 713 851 q 739 807 739 831 q 734 774 739 793 q 726 739 729 754 l 704 636 l 867 636 q 872 617 869 628 q 875 594 875 607 q 828 550 875 550 l 686 550 m 336 311 l 542 311 l 592 550 l 386 550 l 336 311 z "},"$":{"ha":725,"x_min":75,"x_max":661,"o":"m 357 76 q 498 119 450 76 q 546 228 546 161 q 509 322 546 286 q 393 382 472 358 l 272 418 q 133 496 183 444 q 82 635 82 547 q 142 786 82 728 q 307 858 203 844 l 307 968 q 326 973 314 971 q 353 975 338 975 q 408 929 408 975 l 408 861 q 496 847 456 857 q 565 822 536 836 q 611 789 594 807 q 628 753 628 771 q 618 719 628 733 q 593 697 608 706 q 499 746 557 725 q 371 767 442 767 q 242 732 289 767 q 196 635 196 697 q 229 556 196 586 q 340 503 263 525 l 425 478 q 598 388 535 446 q 661 228 661 331 q 596 62 661 128 q 408 -15 531 -4 l 408 -124 q 390 -128 401 -126 q 364 -131 379 -131 q 307 -85 307 -131 l 307 -15 q 211 1 254 -11 q 138 29 168 13 q 91 65 107 46 q 75 104 75 85 q 90 144 75 128 q 124 167 104 160 q 161 135 139 151 q 213 106 183 119 q 278 85 242 93 q 357 76 314 76 z "},"%":{"ha":1072,"x_min":74,"x_max":999,"o":"m 465 658 q 450 576 465 613 q 408 515 435 540 q 346 475 382 489 q 269 461 310 461 q 192 475 228 461 q 131 515 157 489 q 89 576 104 540 q 74 658 74 613 q 89 740 74 704 q 131 802 104 776 q 192 842 157 828 q 269 856 228 856 q 346 842 310 856 q 408 802 382 828 q 450 740 435 776 q 465 658 465 704 m 172 658 q 199 574 172 604 q 269 544 226 544 q 340 574 313 544 q 367 658 367 604 q 340 742 367 713 q 269 772 313 772 q 199 742 226 772 q 172 658 172 713 m 769 856 q 820 840 801 851 q 839 808 839 828 q 833 781 839 794 q 817 753 828 768 l 307 -10 q 257 6 276 -7 q 238 39 238 19 q 258 90 238 58 l 769 856 m 999 188 q 983 105 999 142 q 942 42 968 68 q 880 3 915 17 q 803 -11 844 -11 q 726 3 763 -11 q 664 42 690 17 q 622 105 638 68 q 607 188 607 142 q 622 268 607 232 q 664 330 638 304 q 726 369 690 356 q 803 383 763 383 q 880 369 844 383 q 942 330 915 356 q 983 268 968 304 q 999 188 999 232 m 706 188 q 733 102 706 132 q 803 72 760 72 q 873 102 846 72 q 900 188 900 132 q 873 270 900 240 q 803 300 846 300 q 733 270 760 300 q 706 188 706 240 z "},"&":{"ha":885,"x_min":69,"x_max":846,"o":"m 785 -19 q 757 -11 769 -19 q 729 13 744 -3 l 658 86 q 546 8 613 38 q 388 -21 479 -21 q 257 -1 315 -21 q 157 56 199 19 q 92 144 115 92 q 69 260 69 196 q 121 422 69 357 q 251 515 172 486 q 201 592 218 554 q 185 674 185 629 q 242 811 185 760 q 406 863 300 863 q 517 842 479 863 q 556 789 556 821 q 547 759 556 772 q 526 739 538 746 q 474 760 504 751 q 413 768 444 768 q 329 742 360 768 q 299 672 299 717 q 321 596 299 629 q 385 519 343 563 l 646 247 q 676 353 665 292 q 686 490 686 414 q 712 499 699 496 q 738 503 725 503 q 793 440 793 503 q 775 297 793 369 q 724 167 757 225 l 846 40 q 785 -19 838 -19 m 389 74 q 490 93 438 74 q 589 158 543 113 l 319 440 q 268 417 293 432 q 224 380 243 403 q 194 326 206 357 q 182 258 182 296 q 237 124 182 175 q 389 74 292 74 z "},"'":{"ha":193,"x_min":43,"x_max":151,"o":"m 143 581 q 122 575 133 578 q 97 572 110 572 q 51 613 54 572 l 43 854 q 67 865 54 861 q 99 868 81 868 q 151 813 151 868 q 151 765 151 794 q 149 703 150 736 q 146 638 147 671 q 143 581 144 606 z "},"(":{"ha":353,"x_min":76,"x_max":339,"o":"m 283 -161 q 243 -145 261 -161 q 206 -101 225 -129 q 110 106 143 -12 q 76 381 76 225 q 115 656 76 536 q 206 854 154 776 q 283 913 242 913 q 317 901 303 913 q 339 874 332 890 q 223 653 264 778 q 182 381 182 529 q 219 113 182 232 q 339 -121 256 -7 q 317 -149 332 -137 q 283 -161 303 -161 z "},")":{"ha":353,"x_min":14,"x_max":276,"o":"m 69 -161 q 35 -149 50 -161 q 14 -121 21 -137 q 134 113 97 -7 q 171 381 171 232 q 130 653 171 529 q 14 874 89 778 q 35 901 21 890 q 69 913 50 913 q 147 854 111 913 q 238 656 199 776 q 276 381 276 536 q 243 106 276 225 q 147 -101 210 -12 q 110 -145 128 -129 q 69 -161 92 -161 z "},"*":{"ha":415,"x_min":28,"x_max":388,"o":"m 69 804 q 83 801 76 804 q 99 796 90 799 l 172 758 l 168 889 q 186 897 175 893 q 211 901 197 901 q 241 893 229 901 q 253 865 253 885 q 250 821 253 856 q 246 756 247 786 l 353 817 q 376 798 365 811 q 388 768 388 785 q 378 743 388 751 q 353 728 368 735 l 271 689 l 358 585 q 341 554 356 567 q 310 542 326 542 q 282 553 294 542 q 260 578 269 565 l 210 647 l 139 543 q 121 542 132 542 q 81 553 93 542 q 68 582 68 565 q 85 619 68 603 l 149 692 l 32 731 q 28 760 28 744 q 39 792 28 779 q 69 804 50 804 z "},"+":{"ha":761,"x_min":71,"x_max":690,"o":"m 433 461 l 681 461 q 687 442 683 453 q 690 418 690 431 q 642 369 690 369 l 433 369 l 433 101 q 412 94 422 97 q 386 92 401 92 q 345 104 358 92 q 332 147 332 117 l 332 369 l 81 369 q 74 390 76 379 q 71 414 71 400 q 119 461 71 461 l 332 461 l 332 724 q 355 731 343 728 q 383 733 367 733 q 422 721 410 733 q 433 678 433 708 l 433 461 z "},",":{"ha":201,"x_min":-10,"x_max":175,"o":"m 94 -131 q 71 -159 83 -150 q 40 -168 58 -168 q -10 -144 10 -168 q 11 -83 0 -118 q 34 -9 22 -47 q 55 65 46 29 q 69 131 64 101 q 94 140 81 136 q 122 143 107 143 q 161 131 147 143 q 175 92 175 119 q 166 36 175 68 q 144 -28 157 4 q 118 -89 132 -61 q 94 -131 104 -117 z "},"-":{"ha":540,"x_min":75,"x_max":465,"o":"m 85 317 q 78 337 81 326 q 75 361 75 347 q 124 408 75 408 l 456 408 q 462 389 458 400 q 465 365 465 378 q 417 317 465 317 l 85 317 z "},".":{"ha":196,"x_min":22,"x_max":174,"o":"m 22 58 q 42 114 22 92 q 99 136 63 136 q 154 114 135 136 q 174 58 174 92 q 154 4 174 26 q 99 -18 135 -18 q 42 4 63 -18 q 22 58 22 26 z "},"/":{"ha":424,"x_min":33,"x_max":393,"o":"m 124 -146 q 107 -148 115 -147 q 88 -149 99 -149 q 33 -99 33 -149 q 39 -62 33 -83 q 47 -29 44 -42 l 303 979 q 320 981 311 981 q 339 982 329 982 q 378 970 363 982 q 393 932 393 958 q 389 898 393 917 q 381 863 385 879 l 124 -146 z "},":":{"ha":263,"x_min":56,"x_max":207,"o":"m 56 544 q 75 600 56 578 q 131 622 94 622 q 187 600 167 622 q 207 544 207 578 q 187 490 207 511 q 131 468 167 468 q 75 490 94 468 q 56 544 56 511 m 56 58 q 75 114 56 92 q 131 136 94 136 q 187 114 167 136 q 207 58 207 92 q 187 4 207 26 q 131 -18 167 -18 q 75 4 94 -18 q 56 58 56 26 z "},";":{"ha":281,"x_min":19,"x_max":215,"o":"m 64 544 q 83 600 64 578 q 139 622 103 622 q 195 600 175 622 q 215 544 215 578 q 195 490 215 511 q 139 468 175 468 q 83 490 103 468 q 64 544 64 511 m 124 -131 q 100 -159 113 -150 q 69 -168 88 -168 q 19 -144 39 -168 q 40 -83 29 -118 q 63 -9 51 -47 q 84 65 75 29 q 99 131 93 101 q 123 140 110 136 q 151 143 136 143 q 190 131 176 143 q 204 92 204 119 q 195 36 204 68 q 174 -28 186 4 q 147 -89 161 -61 q 124 -131 133 -117 z "},"<":{"ha":657,"x_min":75,"x_max":613,"o":"m 611 196 q 613 183 613 189 q 613 171 613 178 q 599 136 613 150 q 561 122 585 122 q 513 140 542 122 l 89 371 q 75 417 75 392 q 99 469 75 456 l 563 707 q 608 654 608 690 q 594 617 608 631 q 558 590 581 604 l 183 418 l 611 196 z "},"=":{"ha":719,"x_min":71,"x_max":647,"o":"m 81 504 q 71 547 71 524 q 119 594 71 594 l 639 594 q 644 576 642 586 q 647 551 647 565 q 599 504 647 504 l 81 504 m 81 224 q 71 267 71 243 q 119 314 71 314 l 639 314 q 644 294 642 306 q 647 271 647 283 q 599 224 647 224 l 81 224 z "},">":{"ha":639,"x_min":44,"x_max":568,"o":"m 46 638 q 44 650 44 644 q 44 663 44 656 q 58 697 44 682 q 94 711 71 711 q 117 706 106 711 q 143 694 129 701 l 554 464 q 568 417 568 443 q 562 383 568 396 q 544 364 556 371 l 94 128 q 60 149 71 135 q 49 181 49 164 q 62 217 49 203 q 99 243 75 232 l 460 419 l 46 638 z "},"?":{"ha":638,"x_min":38,"x_max":583,"o":"m 160 278 q 132 339 132 306 q 143 371 132 358 q 182 390 154 383 l 278 415 q 419 485 369 439 q 468 607 468 532 q 420 722 468 674 q 271 769 372 769 q 159 752 215 769 q 69 707 103 735 q 38 767 38 731 q 55 806 38 788 q 104 838 72 824 q 179 860 136 851 q 275 868 222 868 q 400 849 343 868 q 498 795 457 829 q 561 713 539 761 q 583 608 583 665 q 512 419 583 490 q 296 311 440 347 l 160 278 m 144 63 q 165 119 144 96 q 222 142 186 142 q 280 119 258 142 q 301 63 301 96 q 280 7 301 29 q 222 -15 258 -15 q 165 7 186 -15 q 144 63 144 29 z "},"@":{"ha":1389,"x_min":76,"x_max":1300,"o":"m 926 110 q 962 92 942 99 q 1008 85 982 85 q 1088 106 1054 85 q 1145 165 1122 126 q 1179 256 1168 203 q 1190 371 1190 308 q 1157 551 1190 469 q 1062 692 1124 633 q 913 783 1000 750 q 717 815 825 815 q 497 777 596 815 q 330 669 399 739 q 224 501 261 599 q 186 283 186 403 q 222 77 186 169 q 321 -81 257 -15 q 475 -181 385 -146 q 675 -217 565 -217 q 768 -210 728 -217 q 836 -196 808 -204 q 854 -239 854 -214 q 813 -289 854 -271 q 667 -307 772 -307 q 426 -265 535 -307 q 239 -147 317 -224 q 119 38 161 -71 q 76 283 76 147 q 122 539 76 424 q 250 735 167 654 q 451 861 333 817 q 715 906 569 906 q 960 867 851 906 q 1144 758 1068 829 q 1260 589 1219 688 q 1300 369 1300 490 q 1226 91 1300 189 q 1008 -7 1153 -7 q 923 7 965 -7 q 849 47 881 21 q 779 13 819 26 q 683 0 739 0 q 573 19 622 0 q 488 73 524 38 q 433 160 453 108 q 414 278 414 213 q 437 412 414 353 q 501 512 460 471 q 602 574 543 553 q 733 596 661 596 q 828 585 782 596 q 906 557 874 574 q 963 489 963 528 q 962 468 963 479 q 960 447 961 457 l 926 110 m 528 278 q 573 140 528 188 q 699 92 618 92 q 818 133 765 92 l 853 478 q 799 497 831 489 q 726 504 767 504 q 583 445 638 504 q 528 278 528 386 z "},"A":{"ha":822,"x_min":42,"x_max":782,"o":"m 594 225 l 222 225 q 201 165 213 197 q 180 101 190 132 q 160 42 169 69 q 144 -3 150 15 q 99 -11 125 -11 q 59 1 76 -11 q 42 39 42 13 q 46 65 42 51 q 56 93 50 78 q 109 243 76 151 q 180 438 142 335 q 258 647 218 542 q 331 835 297 751 q 364 846 342 840 q 410 851 386 851 q 463 843 438 851 q 496 815 489 835 q 567 631 529 735 q 644 419 606 528 q 719 206 683 311 q 782 17 754 101 q 756 -3 771 4 q 721 -11 740 -11 q 681 1 694 -11 q 657 40 667 13 l 594 225 m 408 757 q 374 662 393 715 q 333 550 354 608 q 292 432 313 492 q 253 318 271 372 l 565 318 q 522 444 544 381 q 480 565 500 507 q 442 673 460 624 q 414 757 425 722 l 408 757 z "},"B":{"ha":832,"x_min":124,"x_max":750,"o":"m 717 632 q 688 522 717 572 q 593 443 660 471 q 711 360 672 417 q 750 233 750 304 q 659 46 750 107 q 400 -15 568 -15 q 287 -10 342 -15 q 182 8 232 -6 q 124 72 124 25 l 124 783 q 169 836 124 824 q 269 855 217 850 q 385 860 322 860 q 629 804 542 860 q 717 632 717 749 m 235 393 l 235 93 q 312 82 268 86 q 400 78 356 78 q 575 116 515 78 q 635 236 635 154 q 581 351 635 308 q 424 393 528 393 l 235 393 m 235 485 l 424 485 q 556 524 511 485 q 601 629 601 563 q 385 767 601 767 q 301 763 336 767 q 235 754 265 760 l 235 485 z "},"C":{"ha":817,"x_min":75,"x_max":749,"o":"m 740 751 q 728 718 740 732 q 701 697 717 704 q 617 744 665 722 q 490 767 568 767 q 372 744 426 767 q 278 679 318 722 q 215 571 238 636 q 192 421 192 506 q 214 271 192 335 q 276 164 236 207 q 371 99 315 121 q 494 78 426 78 q 620 98 567 78 q 710 146 674 118 q 736 126 724 140 q 749 92 749 111 q 715 39 749 63 q 628 -1 683 17 q 486 -18 572 -18 q 324 10 399 -18 q 194 92 249 38 q 107 229 139 147 q 75 421 75 311 q 108 613 75 531 q 196 751 140 696 q 326 835 251 807 q 482 863 400 863 q 587 853 539 863 q 669 827 635 843 q 722 791 703 811 q 740 751 740 771 z "},"D":{"ha":906,"x_min":124,"x_max":831,"o":"m 715 432 q 688 584 715 521 q 615 688 661 647 q 506 747 568 728 q 374 765 444 765 q 297 763 329 765 q 236 754 264 760 l 236 93 q 308 82 269 85 q 386 79 346 79 q 633 168 550 79 q 715 432 715 257 m 831 432 q 799 234 831 318 q 710 94 768 150 q 571 12 653 39 q 388 -15 489 -15 q 288 -12 343 -15 q 182 7 232 -8 q 124 71 124 25 l 124 785 q 135 819 124 807 q 169 838 146 831 q 267 856 213 851 q 375 860 321 860 q 560 833 476 860 q 704 752 644 806 q 797 619 764 699 q 831 432 831 539 z "},"E":{"ha":738,"x_min":124,"x_max":665,"o":"m 185 0 q 140 17 157 0 q 124 61 124 33 l 124 783 q 140 828 124 811 q 185 844 157 844 l 646 844 q 654 826 650 838 q 658 800 658 814 q 647 763 658 776 q 615 749 636 749 l 236 749 l 236 481 l 603 481 q 611 462 607 474 q 615 436 615 450 q 604 399 615 413 q 572 386 593 386 l 236 386 l 236 94 l 653 94 q 661 76 657 88 q 665 50 665 65 q 654 13 665 26 q 622 0 643 0 l 185 0 l 185 0 z "},"F":{"ha":718,"x_min":124,"x_max":658,"o":"m 646 844 q 654 826 650 838 q 658 800 658 814 q 647 763 658 776 q 615 749 636 749 l 238 749 l 238 460 l 597 460 q 606 441 601 453 q 610 415 610 429 q 599 378 610 392 q 567 364 588 364 l 238 364 l 238 1 q 216 -4 231 -1 q 186 -7 201 -7 q 124 43 124 -7 l 124 783 q 140 828 124 811 q 185 844 157 844 l 646 844 z "},"G":{"ha":888,"x_min":75,"x_max":792,"o":"m 792 97 q 777 56 792 72 q 733 24 763 39 q 638 -6 699 7 q 514 -18 576 -18 q 336 8 417 -18 q 197 89 256 35 q 107 226 139 143 q 75 421 75 308 q 108 615 75 532 q 199 753 142 699 q 333 835 257 808 q 496 863 410 863 q 603 853 554 863 q 688 827 653 843 q 742 792 722 811 q 761 753 761 772 q 750 719 761 733 q 724 699 739 706 q 635 745 686 724 q 503 767 583 767 q 379 744 436 767 q 281 679 322 722 q 215 571 239 636 q 192 421 192 506 q 216 266 192 331 q 284 160 240 201 q 387 98 328 118 q 515 78 446 78 q 610 86 565 78 q 679 107 654 94 l 679 363 l 469 363 q 461 381 465 369 q 457 407 457 393 q 468 444 457 431 q 500 457 479 457 l 732 457 q 774 441 757 457 q 792 399 792 425 l 792 97 z "},"H":{"ha":908,"x_min":124,"x_max":785,"o":"m 785 3 q 763 -3 776 0 q 732 -7 749 -7 q 671 44 671 -7 l 671 381 l 238 381 l 238 3 q 215 -3 229 0 q 185 -7 201 -7 q 124 44 124 -7 l 124 842 q 145 848 131 844 q 176 851 160 851 q 238 800 238 851 l 238 475 l 671 475 l 671 842 q 692 848 678 844 q 724 851 707 851 q 785 800 785 851 l 785 3 l 785 3 z "},"I":{"ha":364,"x_min":125,"x_max":238,"o":"m 238 3 q 217 -3 231 0 q 186 -7 203 -7 q 125 44 125 -7 l 125 842 q 147 848 132 844 q 178 851 161 851 q 238 800 238 851 l 238 3 l 238 3 z "},"J":{"ha":535,"x_min":35,"x_max":411,"o":"m 299 842 q 320 848 306 844 q 350 851 335 851 q 411 800 411 851 l 411 206 q 393 101 411 143 q 344 33 375 58 q 272 -4 313 7 q 186 -15 231 -15 q 71 3 107 -15 q 35 53 35 22 q 43 86 35 72 q 58 107 51 100 q 108 89 79 97 q 169 81 138 81 q 265 110 232 81 q 299 211 299 140 l 299 842 l 299 842 z "},"K":{"ha":786,"x_min":124,"x_max":732,"o":"m 238 403 l 238 1 q 215 -5 229 -1 q 185 -8 201 -8 q 124 43 124 -8 l 124 842 q 145 848 131 844 q 176 851 160 851 q 238 800 238 851 l 238 454 l 619 850 q 674 832 656 849 q 692 793 692 815 q 682 760 692 775 q 654 726 672 744 l 354 432 q 573 212 481 308 q 732 56 665 115 q 713 8 729 25 q 672 -10 697 -10 q 630 3 649 -10 q 592 36 611 17 l 238 403 z "},"L":{"ha":696,"x_min":124,"x_max":651,"o":"m 185 0 q 141 17 158 0 q 124 61 124 33 l 124 842 q 145 848 131 844 q 176 851 160 851 q 238 800 238 851 l 238 97 l 636 97 q 651 51 651 82 q 639 14 651 28 q 606 0 626 0 l 185 0 l 185 0 z "},"M":{"ha":1083,"x_min":110,"x_max":981,"o":"m 604 219 q 578 207 594 213 q 543 201 563 201 q 503 208 521 201 q 479 231 486 215 q 350 515 404 386 q 263 729 296 644 l 257 729 q 248 535 253 625 q 238 360 243 446 q 226 188 232 275 q 215 0 221 100 q 194 -6 207 -3 q 165 -8 181 -8 q 122 4 135 -8 q 110 40 110 17 q 112 100 110 54 q 118 211 114 146 q 127 356 122 276 q 138 517 132 435 q 151 678 144 599 q 163 822 157 757 q 194 840 174 832 q 242 849 215 849 q 331 797 306 849 q 384 683 357 743 q 438 560 411 622 q 491 436 465 497 q 540 319 517 375 l 546 319 q 607 465 576 393 q 667 603 638 536 q 722 728 696 669 q 769 835 749 786 q 801 845 782 842 q 838 849 821 849 q 913 804 903 849 q 925 722 918 779 q 939 589 932 664 q 952 428 946 514 q 964 262 958 342 q 974 115 969 182 q 981 8 978 47 q 922 -8 956 -8 q 885 2 901 -8 q 867 40 869 13 q 854 242 860 142 q 844 432 849 342 q 835 598 839 522 q 828 726 831 674 l 822 726 q 787 639 807 688 q 740 529 767 590 q 679 391 713 468 q 604 219 646 314 z "},"N":{"ha":917,"x_min":124,"x_max":793,"o":"m 185 -7 q 124 43 124 -7 l 124 828 q 199 853 149 853 q 256 840 232 853 q 299 792 279 826 l 564 347 q 599 285 581 318 q 633 220 617 253 q 665 159 650 188 q 689 111 679 131 l 694 113 q 681 339 683 225 q 679 561 679 453 l 679 842 q 701 848 688 844 q 732 851 715 851 q 793 801 793 851 l 793 15 q 761 -2 781 4 q 718 -8 742 -8 q 661 5 685 -8 q 618 53 638 18 l 354 497 q 319 558 338 525 q 283 624 300 592 q 251 685 265 656 q 226 733 236 714 l 221 732 q 232 580 228 665 q 236 418 236 494 l 236 3 q 215 -3 229 0 q 185 -7 200 -7 z "},"O":{"ha":957,"x_min":75,"x_max":881,"o":"m 881 422 q 850 231 881 314 q 765 94 819 149 q 638 10 711 39 q 478 -18 564 -18 q 318 10 392 -18 q 190 94 244 39 q 106 231 136 149 q 75 422 75 314 q 106 613 75 531 q 192 750 138 694 q 319 834 246 806 q 478 863 393 863 q 636 834 563 863 q 764 750 710 806 q 849 613 818 694 q 881 422 881 531 m 765 422 q 687 678 765 589 q 478 767 608 767 q 360 744 413 767 q 269 677 307 721 q 212 569 232 633 q 192 422 192 506 q 269 167 192 256 q 478 78 347 78 q 688 167 610 78 q 765 422 765 256 z "},"P":{"ha":788,"x_min":124,"x_max":718,"o":"m 238 301 l 238 3 q 215 -3 229 0 q 185 -7 201 -7 q 124 44 124 -7 l 124 783 q 135 817 124 806 q 169 836 146 829 q 267 854 210 849 q 379 860 325 860 q 637 785 556 860 q 718 585 718 711 q 635 378 718 456 q 378 301 551 301 l 238 301 m 371 396 q 543 442 482 396 q 604 583 604 488 q 545 722 604 678 q 376 765 486 765 q 302 762 339 765 q 236 753 265 758 l 236 396 l 371 396 z "},"Q":{"ha":958,"x_min":75,"x_max":917,"o":"m 881 422 q 808 147 881 253 q 618 3 735 42 q 709 -45 669 -25 q 783 -81 749 -65 q 848 -108 817 -96 q 914 -133 879 -121 q 917 -149 917 -143 q 917 -161 917 -156 q 901 -203 917 -187 q 856 -219 885 -219 q 740 -181 811 -219 q 576 -81 668 -143 l 485 -18 l 478 -18 q 318 10 392 -18 q 190 94 244 39 q 106 231 136 149 q 75 422 75 314 q 106 613 75 531 q 192 750 138 694 q 319 834 246 806 q 478 863 393 863 q 636 834 563 863 q 764 750 710 806 q 849 613 818 694 q 881 422 881 531 m 765 422 q 687 678 765 589 q 478 767 608 767 q 360 744 413 767 q 269 677 307 721 q 212 569 232 633 q 192 422 192 506 q 269 167 192 256 q 478 78 347 78 q 688 167 610 78 q 765 422 765 256 z "},"R":{"ha":818,"x_min":124,"x_max":760,"o":"m 238 3 q 215 -3 229 0 q 185 -7 201 -7 q 124 44 124 -7 l 124 783 q 135 817 124 806 q 169 836 146 829 q 269 854 210 849 q 383 860 328 860 q 644 790 558 860 q 729 590 729 719 q 680 429 729 494 q 531 336 631 364 q 600 247 565 292 q 666 163 635 203 q 722 92 697 124 q 760 42 746 60 q 735 4 754 18 q 697 -10 717 -10 q 658 1 674 -10 q 626 36 643 13 l 424 319 l 238 319 l 238 3 m 396 414 q 557 458 499 414 q 615 590 615 503 q 554 722 615 678 q 379 765 493 765 q 303 762 342 765 q 236 753 265 758 l 236 414 l 396 414 z "},"S":{"ha":726,"x_min":75,"x_max":661,"o":"m 357 76 q 498 119 450 76 q 546 228 546 161 q 509 322 546 286 q 393 382 472 358 l 272 418 q 133 496 183 444 q 82 635 82 547 q 102 730 82 688 q 160 801 122 772 q 249 847 197 831 q 367 863 301 863 q 470 853 422 863 q 553 828 518 844 q 608 793 589 813 q 628 753 628 774 q 618 719 628 733 q 593 697 608 706 q 499 746 557 725 q 371 767 442 767 q 242 732 289 767 q 196 635 196 697 q 229 556 196 586 q 340 503 263 525 l 425 478 q 598 388 535 446 q 661 228 661 331 q 582 50 661 118 q 357 -18 503 -18 q 241 -7 293 -18 q 152 22 189 4 q 95 62 115 40 q 75 104 75 83 q 90 144 75 128 q 124 167 104 160 q 161 135 139 151 q 213 106 183 119 q 278 85 242 93 q 357 76 314 76 z "},"T":{"ha":726,"x_min":35,"x_max":692,"o":"m 419 749 l 419 3 q 398 -3 413 0 q 368 -7 383 -7 q 307 44 307 -7 l 307 749 l 47 749 q 39 767 43 756 q 35 794 35 779 q 46 831 35 818 q 78 844 57 844 l 679 844 q 688 826 683 838 q 692 800 692 814 q 681 763 692 776 q 649 749 669 749 l 419 749 z "},"U":{"ha":901,"x_min":122,"x_max":779,"o":"m 779 292 q 758 164 779 221 q 694 67 736 107 q 590 4 651 26 q 450 -18 529 -18 q 310 4 371 -18 q 207 67 249 26 q 144 164 165 107 q 122 292 122 221 l 122 842 q 144 848 129 844 q 175 851 158 851 q 235 800 235 851 l 235 301 q 251 204 235 246 q 297 134 268 163 q 365 92 325 106 q 450 78 404 78 q 535 92 496 78 q 603 134 575 106 q 649 204 632 163 q 665 301 665 246 l 665 842 q 687 848 672 844 q 718 851 701 851 q 779 800 779 851 l 779 292 l 779 292 z "},"V":{"ha":810,"x_min":43,"x_max":760,"o":"m 482 11 q 456 -1 475 4 q 413 -7 436 -7 q 365 1 386 -7 q 338 24 344 8 q 295 117 319 60 q 244 244 271 174 q 188 392 217 314 q 133 546 160 469 q 83 694 107 622 q 43 822 60 765 q 68 843 51 833 q 106 853 85 853 q 144 840 132 853 q 165 803 157 828 q 285 451 228 621 q 410 107 342 282 l 415 107 q 478 276 446 186 q 542 460 511 365 q 603 653 574 556 q 657 843 633 750 q 704 853 675 853 q 744 840 729 853 q 760 803 760 828 q 744 724 760 782 q 703 590 728 667 q 647 426 678 514 q 585 258 615 339 q 526 111 554 178 q 482 11 499 44 z "},"W":{"ha":1115,"x_min":54,"x_max":1054,"o":"m 499 635 q 526 644 510 640 q 561 649 542 649 q 632 613 619 649 q 679 471 657 538 q 722 342 701 404 q 763 221 743 281 q 801 97 782 161 l 807 97 q 846 280 826 190 q 883 460 865 369 q 918 645 901 551 q 950 843 935 739 q 997 853 969 853 q 1039 841 1024 853 q 1054 806 1054 829 q 1047 725 1054 779 q 1026 601 1039 671 q 995 449 1013 531 q 958 290 978 368 q 919 139 939 211 q 882 15 900 67 q 850 2 869 8 q 806 -4 831 -4 q 754 6 775 -4 q 726 32 733 15 q 692 123 711 68 q 651 244 672 178 q 607 381 629 310 q 564 524 585 453 q 521 381 543 454 q 477 238 499 307 q 435 111 456 169 q 397 14 414 53 q 367 1 386 7 q 322 -4 347 -4 q 271 6 290 -4 q 244 32 251 17 q 216 115 232 61 q 183 238 200 169 q 147 386 165 307 q 110 544 128 465 q 78 695 93 622 q 54 826 64 768 q 81 844 64 836 q 117 853 97 853 q 175 801 165 853 q 210 633 193 714 q 244 467 226 551 q 281 293 261 383 q 324 97 300 203 l 329 97 q 367 216 349 160 q 404 333 385 272 q 447 467 424 394 q 499 635 469 539 z "},"X":{"ha":821,"x_min":63,"x_max":756,"o":"m 407 350 l 151 -7 q 124 -10 138 -10 q 79 3 96 -10 q 63 40 63 17 q 72 74 63 58 q 94 108 81 89 l 339 428 l 68 797 q 91 837 75 821 q 135 853 107 853 q 172 840 157 853 q 204 803 188 826 l 410 508 l 656 849 q 669 851 663 850 q 685 851 676 851 q 728 838 714 851 q 743 803 743 824 q 735 773 743 788 q 717 743 728 758 q 599 588 658 665 q 476 431 539 510 l 756 44 q 733 6 749 21 q 692 -10 718 -10 q 655 1 669 -10 q 624 38 640 13 l 407 350 z "},"Y":{"ha":764,"x_min":29,"x_max":726,"o":"m 726 806 q 706 747 726 790 q 647 638 685 703 q 558 489 610 572 q 443 313 506 406 l 443 3 q 422 -3 436 0 q 392 -7 407 -7 q 331 44 331 -7 l 331 313 q 251 433 292 369 q 169 563 210 497 q 93 690 129 628 q 29 808 57 753 q 50 838 35 824 q 90 853 65 853 q 131 839 117 853 q 161 797 146 825 q 213 706 183 758 q 274 599 243 653 q 335 494 306 544 q 385 410 364 443 l 390 410 q 519 635 463 531 q 631 843 575 739 q 651 851 639 849 q 674 853 663 853 q 726 806 726 853 z "},"Z":{"ha":774,"x_min":69,"x_max":707,"o":"m 671 844 q 690 821 682 835 q 697 792 697 807 q 690 757 697 772 q 668 722 682 742 l 211 96 l 693 96 q 703 77 699 89 q 707 50 707 65 q 695 13 707 26 q 664 0 683 0 l 96 0 q 77 24 85 10 q 69 53 69 38 q 77 88 69 72 q 99 122 85 103 l 556 749 l 93 749 q 84 767 89 756 q 79 794 79 779 q 91 831 79 818 q 124 844 103 844 l 671 844 l 671 844 z "},"[":{"ha":372,"x_min":96,"x_max":358,"o":"m 350 904 q 356 886 353 896 q 358 863 358 876 q 311 817 358 817 l 197 817 l 197 -64 l 350 -64 q 356 -83 353 -74 q 358 -107 358 -93 q 311 -153 358 -153 l 153 -153 q 110 -137 125 -153 q 96 -96 96 -122 l 96 849 q 153 904 96 904 l 350 904 z "},"\\":{"ha":474,"x_min":46,"x_max":417,"o":"m 417 -64 q 390 -81 406 -74 q 358 -89 374 -89 q 310 -53 319 -89 l 46 899 q 73 917 57 910 q 104 924 89 924 q 153 888 143 924 l 417 -64 z "},"]":{"ha":374,"x_min":14,"x_max":276,"o":"m 22 -153 q 17 -134 19 -144 q 14 -111 14 -124 q 63 -64 14 -64 l 175 -64 l 175 817 l 22 817 q 17 835 19 825 q 14 858 14 846 q 63 904 14 904 l 219 904 q 276 849 276 904 l 276 -96 q 262 -137 276 -122 q 219 -153 247 -153 l 22 -153 z "},"^":{"ha":643,"x_min":75,"x_max":568,"o":"m 269 897 q 290 906 276 903 q 319 910 304 910 q 352 906 339 910 q 371 890 365 901 q 417 802 390 856 q 473 690 444 749 q 527 575 501 632 q 568 476 553 518 q 547 458 561 465 q 517 450 533 450 q 481 459 494 450 q 457 496 468 468 l 322 796 l 313 796 q 290 746 307 783 q 251 660 272 708 q 207 558 229 611 q 171 461 185 504 q 149 452 161 456 q 122 449 138 449 q 89 458 103 449 q 75 490 75 467 q 88 531 75 500 q 119 605 100 563 q 163 694 139 647 q 208 783 186 742 q 246 856 229 825 q 269 897 263 888 z "},"_":{"ha":646,"x_min":0,"x_max":646,"o":"m 8 -171 q 3 -152 6 -162 q 0 -128 0 -142 q 49 -81 0 -81 l 636 -81 q 642 -100 639 -89 q 646 -124 646 -111 q 597 -171 646 -171 l 8 -171 z "},"`":{"ha":419,"x_min":79,"x_max":306,"o":"m 82 881 q 79 899 79 894 q 94 935 79 921 q 132 949 108 949 q 181 925 161 949 l 306 768 q 292 733 304 746 q 260 719 279 719 q 234 725 244 719 q 213 742 224 731 l 82 881 z "},"a":{"ha":693,"x_min":60,"x_max":594,"o":"m 333 72 q 430 84 392 72 q 485 107 468 96 l 485 308 l 313 290 q 206 258 240 283 q 171 182 171 232 q 211 101 171 129 q 333 72 251 72 m 332 660 q 524 606 453 660 q 594 435 594 551 l 594 106 q 583 59 594 75 q 547 29 571 43 q 459 -5 514 10 q 333 -19 404 -19 q 131 32 203 -19 q 60 181 60 83 q 119 319 60 272 q 288 376 179 365 l 485 396 l 485 435 q 443 536 485 504 q 331 568 401 568 q 221 551 272 568 q 129 514 169 535 q 109 536 118 524 q 100 564 100 549 q 110 596 100 583 q 140 619 119 608 q 226 649 178 639 q 332 660 275 660 z "},"b":{"ha":763,"x_min":107,"x_max":693,"o":"m 390 660 q 510 639 454 660 q 606 576 565 618 q 670 471 647 535 q 693 321 693 407 q 669 169 693 233 q 603 64 646 106 q 501 2 561 22 q 371 -18 442 -18 q 248 -2 303 -18 q 158 35 193 14 q 118 70 129 53 q 107 117 107 88 l 107 900 q 128 906 114 903 q 160 910 143 910 q 218 860 218 910 l 218 611 q 291 645 249 631 q 390 660 333 660 m 374 568 q 285 551 325 568 q 218 510 246 533 l 218 117 q 278 88 239 101 q 371 74 318 74 q 456 88 418 74 q 522 133 494 103 q 565 210 550 164 q 581 321 581 257 q 565 432 581 385 q 522 509 550 479 q 456 553 494 539 q 374 568 418 568 z "},"c":{"ha":664,"x_min":68,"x_max":603,"o":"m 401 567 q 314 551 354 567 q 244 503 274 535 q 199 426 215 472 q 182 319 182 379 q 242 137 182 200 q 401 74 301 74 q 499 90 460 74 q 568 126 538 106 q 593 106 583 118 q 603 75 603 93 q 588 39 603 56 q 545 10 572 22 q 481 -10 518 -3 q 401 -18 444 -18 q 268 3 329 -18 q 163 65 207 24 q 93 170 118 107 q 68 319 68 233 q 94 467 68 404 q 165 574 121 531 q 270 638 210 617 q 399 660 331 660 q 478 652 442 660 q 542 631 515 644 q 583 599 568 617 q 597 564 597 582 q 588 535 597 547 q 563 515 578 522 q 496 551 532 536 q 401 567 460 567 z "},"d":{"ha":760,"x_min":68,"x_max":653,"o":"m 653 106 q 641 63 653 78 q 604 32 629 47 q 525 -2 576 14 q 407 -18 474 -18 q 269 1 332 -18 q 162 62 207 21 q 92 166 117 103 q 68 318 68 229 q 93 473 68 408 q 160 579 118 538 q 260 640 203 621 q 383 660 318 660 q 469 649 428 660 q 542 621 511 638 l 542 900 q 563 906 549 903 q 593 910 578 910 q 653 860 653 910 l 653 106 m 542 521 q 478 554 514 540 q 394 568 442 568 q 313 555 351 568 q 246 512 275 542 q 199 433 217 482 q 182 315 182 385 q 243 131 182 188 q 406 74 304 74 q 485 84 454 74 q 542 110 517 94 l 542 521 z "},"e":{"ha":721,"x_min":68,"x_max":664,"o":"m 183 256 q 422 74 221 74 q 528 93 481 74 q 603 135 575 113 q 636 82 636 115 q 619 44 636 63 q 572 13 601 26 q 502 -10 542 -1 q 417 -18 463 -18 q 162 69 256 -18 q 68 325 68 157 q 91 466 68 404 q 155 571 114 528 q 253 637 196 614 q 376 660 310 660 q 492 639 439 660 q 583 580 544 618 q 642 490 621 542 q 664 375 664 438 q 650 331 664 344 q 611 315 636 318 l 183 256 m 375 569 q 235 510 290 569 q 176 342 179 451 l 558 394 q 505 520 551 471 q 375 569 458 569 z "},"f":{"ha":554,"x_min":107,"x_max":526,"o":"m 217 606 l 492 606 q 500 588 496 599 q 504 561 504 576 q 461 515 504 515 l 218 515 l 218 3 q 197 -3 211 0 q 167 -7 183 -7 q 107 43 107 -7 l 107 699 q 173 876 107 821 q 357 931 239 931 q 481 910 436 931 q 526 858 526 889 q 503 807 526 828 q 440 830 478 821 q 368 839 403 839 q 250 804 283 839 q 217 693 217 769 l 217 606 z "},"g":{"ha":746,"x_min":71,"x_max":644,"o":"m 533 67 q 469 33 510 47 q 371 19 428 19 q 256 37 310 19 q 160 92 201 54 q 95 192 119 131 q 71 340 71 253 q 94 479 71 419 q 160 579 118 539 q 261 640 203 619 q 390 660 319 660 q 508 644 454 660 q 597 604 561 628 q 631 573 618 590 q 644 531 644 556 l 644 -28 q 622 -145 644 -97 q 558 -223 599 -193 q 461 -267 517 -253 q 342 -281 406 -281 q 222 -266 271 -281 q 154 -240 172 -251 q 113 -181 113 -217 q 122 -148 113 -161 q 144 -128 131 -135 q 226 -169 174 -150 q 342 -187 279 -187 q 484 -148 435 -187 q 533 -21 533 -108 l 533 67 m 383 111 q 474 128 439 111 q 533 168 510 146 l 533 529 q 474 556 510 544 q 390 568 439 568 q 240 511 296 568 q 183 342 183 454 q 199 235 183 279 q 241 164 214 192 q 305 124 268 136 q 383 111 342 111 z "},"h":{"ha":765,"x_min":107,"x_max":661,"o":"m 218 3 q 197 -3 211 0 q 167 -7 183 -7 q 107 43 107 -7 l 107 900 q 128 906 114 903 q 160 910 143 910 q 218 860 218 910 l 218 610 q 297 644 251 629 q 399 660 342 660 q 505 644 457 660 q 588 598 553 629 q 642 519 622 567 q 661 407 661 471 l 661 3 q 640 -3 654 0 q 610 -7 625 -7 q 550 43 550 -7 l 550 404 q 504 528 550 488 q 383 568 458 568 q 292 551 335 568 q 218 508 250 533 l 218 3 l 218 3 z "},"i":{"ha":335,"x_min":94,"x_max":238,"o":"m 222 3 q 201 -3 215 0 q 171 -7 188 -7 q 111 43 111 -7 l 111 639 q 133 645 118 642 q 164 649 147 649 q 222 597 222 649 l 222 3 m 94 844 q 115 894 94 874 q 167 914 135 914 q 218 894 199 914 q 238 844 238 874 q 218 795 238 815 q 167 775 199 775 q 115 795 135 775 q 94 844 94 815 z "},"j":{"ha":338,"x_min":8,"x_max":242,"o":"m 8 -203 q 53 -180 33 -192 q 87 -151 74 -168 q 108 -108 100 -133 q 115 -42 115 -82 l 115 639 q 137 645 122 642 q 168 649 151 649 q 226 597 226 649 l 226 -62 q 210 -163 226 -124 q 169 -227 193 -203 q 118 -261 144 -251 q 72 -271 92 -271 q 24 -251 38 -271 q 8 -203 11 -231 m 99 844 q 119 894 99 874 q 171 914 139 914 q 222 894 203 914 q 242 844 242 874 q 222 795 242 815 q 171 775 203 775 q 119 795 139 775 q 99 844 99 815 z "},"k":{"ha":676,"x_min":107,"x_max":633,"o":"m 218 3 q 197 -3 211 0 q 167 -7 183 -7 q 107 43 107 -7 l 107 900 q 128 906 114 903 q 160 910 143 910 q 218 860 218 910 l 218 360 l 522 654 q 574 638 556 653 q 593 600 593 624 q 581 566 593 581 q 547 532 568 551 l 324 336 l 633 58 q 615 10 631 28 q 572 -8 599 -8 q 534 2 551 -8 q 499 32 517 13 l 218 314 l 218 3 l 218 3 z "},"l":{"ha":342,"x_min":115,"x_max":226,"o":"m 226 3 q 206 -3 219 0 q 175 -7 192 -7 q 115 43 115 -7 l 115 900 q 137 906 122 903 q 167 910 151 910 q 226 860 226 910 l 226 3 l 226 3 z "},"m":{"ha":1133,"x_min":104,"x_max":1029,"o":"m 918 436 q 879 536 918 504 q 775 568 840 568 q 614 504 685 568 q 622 444 622 476 l 622 3 q 601 -3 615 0 q 571 -7 586 -7 q 511 43 511 -7 l 511 436 q 472 536 511 504 q 367 568 433 568 q 283 554 322 568 q 215 522 243 540 l 215 3 q 194 -3 208 0 q 164 -7 181 -7 q 104 43 104 -7 l 104 517 q 116 563 104 544 q 157 601 128 582 q 252 642 194 625 q 368 660 310 660 q 489 640 436 660 q 569 585 542 619 q 660 638 606 617 q 783 660 714 660 q 963 606 896 660 q 1029 442 1029 553 l 1029 3 q 1008 -3 1022 0 q 978 -7 993 -7 q 918 43 918 -7 l 918 436 l 918 436 z "},"n":{"ha":764,"x_min":104,"x_max":660,"o":"m 549 418 q 505 532 549 496 q 388 568 461 568 q 289 554 332 568 q 215 522 246 540 l 215 3 q 194 -3 208 0 q 164 -7 181 -7 q 104 43 104 -7 l 104 517 q 116 565 104 546 q 157 601 128 583 q 253 642 193 624 q 388 660 313 660 q 587 603 514 660 q 660 424 660 546 l 660 3 q 638 -3 653 0 q 608 -7 624 -7 q 549 43 549 -7 l 549 418 l 549 418 z "},"o":{"ha":768,"x_min":68,"x_max":700,"o":"m 700 321 q 678 181 700 243 q 615 74 656 118 q 515 6 574 29 q 385 -18 457 -18 q 254 6 313 -18 q 154 74 196 29 q 90 181 113 118 q 68 321 68 243 q 91 461 68 399 q 156 568 114 524 q 256 636 197 613 q 385 660 314 660 q 514 636 456 660 q 613 568 572 613 q 677 461 654 524 q 700 321 700 399 m 385 568 q 236 503 290 568 q 182 321 182 438 q 235 138 182 203 q 385 74 289 74 q 533 139 481 74 q 586 321 586 204 q 533 503 586 438 q 385 568 479 568 z "},"p":{"ha":758,"x_min":104,"x_max":690,"o":"m 378 -18 q 286 -7 329 -18 q 215 19 243 4 l 215 -250 q 194 -256 208 -253 q 164 -260 181 -260 q 104 -208 104 -260 l 104 525 q 114 569 104 553 q 154 604 124 586 q 244 642 192 625 q 363 660 296 660 q 491 640 431 660 q 595 580 551 621 q 665 475 639 539 q 690 322 690 411 q 667 172 690 236 q 603 66 644 108 q 503 3 561 24 q 378 -18 446 -18 m 363 74 q 519 133 460 74 q 578 322 578 192 q 560 438 578 390 q 513 514 543 485 q 444 556 483 543 q 363 568 406 568 q 278 556 313 568 q 215 528 243 543 l 215 118 q 278 86 242 99 q 363 74 314 74 z "},"q":{"ha":758,"x_min":68,"x_max":654,"o":"m 654 -254 q 633 -260 647 -257 q 603 -264 618 -264 q 543 -212 543 -264 l 543 22 q 476 -6 515 6 q 382 -18 436 -18 q 256 1 314 -18 q 157 61 199 21 q 92 165 115 101 q 68 317 68 229 q 93 469 68 404 q 163 576 118 533 q 267 639 207 618 q 397 660 328 660 q 518 643 464 660 q 608 604 572 626 q 642 574 629 592 q 654 531 654 556 l 654 -254 m 399 74 q 481 87 443 74 q 543 121 518 100 l 543 529 q 484 556 519 544 q 400 568 449 568 q 316 554 356 568 q 247 510 276 540 q 199 432 217 479 q 182 317 182 385 q 241 131 182 189 q 399 74 300 74 z "},"r":{"ha":531,"x_min":104,"x_max":504,"o":"m 215 3 q 194 -3 208 0 q 164 -7 181 -7 q 104 43 104 -7 l 104 514 q 116 565 104 546 q 156 601 128 583 q 253 642 192 625 q 393 660 315 660 q 504 604 504 660 q 500 578 504 590 q 489 558 496 567 q 453 564 475 561 q 408 567 431 567 q 296 553 344 567 q 215 522 247 540 l 215 3 z "},"s":{"ha":621,"x_min":64,"x_max":557,"o":"m 557 171 q 492 32 557 82 q 303 -18 426 -18 q 206 -9 250 -18 q 130 15 161 0 q 81 48 99 29 q 64 86 64 67 q 73 118 64 103 q 100 144 82 133 q 188 95 138 117 q 301 74 238 74 q 446 171 446 74 q 350 274 446 250 l 235 304 q 111 369 150 326 q 72 478 72 411 q 87 547 72 514 q 132 606 101 581 q 208 645 163 631 q 314 660 253 660 q 471 631 411 660 q 531 565 531 603 q 522 533 531 547 q 497 513 513 519 q 426 549 472 529 q 318 568 381 568 q 219 544 256 568 q 182 478 182 521 q 203 424 182 446 q 272 390 224 401 l 368 367 q 510 297 463 343 q 557 171 557 250 z "},"t":{"ha":517,"x_min":106,"x_max":460,"o":"m 324 -18 q 166 25 226 -18 q 106 168 106 68 l 106 828 q 127 834 113 831 q 158 838 142 838 q 217 788 217 838 l 217 628 l 444 628 q 453 609 449 621 q 457 583 457 597 q 415 536 457 536 l 217 536 l 217 175 q 248 97 217 119 q 336 74 279 74 q 389 82 360 74 q 438 101 418 90 q 453 81 446 93 q 460 51 460 68 q 424 1 460 21 q 324 -18 388 -18 z "},"u":{"ha":764,"x_min":104,"x_max":660,"o":"m 104 639 q 126 645 111 642 q 157 649 140 649 q 215 597 215 649 l 215 240 q 263 112 215 150 q 393 74 310 74 q 488 85 449 74 q 549 110 526 97 l 549 639 q 570 645 556 642 q 600 649 585 649 q 660 597 660 649 l 660 114 q 652 67 660 85 q 615 33 644 50 q 527 -1 583 15 q 392 -18 471 -18 q 178 43 253 -18 q 104 235 104 104 l 104 639 z "},"v":{"ha":688,"x_min":42,"x_max":638,"o":"m 585 654 q 623 642 608 654 q 638 606 638 629 q 626 552 638 590 q 597 462 615 514 q 556 347 579 410 q 508 223 533 285 q 456 104 482 161 q 408 6 431 47 q 384 -4 401 0 q 347 -8 367 -8 q 281 21 296 -8 q 249 86 268 44 q 207 181 229 128 q 161 293 185 233 q 115 412 138 353 q 74 526 93 471 q 42 624 54 581 q 68 646 51 638 q 101 654 85 654 q 140 642 126 654 q 164 600 153 629 l 250 351 q 271 294 258 328 q 297 224 283 260 q 323 156 310 189 q 344 99 336 122 l 350 99 q 453 375 406 239 q 538 643 501 511 q 585 654 556 654 z "},"w":{"ha":1013,"x_min":54,"x_max":956,"o":"m 508 478 q 469 346 489 413 q 428 218 449 279 q 388 103 407 157 q 351 7 368 49 q 326 -4 340 0 q 289 -8 313 -8 q 248 -1 267 -8 q 222 24 229 7 q 183 132 206 58 q 135 294 160 206 q 90 472 111 382 q 54 628 68 561 q 78 646 64 638 q 114 654 93 654 q 153 640 140 654 q 172 593 165 625 q 201 460 185 535 q 235 315 218 386 q 266 186 251 244 q 288 100 281 128 l 293 100 q 317 175 301 125 q 354 290 333 225 q 400 429 375 354 q 450 579 425 504 q 510 593 475 593 q 574 557 561 593 q 622 413 599 485 q 664 281 644 342 q 697 172 683 219 q 719 99 711 124 l 726 99 q 796 364 758 224 q 857 642 833 504 q 904 654 876 654 q 942 643 928 654 q 956 608 956 632 q 947 549 956 593 q 922 448 938 506 q 888 324 907 390 q 850 197 869 258 q 813 84 831 135 q 783 7 796 33 q 760 -3 776 1 q 724 -8 744 -8 q 680 -2 697 -8 q 657 18 663 4 q 624 107 642 56 q 588 219 607 158 q 548 346 568 279 q 508 478 528 413 z "},"x":{"ha":669,"x_min":57,"x_max":619,"o":"m 85 100 q 175 214 128 158 q 269 328 222 269 q 161 462 211 399 q 58 593 111 525 q 78 636 64 621 q 117 651 93 651 q 153 640 140 651 q 182 608 167 628 q 256 505 218 560 q 336 396 294 450 q 433 520 388 461 q 528 650 479 579 q 543 651 535 651 q 589 638 572 651 q 606 603 606 625 q 599 574 606 588 q 579 542 593 560 q 491 434 536 489 q 401 326 446 379 q 510 187 456 256 q 619 49 565 118 q 601 7 617 22 q 561 -8 586 -8 q 523 3 538 -8 q 489 40 508 15 q 412 147 451 90 q 333 256 372 203 q 235 125 285 192 q 140 -7 186 58 l 121 -7 q 73 7 89 -7 q 57 42 57 21 q 62 65 57 53 q 85 100 67 76 z "},"y":{"ha":679,"x_min":42,"x_max":632,"o":"m 235 143 q 193 228 217 176 q 144 343 169 279 q 92 478 118 407 q 42 624 65 550 q 67 646 51 638 q 101 654 83 654 q 140 642 125 654 q 165 600 154 629 q 252 368 207 482 q 354 129 297 254 l 360 129 q 406 234 382 172 q 452 365 429 296 q 495 506 475 435 q 531 643 515 578 q 551 651 540 647 q 578 654 563 654 q 617 642 601 654 q 632 607 632 631 q 613 506 632 579 q 562 340 593 432 q 490 152 531 249 q 408 -19 450 56 q 291 -201 343 -137 q 194 -264 239 -264 q 145 -247 163 -264 q 124 -208 128 -231 q 174 -158 146 -189 q 229 -92 201 -128 q 282 -19 257 -57 q 324 53 307 18 q 280 77 300 60 q 235 143 260 94 z "},"z":{"ha":651,"x_min":63,"x_max":590,"o":"m 85 0 q 63 49 63 18 q 69 80 63 65 q 88 108 76 94 l 440 550 l 83 550 q 75 569 79 557 q 71 596 71 581 q 113 642 71 642 l 557 642 q 581 592 581 622 q 554 533 581 564 l 201 90 l 578 90 q 586 72 582 83 q 590 46 590 61 q 547 0 590 0 l 85 0 l 85 0 z "},"{":{"ha":390,"x_min":51,"x_max":349,"o":"m 169 382 q 241 310 215 358 q 267 189 267 263 l 267 7 q 285 -62 267 -42 q 344 -83 304 -82 q 349 -115 349 -100 q 336 -147 349 -135 q 299 -160 324 -160 q 203 -118 240 -160 q 167 7 167 -76 l 167 178 q 61 339 167 322 q 53 359 56 346 q 51 382 51 372 q 54 404 51 392 q 61 425 57 417 q 167 585 167 442 l 167 746 q 203 870 167 829 q 299 911 240 911 q 349 867 349 911 q 344 835 349 851 q 285 815 304 835 q 267 744 267 794 l 267 575 q 241 453 267 500 q 169 382 215 406 z "},"|":{"ha":349,"x_min":124,"x_max":225,"o":"m 225 -250 q 203 -257 214 -254 q 176 -260 192 -260 q 136 -247 149 -260 q 124 -204 124 -235 l 124 936 q 146 943 135 940 q 172 946 157 946 q 213 933 200 946 q 225 890 225 921 l 225 -250 z "},"}":{"ha":390,"x_min":42,"x_max":339,"o":"m 221 382 q 149 453 175 406 q 124 575 124 500 l 124 744 q 105 815 124 794 q 46 835 86 835 q 42 867 42 851 q 92 911 42 911 q 187 870 150 911 q 224 746 224 829 l 224 585 q 329 425 224 442 q 336 404 333 417 q 339 382 339 392 q 337 359 339 372 q 329 339 335 346 q 224 178 224 322 l 224 7 q 187 -118 224 -76 q 92 -160 150 -160 q 54 -147 67 -160 q 42 -115 42 -135 q 46 -83 42 -100 q 105 -62 86 -82 q 124 7 124 -42 l 124 189 q 149 310 124 263 q 221 382 175 358 z "},"~":{"ha":622,"x_min":35,"x_max":588,"o":"m 433 392 q 486 412 469 392 q 514 454 503 432 q 566 438 544 454 q 588 393 588 421 q 551 322 588 349 q 457 296 515 296 q 378 305 415 296 q 308 324 342 314 q 246 344 275 335 q 189 353 217 353 q 135 333 151 353 q 108 290 119 313 q 56 307 76 290 q 35 351 35 324 q 71 422 35 396 q 165 449 107 449 q 245 440 208 449 q 315 420 282 431 q 376 401 347 410 q 433 392 406 392 z "}," ":{"ha":278,"x_min":0,"x_max":0,"o":""},"¡":{"ha":347,"x_min":100,"x_max":256,"o":"m 119 -175 q 120 -65 119 -133 q 123 80 121 3 q 128 235 125 157 q 133 374 131 313 q 179 388 151 388 q 211 379 199 388 q 225 353 224 371 q 231 240 228 313 q 235 86 233 168 q 237 -77 236 4 q 238 -217 238 -158 q 175 -235 208 -235 q 119 -175 119 -235 m 256 571 q 235 515 256 538 q 178 493 214 493 q 121 515 142 493 q 100 571 100 538 q 121 626 100 604 q 178 649 142 649 q 235 626 214 649 q 256 571 256 604 z "},"¢":{"ha":661,"x_min":68,"x_max":603,"o":"m 401 567 q 314 551 354 567 q 244 503 274 535 q 199 426 215 472 q 182 319 182 379 q 242 137 182 200 q 401 74 301 74 q 499 90 460 74 q 568 126 538 106 q 593 106 583 118 q 603 75 603 93 q 553 13 603 39 q 425 -17 503 -12 l 425 -150 q 406 -155 418 -153 q 381 -157 394 -157 q 324 -111 324 -157 l 324 -11 q 139 90 210 8 q 68 319 68 171 q 88 449 68 392 q 141 549 107 507 q 222 616 175 590 q 324 653 269 642 l 324 793 q 342 798 331 796 q 369 800 354 800 q 425 754 425 800 l 425 658 q 549 626 501 654 q 597 564 597 599 q 587 535 597 547 q 561 515 576 522 q 496 551 532 536 q 401 567 460 567 z "},"£":{"ha":700,"x_min":75,"x_max":651,"o":"m 201 304 q 197 365 201 329 l 118 365 q 91 376 103 365 q 79 411 79 386 q 83 435 79 425 q 90 456 88 446 l 189 456 q 183 523 185 490 q 181 581 181 556 q 203 708 181 656 q 263 796 225 761 q 352 847 301 831 q 461 863 403 863 q 539 855 506 863 q 594 835 572 847 q 626 807 615 822 q 638 778 638 792 q 630 751 638 767 q 606 725 622 735 q 544 757 575 746 q 468 768 513 768 q 292 565 292 768 q 293 513 292 542 q 297 456 294 485 l 563 456 q 570 435 567 446 q 574 411 574 425 q 563 376 574 386 q 533 365 551 365 l 306 365 q 310 301 310 328 q 290 176 310 226 q 233 92 271 125 l 640 92 q 651 46 651 72 q 640 12 651 24 q 611 0 629 0 l 139 0 q 94 16 113 0 q 75 63 75 32 q 75 73 75 69 q 76 83 75 76 q 131 117 107 99 q 170 161 154 136 q 194 221 186 186 q 201 304 201 256 z "},"¤":{"ha":729,"x_min":83,"x_max":646,"o":"m 621 414 q 606 319 621 361 q 565 246 592 278 l 646 151 q 617 113 635 125 q 581 100 600 100 q 548 115 564 100 q 518 149 532 131 l 486 186 q 364 160 433 160 q 243 185 297 160 l 168 89 q 121 109 140 94 q 101 149 101 124 q 110 182 101 165 q 135 215 119 199 l 161 246 q 107 414 107 311 q 121 506 107 465 q 160 579 135 547 l 83 671 q 112 708 94 696 q 149 721 129 721 q 182 706 167 721 q 211 674 197 690 l 239 639 q 364 667 294 667 q 492 638 435 667 l 565 732 q 611 713 592 726 q 631 674 631 699 q 622 640 631 656 q 597 606 613 624 l 571 574 q 608 502 594 542 q 621 414 621 463 m 518 414 q 476 537 518 493 q 364 581 433 581 q 251 537 293 581 q 208 414 208 493 q 251 290 208 333 q 364 247 293 247 q 476 290 433 247 q 518 414 518 333 z "},"¥":{"ha":758,"x_min":51,"x_max":696,"o":"m 82 389 q 68 433 68 406 q 78 466 68 457 q 103 475 89 475 l 267 475 q 205 568 236 521 q 146 660 174 615 q 94 747 118 706 q 51 822 69 789 q 76 847 61 835 q 113 858 92 858 q 151 845 136 858 q 181 803 165 832 l 379 479 l 386 479 q 445 574 419 531 q 494 660 471 618 q 543 747 518 703 q 600 847 568 792 q 622 856 613 854 q 647 858 632 858 q 684 845 672 858 q 696 814 696 832 q 678 769 696 803 q 633 689 661 736 q 571 586 606 642 q 500 475 536 531 l 679 475 q 687 453 683 464 q 690 431 690 443 q 681 400 690 411 q 656 389 671 389 l 82 389 m 439 206 l 439 1 q 417 -4 432 -1 q 388 -7 403 -7 q 325 43 325 -7 l 325 206 l 82 206 q 68 250 68 222 q 78 283 68 275 q 101 292 89 292 l 676 292 q 684 272 681 285 q 688 247 688 258 q 678 217 688 228 q 654 206 668 206 l 439 206 z "},"¦":{"ha":407,"x_min":124,"x_max":225,"o":"m 225 431 q 203 424 214 426 q 176 421 192 421 q 136 433 149 421 q 124 476 124 446 l 124 938 q 146 944 135 942 q 172 947 157 947 q 213 935 200 947 q 225 892 225 922 l 225 431 m 225 -250 q 203 -257 214 -254 q 176 -260 192 -260 q 136 -247 149 -260 q 124 -204 124 -235 l 124 257 q 146 264 135 261 q 172 267 157 267 q 213 254 200 267 q 225 211 225 242 l 225 -250 z "},"§":{"ha":700,"x_min":83,"x_max":617,"o":"m 617 393 q 595 310 617 344 q 542 253 574 276 q 597 199 578 231 q 617 118 617 167 q 548 -15 617 32 q 344 -62 479 -62 q 240 -54 288 -62 q 158 -31 193 -46 q 103 2 122 -17 q 83 42 83 21 q 93 74 83 61 q 118 99 103 88 q 220 49 165 69 q 344 28 275 28 q 465 51 422 28 q 507 118 507 74 q 480 174 507 156 q 392 207 453 193 l 265 235 q 139 291 190 250 q 88 414 88 332 q 109 495 88 461 q 163 551 131 529 q 112 603 131 571 q 93 686 93 636 q 158 817 93 771 q 340 863 222 863 q 433 856 390 863 q 508 836 476 849 q 557 807 539 824 q 575 771 575 790 q 566 740 575 753 q 546 719 557 726 q 457 756 508 739 q 343 772 406 772 q 240 751 276 772 q 203 686 203 729 q 228 629 203 647 q 300 601 254 611 l 425 576 q 503 551 468 565 q 564 515 539 536 q 603 465 589 494 q 617 393 617 435 m 426 294 l 446 289 q 490 331 474 306 q 507 392 507 356 q 480 454 507 432 q 390 489 453 476 l 265 514 q 254 517 260 514 q 212 475 228 500 q 196 417 196 450 q 224 354 196 376 q 299 322 251 332 l 426 294 z "},"¨":{"ha":519,"x_min":78,"x_max":454,"o":"m 214 842 q 194 794 214 814 q 144 775 175 775 q 97 794 115 775 q 78 842 78 814 q 97 889 78 869 q 144 908 115 908 q 194 889 175 908 q 214 842 214 869 m 454 842 q 434 794 454 814 q 385 775 414 775 q 337 794 357 775 q 317 842 317 814 q 337 889 317 869 q 385 908 357 908 q 434 889 414 908 q 454 842 454 869 z "},"©":{"ha":990,"x_min":75,"x_max":915,"o":"m 75 414 q 105 583 75 504 q 190 721 135 663 q 322 813 246 779 q 493 846 399 846 q 664 813 586 846 q 797 721 742 779 q 884 583 853 663 q 915 414 915 504 q 884 250 915 326 q 797 117 853 174 q 664 29 742 61 q 493 -3 586 -3 q 322 29 399 -3 q 190 117 246 61 q 105 250 135 174 q 75 414 75 326 m 493 771 q 353 744 415 771 q 249 671 292 718 q 184 558 207 624 q 161 414 161 493 q 184 276 161 339 q 249 167 207 213 q 353 97 292 122 q 493 72 415 72 q 633 97 571 72 q 737 167 694 122 q 802 276 779 213 q 825 414 825 339 q 802 558 825 493 q 737 671 779 624 q 633 744 694 718 q 493 771 571 771 m 524 583 q 467 574 494 583 q 419 544 440 564 q 386 494 399 525 q 374 421 374 464 q 417 301 374 342 q 528 260 461 260 q 589 269 567 260 q 629 290 611 279 q 657 246 657 275 q 623 200 657 222 q 521 178 589 178 q 425 193 469 178 q 347 239 381 208 q 294 315 314 269 q 275 421 275 361 q 296 531 275 485 q 351 608 317 578 q 426 652 385 638 q 510 667 468 667 q 612 645 572 667 q 651 590 651 624 q 642 569 651 579 q 622 553 633 558 q 579 574 603 564 q 524 583 556 583 z "},"ª":{"ha":489,"x_min":58,"x_max":418,"o":"m 242 497 q 296 503 271 497 q 333 517 321 510 l 333 628 l 239 618 q 167 599 189 613 q 144 561 144 586 q 242 497 144 497 m 238 861 q 310 854 276 861 q 367 829 343 847 q 404 782 390 811 q 418 708 418 753 l 418 493 q 385 453 418 471 q 319 431 357 439 q 242 424 282 424 q 107 456 156 424 q 58 556 58 489 q 100 649 58 618 q 221 688 142 681 l 333 699 l 333 708 q 309 771 333 754 q 232 788 285 788 q 160 776 196 788 q 101 750 125 765 q 84 766 92 756 q 76 792 76 776 q 83 816 76 807 q 106 833 90 825 q 163 853 126 844 q 238 861 200 861 z "},"«":{"ha":651,"x_min":49,"x_max":596,"o":"m 332 114 q 319 76 332 93 q 279 58 306 58 q 246 69 261 58 q 217 96 231 81 l 63 267 q 49 314 49 288 q 54 348 49 336 q 69 368 60 360 l 271 578 q 325 528 325 565 q 316 498 325 511 q 288 464 307 485 l 140 313 l 332 114 m 596 114 q 583 76 596 93 q 544 58 569 58 q 510 69 525 58 q 482 96 494 81 l 326 267 q 313 314 313 288 q 318 348 313 336 q 333 368 324 360 l 535 578 q 589 528 589 565 q 580 498 589 511 q 551 464 571 485 l 406 313 l 596 114 z "},"¬":{"ha":753,"x_min":71,"x_max":681,"o":"m 628 532 q 666 519 651 532 q 681 481 681 506 l 681 253 q 658 246 669 249 q 631 243 646 243 q 590 256 603 243 q 576 299 576 268 l 576 442 l 81 442 q 71 485 71 461 q 119 532 71 532 l 628 532 z "},"­":{"ha":540,"x_min":75,"x_max":465,"o":"m 85 317 q 78 337 81 326 q 75 361 75 347 q 124 408 75 408 l 456 408 q 462 389 458 400 q 465 365 465 378 q 417 317 465 317 l 85 317 z "},"®":{"ha":860,"x_min":81,"x_max":779,"o":"m 81 524 q 106 657 81 594 q 176 766 131 719 q 286 840 222 813 q 429 868 350 868 q 570 840 506 868 q 681 766 635 813 q 753 657 728 719 q 779 524 779 594 q 753 390 779 453 q 681 281 728 328 q 570 206 635 233 q 429 179 506 179 q 286 206 350 179 q 176 281 222 233 q 106 390 131 328 q 81 524 81 453 m 157 524 q 176 413 157 464 q 231 326 196 363 q 317 268 267 289 q 429 247 368 247 q 541 268 490 247 q 627 326 592 289 q 682 413 663 363 q 701 524 701 464 q 682 634 701 583 q 627 722 663 685 q 541 779 592 758 q 429 800 490 800 q 317 779 368 800 q 231 722 267 758 q 176 634 196 685 q 157 524 157 583 m 388 486 l 388 375 q 351 372 374 372 q 325 378 335 372 q 315 404 315 383 l 315 661 q 346 686 315 681 q 382 692 365 690 q 418 693 399 693 q 522 666 485 693 q 560 589 560 639 q 540 529 560 553 q 490 496 519 506 l 569 399 q 556 379 567 388 q 529 371 544 371 q 483 399 504 371 l 424 486 l 388 486 m 432 543 q 485 592 485 543 q 468 624 485 613 q 424 636 451 636 q 405 635 414 636 q 388 633 396 635 l 388 543 l 432 543 z "},"¯":{"ha":456,"x_min":40,"x_max":415,"o":"m 56 792 q 45 811 50 800 q 40 836 40 822 q 53 871 40 860 q 85 882 65 882 l 401 882 q 411 862 407 874 q 415 838 415 850 q 371 792 415 792 l 56 792 z "},"°":{"ha":500,"x_min":54,"x_max":446,"o":"m 446 679 q 431 604 446 638 q 388 547 415 571 q 326 510 361 522 q 251 497 290 497 q 172 511 208 497 q 110 549 136 525 q 69 607 83 574 q 54 679 54 640 q 70 754 54 721 q 113 812 86 788 q 174 849 139 836 q 250 861 210 861 q 325 849 289 861 q 388 813 361 836 q 430 755 414 789 q 446 679 446 721 m 250 779 q 182 753 213 779 q 151 679 151 728 q 181 604 151 631 q 250 578 210 578 q 319 604 290 578 q 349 679 349 631 q 318 753 349 728 q 250 779 288 779 z "},"±":{"ha":718,"x_min":71,"x_max":647,"o":"m 413 532 l 639 532 q 644 513 642 524 q 647 489 647 503 q 599 442 647 442 l 413 442 l 413 208 q 391 202 401 206 q 365 199 381 199 q 324 211 338 199 q 311 256 311 224 l 311 442 l 79 442 q 74 461 76 450 q 71 485 71 472 q 119 532 71 532 l 311 532 l 311 760 q 334 767 322 764 q 361 769 346 769 q 400 757 388 769 q 413 714 413 744 l 413 532 m 79 0 q 74 19 76 8 q 71 43 71 31 q 119 90 71 90 l 639 90 q 644 72 642 82 q 647 47 647 61 q 599 0 647 0 l 79 0 z "},"²":{"ha":383,"x_min":32,"x_max":339,"o":"m 171 968 q 286 932 244 968 q 328 831 328 896 q 305 749 328 788 q 222 661 282 710 l 125 583 l 331 583 q 339 549 339 568 q 331 525 339 535 q 303 515 324 515 l 50 515 q 32 560 32 533 q 38 591 32 579 q 54 611 44 603 l 175 718 q 228 775 208 747 q 247 831 247 803 q 224 882 247 865 q 167 899 200 899 q 115 889 139 899 q 71 864 90 879 q 54 878 61 869 q 47 903 47 888 q 58 928 47 917 q 85 949 68 940 q 125 963 103 958 q 171 968 147 968 z "},"³":{"ha":378,"x_min":24,"x_max":336,"o":"m 186 776 q 232 792 214 776 q 250 833 250 808 q 226 881 250 864 q 160 899 201 899 q 102 889 128 899 q 60 868 76 879 q 43 884 49 875 q 38 908 38 893 q 77 951 38 935 q 168 968 117 968 q 289 934 247 968 q 331 842 331 900 q 313 782 331 808 q 263 744 294 756 q 316 704 296 733 q 336 638 336 675 q 287 536 336 568 q 167 504 238 504 q 65 524 106 504 q 24 572 24 544 q 51 615 24 601 q 95 588 68 601 q 164 574 122 574 q 230 591 204 574 q 256 644 256 608 q 237 690 256 672 q 186 708 218 708 l 107 708 q 96 743 96 724 q 107 776 96 765 l 186 776 z "},"´":{"ha":414,"x_min":104,"x_max":328,"o":"m 260 954 q 309 937 290 953 q 328 901 328 921 q 319 870 328 882 q 292 840 311 858 l 165 717 q 121 731 138 717 q 104 764 104 746 q 111 785 104 775 q 125 803 118 794 l 260 954 z "},"µ":{"ha":767,"x_min":107,"x_max":663,"o":"m 663 114 q 655 67 663 85 q 618 33 647 50 q 536 -1 589 17 q 408 -18 483 -18 q 293 -2 346 -18 q 208 54 240 14 q 215 -44 213 13 q 218 -160 218 -101 l 218 -256 q 197 -261 211 -258 q 168 -264 183 -264 q 107 -214 107 -264 l 107 639 q 128 645 114 642 q 158 649 143 649 q 218 597 218 649 l 218 240 q 267 112 218 150 q 396 74 315 74 q 490 85 451 74 q 551 110 529 97 l 551 639 q 572 645 558 642 q 603 649 586 649 q 663 597 663 649 l 663 114 l 663 114 z "},"¶":{"ha":613,"x_min":21,"x_max":515,"o":"m 456 851 q 499 842 483 851 q 515 799 515 832 l 515 -96 q 494 -101 508 -99 q 465 -104 481 -104 q 420 -92 436 -104 q 404 -53 404 -81 l 404 756 l 313 756 l 313 383 q 294 356 313 367 q 236 344 276 344 q 158 359 197 344 q 89 404 119 374 q 40 481 58 435 q 21 592 21 528 q 44 707 21 658 q 104 788 67 756 q 192 835 142 819 q 296 851 242 851 l 456 851 z "},"·":{"ha":196,"x_min":22,"x_max":174,"o":"m 22 350 q 42 406 22 383 q 99 428 63 428 q 154 406 135 428 q 174 350 174 383 q 154 296 174 318 q 99 274 135 274 q 42 296 63 274 q 22 350 22 318 z "},"¸":{"ha":271,"x_min":4,"x_max":226,"o":"m 154 24 q 210 -40 193 -4 q 226 -118 226 -75 q 185 -224 226 -185 q 76 -262 143 -262 q 4 -212 4 -262 q 13 -179 4 -194 l 33 -179 q 106 -158 83 -179 q 129 -100 129 -136 q 119 -49 129 -76 q 85 3 108 -21 l 154 24 z "},"¹":{"ha":293,"x_min":22,"x_max":218,"o":"m 139 872 l 54 832 q 33 849 43 838 q 22 875 22 860 q 56 915 22 900 l 158 961 l 175 961 q 218 915 218 961 l 218 518 q 181 510 201 510 q 150 517 161 510 q 139 549 139 525 l 139 872 z "},"º":{"ha":525,"x_min":61,"x_max":463,"o":"m 463 642 q 408 480 463 536 q 263 424 354 424 q 117 479 174 424 q 61 643 61 535 q 76 738 61 697 q 119 806 92 778 q 183 847 146 833 q 263 861 219 861 q 408 805 354 861 q 463 642 463 749 m 263 786 q 180 749 211 786 q 149 643 149 711 q 179 537 149 574 q 263 500 210 500 q 344 536 314 500 q 375 642 375 572 q 345 748 375 710 q 263 786 315 786 z "},"»":{"ha":651,"x_min":56,"x_max":603,"o":"m 319 522 q 333 560 319 543 q 371 578 346 578 q 406 567 390 578 q 433 540 421 556 l 589 369 q 603 322 603 349 q 597 288 603 300 q 582 268 592 276 l 379 58 q 326 108 326 71 q 335 138 326 125 q 364 172 344 151 l 510 324 l 319 522 m 56 522 q 69 560 56 543 q 107 578 82 578 q 142 567 126 578 q 169 540 157 556 l 325 369 q 339 322 339 349 q 333 288 339 300 q 317 268 328 276 l 115 58 q 63 108 63 71 q 72 138 63 125 q 100 172 81 151 l 246 324 l 56 522 z "},"¿":{"ha":638,"x_min":54,"x_max":600,"o":"m 478 356 q 506 294 506 328 q 494 263 506 275 q 456 243 483 250 l 360 218 q 219 148 268 194 q 169 26 169 101 q 217 -88 169 -40 q 367 -136 265 -136 q 478 -119 422 -136 q 568 -74 535 -101 q 600 -133 600 -97 q 583 -172 600 -154 q 533 -204 565 -190 q 458 -226 501 -218 q 363 -235 414 -235 q 237 -215 293 -235 q 140 -162 181 -196 q 76 -80 99 -128 q 54 25 54 -32 q 126 215 54 143 q 342 322 197 286 l 478 356 m 493 571 q 472 515 493 538 q 415 492 451 492 q 358 515 379 492 q 336 571 336 538 q 358 626 336 604 q 415 649 379 649 q 472 626 451 649 q 493 571 493 604 z "},"À":{"ha":822,"x_min":42,"x_max":782,"o":"m 594 225 l 222 225 q 201 165 213 197 q 180 101 190 132 q 160 42 169 69 q 144 -3 150 15 q 99 -11 125 -11 q 59 1 76 -11 q 42 39 42 13 q 46 65 42 51 q 56 93 50 78 q 109 243 76 151 q 180 438 142 335 q 258 647 218 542 q 331 835 297 751 q 364 846 342 840 q 410 851 386 851 q 463 843 438 851 q 496 815 489 835 q 567 631 529 735 q 644 419 606 528 q 719 206 683 311 q 782 17 754 101 q 756 -3 771 4 q 721 -11 740 -11 q 681 1 694 -11 q 657 40 667 13 l 594 225 m 408 757 q 374 662 393 715 q 333 550 354 608 q 292 432 313 492 q 253 318 271 372 l 565 318 q 522 444 544 381 q 480 565 500 507 q 442 673 460 624 q 414 757 425 722 l 408 757 m 239 1067 q 238 1083 238 1074 q 251 1120 238 1106 q 285 1135 264 1135 q 335 1110 315 1135 l 451 969 q 438 935 450 947 q 407 922 426 922 q 382 928 392 922 q 361 944 372 933 l 239 1067 z "},"Á":{"ha":822,"x_min":42,"x_max":782,"o":"m 594 225 l 222 225 q 201 165 213 197 q 180 101 190 132 q 160 42 169 69 q 144 -3 150 15 q 99 -11 125 -11 q 59 1 76 -11 q 42 39 42 13 q 46 65 42 51 q 56 93 50 78 q 109 243 76 151 q 180 438 142 335 q 258 647 218 542 q 331 835 297 751 q 364 846 342 840 q 410 851 386 851 q 463 843 438 851 q 496 815 489 835 q 567 631 529 735 q 644 419 606 528 q 719 206 683 311 q 782 17 754 101 q 756 -3 771 4 q 721 -11 740 -11 q 681 1 694 -11 q 657 40 667 13 l 594 225 m 408 757 q 374 662 393 715 q 333 550 354 608 q 292 432 313 492 q 253 318 271 372 l 565 318 q 522 444 544 381 q 480 565 500 507 q 442 673 460 624 q 414 757 425 722 l 408 757 m 522 1139 q 569 1123 553 1138 q 585 1089 585 1108 q 577 1057 585 1069 q 550 1028 569 1044 l 432 922 q 391 936 406 925 q 376 964 376 947 q 382 988 376 978 q 396 1006 388 997 l 522 1139 z "},"Â":{"ha":822,"x_min":42,"x_max":782,"o":"m 414 1043 q 358 985 390 1019 q 286 915 326 951 q 247 930 263 918 q 232 961 232 942 q 242 990 232 976 q 268 1018 253 1003 l 350 1100 q 415 1131 381 1131 q 453 1122 438 1131 q 485 1094 468 1113 l 599 965 q 585 931 599 944 q 551 918 572 918 q 522 926 536 918 q 489 957 508 935 l 414 1043 m 594 225 l 222 225 q 201 165 213 197 q 180 101 190 132 q 160 42 169 69 q 144 -3 150 15 q 99 -11 125 -11 q 59 1 76 -11 q 42 39 42 13 q 46 65 42 51 q 56 93 50 78 q 109 243 76 151 q 180 438 142 335 q 258 647 218 542 q 331 835 297 751 q 364 846 342 840 q 410 851 386 851 q 463 843 438 851 q 496 815 489 835 q 567 631 529 735 q 644 419 606 528 q 719 206 683 311 q 782 17 754 101 q 756 -3 771 4 q 721 -11 740 -11 q 681 1 694 -11 q 657 40 667 13 l 594 225 m 408 757 q 374 662 393 715 q 333 550 354 608 q 292 432 313 492 q 253 318 271 372 l 565 318 q 522 444 544 381 q 480 565 500 507 q 442 673 460 624 q 414 757 425 722 l 408 757 z "},"Ã":{"ha":822,"x_min":42,"x_max":782,"o":"m 594 225 l 222 225 q 201 165 213 197 q 180 101 190 132 q 160 42 169 69 q 144 -3 150 15 q 99 -11 125 -11 q 59 1 76 -11 q 42 39 42 13 q 46 65 42 51 q 56 93 50 78 q 109 243 76 151 q 180 438 142 335 q 258 647 218 542 q 331 835 297 751 q 364 846 342 840 q 410 851 386 851 q 463 843 438 851 q 496 815 489 835 q 567 631 529 735 q 644 419 606 528 q 719 206 683 311 q 782 17 754 101 q 756 -3 771 4 q 721 -11 740 -11 q 681 1 694 -11 q 657 40 667 13 l 594 225 m 408 757 q 374 662 393 715 q 333 550 354 608 q 292 432 313 492 q 253 318 271 372 l 565 318 q 522 444 544 381 q 480 565 500 507 q 442 673 460 624 q 414 757 425 722 l 408 757 m 319 1092 q 374 1084 349 1092 q 420 1068 399 1076 q 461 1052 442 1060 q 499 1044 481 1044 q 535 1059 524 1044 q 553 1097 547 1074 l 561 1097 q 606 1085 586 1097 q 625 1044 625 1074 q 597 981 625 1004 q 524 958 569 958 q 468 966 494 958 q 419 983 442 974 q 376 999 396 992 q 340 1007 357 1007 q 304 992 315 1007 q 288 953 293 976 l 279 953 q 235 965 254 953 q 215 1006 215 978 q 247 1069 215 1046 q 319 1092 279 1092 z "},"Ä":{"ha":822,"x_min":42,"x_max":782,"o":"m 594 225 l 222 225 q 201 165 213 197 q 180 101 190 132 q 160 42 169 69 q 144 -3 150 15 q 99 -11 125 -11 q 59 1 76 -11 q 42 39 42 13 q 46 65 42 51 q 56 93 50 78 q 109 243 76 151 q 180 438 142 335 q 258 647 218 542 q 331 835 297 751 q 364 846 342 840 q 410 851 386 851 q 463 843 438 851 q 496 815 489 835 q 567 631 529 735 q 644 419 606 528 q 719 206 683 311 q 782 17 754 101 q 756 -3 771 4 q 721 -11 740 -11 q 681 1 694 -11 q 657 40 667 13 l 594 225 m 408 757 q 374 662 393 715 q 333 550 354 608 q 292 432 313 492 q 253 318 271 372 l 565 318 q 522 444 544 381 q 480 565 500 507 q 442 673 460 624 q 414 757 425 722 l 408 757 m 360 1025 q 340 978 360 997 q 290 958 321 958 q 242 978 261 958 q 224 1025 224 997 q 242 1072 224 1053 q 290 1092 261 1092 q 340 1072 321 1092 q 360 1025 360 1053 m 600 1025 q 580 978 600 997 q 531 958 560 958 q 483 978 503 958 q 463 1025 463 997 q 483 1072 463 1053 q 531 1092 503 1092 q 580 1072 560 1092 q 600 1025 600 1053 z "},"Å":{"ha":822,"x_min":42,"x_max":782,"o":"m 594 225 l 222 225 q 201 165 213 197 q 180 101 190 132 q 160 42 169 69 q 144 -3 150 15 q 99 -11 125 -11 q 59 1 76 -11 q 42 39 42 13 q 46 65 42 51 q 56 93 50 78 q 109 243 76 151 q 180 438 142 335 q 258 647 218 542 q 331 835 297 751 q 364 846 342 840 q 410 851 386 851 q 463 843 438 851 q 496 815 489 835 q 567 631 529 735 q 644 419 606 528 q 719 206 683 311 q 782 17 754 101 q 756 -3 771 4 q 721 -11 740 -11 q 681 1 694 -11 q 657 40 667 13 l 594 225 m 408 757 q 374 662 393 715 q 333 550 354 608 q 292 432 313 492 q 253 318 271 372 l 565 318 q 522 444 544 381 q 480 565 500 507 q 442 673 460 624 q 414 757 425 722 l 408 757 m 265 1033 q 304 1124 265 1088 q 413 1160 343 1160 q 522 1124 483 1160 q 560 1033 560 1088 q 522 944 560 981 q 413 908 483 908 q 304 944 343 908 q 265 1033 265 981 m 349 1033 q 367 992 349 1007 q 413 976 385 976 q 459 992 440 976 q 478 1033 478 1007 q 459 1076 478 1061 q 413 1092 440 1092 q 367 1076 385 1092 q 349 1033 349 1061 z "},"Æ":{"ha":1172,"x_min":54,"x_max":1101,"o":"m 551 851 q 592 846 572 851 q 622 831 611 840 q 671 844 640 844 l 1081 844 q 1090 826 1086 838 q 1094 800 1094 814 q 1083 763 1094 776 q 1051 749 1071 749 l 672 749 l 672 481 l 1038 481 q 1047 462 1043 474 q 1051 436 1051 450 q 1040 399 1051 413 q 1008 386 1028 386 l 672 386 l 672 94 l 1088 94 q 1097 76 1092 88 q 1101 50 1101 65 q 1090 13 1101 26 q 1058 0 1078 0 l 619 0 q 577 17 593 0 q 561 61 561 33 l 561 225 l 269 225 l 150 -4 q 133 -9 140 -7 q 110 -11 125 -11 q 54 33 54 -11 q 60 60 54 46 q 75 93 65 75 q 113 164 88 117 q 172 273 138 211 q 244 408 206 335 q 324 555 283 481 q 406 701 365 629 q 481 835 446 774 q 510 847 492 842 q 551 851 528 851 m 319 318 l 561 318 l 561 751 l 553 751 l 319 318 z "},"Ç":{"ha":817,"x_min":75,"x_max":749,"o":"m 740 751 q 728 718 740 732 q 701 697 717 704 q 617 744 665 722 q 490 767 568 767 q 372 744 426 767 q 278 679 318 722 q 215 571 238 636 q 192 421 192 506 q 214 271 192 335 q 276 164 236 207 q 371 99 315 121 q 494 78 426 78 q 620 98 567 78 q 710 146 674 118 q 736 126 724 140 q 749 92 749 111 q 715 39 749 63 q 644 5 688 19 q 538 -15 601 -10 q 568 -118 568 -58 q 526 -224 568 -185 q 418 -262 485 -262 q 346 -212 346 -262 q 354 -179 346 -194 l 375 -179 q 448 -158 425 -179 q 471 -100 471 -136 q 464 -58 471 -81 q 442 -15 457 -36 q 296 21 363 -10 q 180 106 229 51 q 103 240 131 161 q 75 421 75 318 q 108 613 75 531 q 196 751 140 696 q 326 835 251 807 q 482 863 400 863 q 587 853 539 863 q 669 827 635 843 q 722 791 703 811 q 740 751 740 771 z "},"È":{"ha":753,"x_min":140,"x_max":682,"o":"m 201 0 q 157 17 174 0 q 140 61 140 33 l 140 783 q 157 828 140 811 q 201 844 174 844 l 663 844 q 671 826 667 838 q 675 800 675 814 q 664 763 675 776 q 632 749 653 749 l 253 749 l 253 481 l 619 481 q 628 462 624 474 q 632 436 632 450 q 621 399 632 413 q 589 386 610 386 l 253 386 l 253 94 l 669 94 q 678 76 674 88 q 682 50 682 65 q 671 13 682 26 q 639 0 660 0 l 201 0 m 265 1067 q 264 1083 264 1074 q 277 1120 264 1106 q 311 1135 290 1135 q 361 1110 342 1135 l 478 969 q 465 935 476 947 q 433 922 453 922 q 408 928 418 922 q 388 944 399 933 l 265 1067 z "},"É":{"ha":753,"x_min":140,"x_max":682,"o":"m 201 0 q 157 17 174 0 q 140 61 140 33 l 140 783 q 157 828 140 811 q 201 844 174 844 l 663 844 q 671 826 667 838 q 675 800 675 814 q 664 763 675 776 q 632 749 653 749 l 253 749 l 253 481 l 619 481 q 628 462 624 474 q 632 436 632 450 q 621 399 632 413 q 589 386 610 386 l 253 386 l 253 94 l 669 94 q 678 76 674 88 q 682 50 682 65 q 671 13 682 26 q 639 0 660 0 l 201 0 m 514 1139 q 560 1123 544 1138 q 576 1089 576 1108 q 569 1057 576 1069 q 542 1028 561 1044 l 424 922 q 383 936 397 925 q 368 964 368 947 q 374 988 368 978 q 388 1006 379 997 l 514 1139 z "},"Ê":{"ha":753,"x_min":140,"x_max":682,"o":"m 201 0 q 157 17 174 0 q 140 61 140 33 l 140 783 q 157 828 140 811 q 201 844 174 844 l 663 844 q 671 826 667 838 q 675 800 675 814 q 664 763 675 776 q 632 749 653 749 l 253 749 l 253 481 l 619 481 q 628 462 624 474 q 632 436 632 450 q 621 399 632 413 q 589 386 610 386 l 253 386 l 253 94 l 669 94 q 678 76 674 88 q 682 50 682 65 q 671 13 682 26 q 639 0 660 0 l 201 0 m 411 1043 q 356 985 388 1019 q 283 915 324 951 q 244 930 260 918 q 229 961 229 942 q 240 990 229 976 q 265 1018 250 1003 l 347 1100 q 413 1131 378 1131 q 450 1122 435 1131 q 482 1094 465 1113 l 596 965 q 583 931 596 944 q 549 918 569 918 q 519 926 533 918 q 486 957 506 935 l 411 1043 z "},"Ë":{"ha":753,"x_min":140,"x_max":682,"o":"m 201 0 q 157 17 174 0 q 140 61 140 33 l 140 783 q 157 828 140 811 q 201 844 174 844 l 663 844 q 671 826 667 838 q 675 800 675 814 q 664 763 675 776 q 632 749 653 749 l 253 749 l 253 481 l 619 481 q 628 462 624 474 q 632 436 632 450 q 621 399 632 413 q 589 386 610 386 l 253 386 l 253 94 l 669 94 q 678 76 674 88 q 682 50 682 65 q 671 13 682 26 q 639 0 660 0 l 201 0 m 367 1013 q 347 965 367 985 q 297 946 328 946 q 249 965 268 946 q 231 1013 231 985 q 249 1060 231 1040 q 297 1079 268 1079 q 347 1060 328 1079 q 367 1013 367 1040 m 607 1013 q 587 965 607 985 q 538 946 567 946 q 490 965 510 946 q 469 1013 469 985 q 490 1060 469 1040 q 538 1079 510 1079 q 587 1060 567 1079 q 607 1013 607 1040 z "},"Ì":{"ha":364,"x_min":4,"x_max":238,"o":"m 238 3 q 217 -3 231 0 q 186 -7 203 -7 q 125 44 125 -7 l 125 842 q 147 848 132 844 q 178 851 161 851 q 238 800 238 851 l 238 3 m 6 1067 q 4 1083 4 1074 q 17 1120 4 1106 q 51 1135 31 1135 q 101 1110 82 1135 l 218 969 q 205 935 217 947 q 174 922 193 922 q 149 928 158 922 q 128 944 139 933 l 6 1067 z "},"Í":{"ha":364,"x_min":125,"x_max":346,"o":"m 238 3 q 217 -3 231 0 q 186 -7 203 -7 q 125 44 125 -7 l 125 842 q 147 848 132 844 q 178 851 161 851 q 238 800 238 851 l 238 3 m 283 1139 q 330 1123 314 1138 q 346 1089 346 1108 q 338 1057 346 1069 q 311 1028 331 1044 l 193 922 q 152 936 167 925 q 138 964 138 947 q 143 988 138 978 q 157 1006 149 997 l 283 1139 z "},"Î":{"ha":364,"x_min":1,"x_max":368,"o":"m 238 3 q 217 -3 231 0 q 186 -7 203 -7 q 125 44 125 -7 l 125 842 q 147 848 132 844 q 178 851 161 851 q 238 800 238 851 l 238 3 m 183 1043 q 128 985 160 1019 q 56 915 96 951 q 17 930 32 918 q 1 961 1 942 q 12 990 1 976 q 38 1018 22 1003 l 119 1100 q 185 1131 150 1131 q 222 1122 207 1131 q 254 1094 238 1113 l 368 965 q 355 931 368 944 q 321 918 342 918 q 292 926 306 918 q 258 957 278 935 l 183 1043 z "},"Ï":{"ha":364,"x_min":-6,"x_max":371,"o":"m 238 3 q 217 -3 231 0 q 186 -7 203 -7 q 125 44 125 -7 l 125 842 q 147 848 132 844 q 178 851 161 851 q 238 800 238 851 l 238 3 m 131 1013 q 111 965 131 985 q 61 946 92 946 q 13 965 32 946 q -6 1013 -6 985 q 13 1060 -6 1040 q 61 1079 32 1079 q 111 1060 92 1079 q 131 1013 131 1040 m 371 1013 q 351 965 371 985 q 301 946 331 946 q 253 965 274 946 q 233 1013 233 985 q 253 1060 233 1040 q 301 1079 274 1079 q 351 1060 331 1079 q 371 1013 371 1040 z "},"Ð":{"ha":947,"x_min":14,"x_max":871,"o":"m 871 432 q 840 234 871 318 q 751 94 808 150 q 611 12 693 39 q 428 -15 529 -15 q 328 -12 383 -15 q 222 7 272 -8 q 164 71 164 25 l 164 375 l 28 375 q 18 394 22 382 q 14 419 14 406 q 26 456 14 443 q 57 469 38 469 l 164 469 l 164 785 q 175 819 164 807 q 210 838 186 831 q 307 856 253 851 q 415 860 361 860 q 601 833 517 860 q 744 752 685 806 q 838 619 804 699 q 871 432 871 539 m 756 432 q 728 584 756 521 q 655 688 701 647 q 547 747 608 728 q 414 765 485 765 q 337 763 369 765 q 276 754 304 760 l 276 469 l 490 469 q 499 451 494 463 q 503 425 503 440 q 491 388 503 401 q 460 375 479 375 l 276 375 l 276 93 q 348 82 310 85 q 426 79 386 79 q 673 168 590 79 q 756 432 756 257 z "},"Ñ":{"ha":917,"x_min":124,"x_max":793,"o":"m 185 -7 q 124 43 124 -7 l 124 828 q 199 853 149 853 q 256 840 232 853 q 299 792 279 826 l 564 347 q 599 285 581 318 q 633 220 617 253 q 665 159 650 188 q 689 111 679 131 l 694 113 q 681 339 683 225 q 679 561 679 453 l 679 842 q 701 848 688 844 q 732 851 715 851 q 793 801 793 851 l 793 15 q 761 -2 781 4 q 718 -8 742 -8 q 661 5 685 -8 q 618 53 638 18 l 354 497 q 319 558 338 525 q 283 624 300 592 q 251 685 265 656 q 226 733 236 714 l 221 732 q 232 580 228 665 q 236 418 236 494 l 236 3 q 215 -3 229 0 q 185 -7 200 -7 m 347 1092 q 401 1084 376 1092 q 448 1068 426 1076 q 489 1052 469 1060 q 526 1044 508 1044 q 563 1059 551 1044 q 581 1097 575 1074 l 589 1097 q 633 1085 614 1097 q 653 1044 653 1074 q 625 981 653 1004 q 551 958 597 958 q 496 966 522 958 q 447 983 469 974 q 404 999 424 992 q 368 1007 385 1007 q 332 992 343 1007 q 315 953 321 976 l 307 953 q 263 965 282 953 q 243 1006 243 978 q 275 1069 243 1046 q 347 1092 307 1092 z "},"Ò":{"ha":957,"x_min":75,"x_max":881,"o":"m 881 422 q 850 231 881 314 q 765 94 819 149 q 638 10 711 39 q 478 -18 564 -18 q 318 10 392 -18 q 190 94 244 39 q 106 231 136 149 q 75 422 75 314 q 106 613 75 531 q 192 750 138 694 q 319 834 246 806 q 478 863 393 863 q 636 834 563 863 q 764 750 710 806 q 849 613 818 694 q 881 422 881 531 m 765 422 q 687 678 765 589 q 478 767 608 767 q 360 744 413 767 q 269 677 307 721 q 212 569 232 633 q 192 422 192 506 q 269 167 192 256 q 478 78 347 78 q 688 167 610 78 q 765 422 765 256 m 310 1067 q 308 1083 308 1074 q 322 1120 308 1106 q 356 1135 335 1135 q 406 1110 386 1135 l 522 969 q 509 935 521 947 q 478 922 497 922 q 453 928 463 922 q 432 944 443 933 l 310 1067 z "},"Ó":{"ha":957,"x_min":75,"x_max":881,"o":"m 881 422 q 850 231 881 314 q 765 94 819 149 q 638 10 711 39 q 478 -18 564 -18 q 318 10 392 -18 q 190 94 244 39 q 106 231 136 149 q 75 422 75 314 q 106 613 75 531 q 192 750 138 694 q 319 834 246 806 q 478 863 393 863 q 636 834 563 863 q 764 750 710 806 q 849 613 818 694 q 881 422 881 531 m 765 422 q 687 678 765 589 q 478 767 608 767 q 360 744 413 767 q 269 677 307 721 q 212 569 232 633 q 192 422 192 506 q 269 167 192 256 q 478 78 347 78 q 688 167 610 78 q 765 422 765 256 m 586 1139 q 633 1123 617 1138 q 649 1089 649 1108 q 641 1057 649 1069 q 614 1028 633 1044 l 496 922 q 455 936 469 925 q 440 964 440 947 q 446 988 440 978 q 460 1006 451 997 l 586 1139 z "},"Ô":{"ha":957,"x_min":75,"x_max":881,"o":"m 881 422 q 850 231 881 314 q 765 94 819 149 q 638 10 711 39 q 478 -18 564 -18 q 318 10 392 -18 q 190 94 244 39 q 106 231 136 149 q 75 422 75 314 q 106 613 75 531 q 192 750 138 694 q 319 834 246 806 q 478 863 393 863 q 636 834 563 863 q 764 750 710 806 q 849 613 818 694 q 881 422 881 531 m 765 422 q 687 678 765 589 q 478 767 608 767 q 360 744 413 767 q 269 677 307 721 q 212 569 232 633 q 192 422 192 506 q 269 167 192 256 q 478 78 347 78 q 688 167 610 78 q 765 422 765 256 m 476 1043 q 421 985 453 1019 q 349 915 389 951 q 310 930 325 918 q 294 961 294 942 q 305 990 294 976 q 331 1018 315 1003 l 413 1100 q 478 1131 443 1131 q 515 1122 500 1131 q 547 1094 531 1113 l 661 965 q 648 931 661 944 q 614 918 635 918 q 585 926 599 918 q 551 957 571 935 l 476 1043 z "},"Õ":{"ha":957,"x_min":75,"x_max":881,"o":"m 881 422 q 850 231 881 314 q 765 94 819 149 q 638 10 711 39 q 478 -18 564 -18 q 318 10 392 -18 q 190 94 244 39 q 106 231 136 149 q 75 422 75 314 q 106 613 75 531 q 192 750 138 694 q 319 834 246 806 q 478 863 393 863 q 636 834 563 863 q 764 750 710 806 q 849 613 818 694 q 881 422 881 531 m 765 422 q 687 678 765 589 q 478 767 608 767 q 360 744 413 767 q 269 677 307 721 q 212 569 232 633 q 192 422 192 506 q 269 167 192 256 q 478 78 347 78 q 688 167 610 78 q 765 422 765 256 m 378 1092 q 432 1084 407 1092 q 478 1068 457 1076 q 519 1052 500 1060 q 557 1044 539 1044 q 594 1059 582 1044 q 611 1097 606 1074 l 619 1097 q 664 1085 644 1097 q 683 1044 683 1074 q 656 981 683 1004 q 582 958 628 958 q 526 966 553 958 q 477 983 500 974 q 435 999 454 992 q 399 1007 415 1007 q 363 992 374 1007 q 346 953 351 976 l 338 953 q 293 965 313 953 q 274 1006 274 978 q 306 1069 274 1046 q 378 1092 338 1092 z "},"Ö":{"ha":957,"x_min":75,"x_max":881,"o":"m 881 422 q 850 231 881 314 q 765 94 819 149 q 638 10 711 39 q 478 -18 564 -18 q 318 10 392 -18 q 190 94 244 39 q 106 231 136 149 q 75 422 75 314 q 106 613 75 531 q 192 750 138 694 q 319 834 246 806 q 478 863 393 863 q 636 834 563 863 q 764 750 710 806 q 849 613 818 694 q 881 422 881 531 m 765 422 q 687 678 765 589 q 478 767 608 767 q 360 744 413 767 q 269 677 307 721 q 212 569 232 633 q 192 422 192 506 q 269 167 192 256 q 478 78 347 78 q 688 167 610 78 q 765 422 765 256 m 425 1013 q 406 965 425 985 q 356 946 386 946 q 308 965 326 946 q 289 1013 289 985 q 308 1060 289 1040 q 356 1079 326 1079 q 406 1060 386 1079 q 425 1013 425 1040 m 665 1013 q 645 965 665 985 q 596 946 625 946 q 548 965 568 946 q 528 1013 528 985 q 548 1060 528 1040 q 596 1079 568 1079 q 645 1060 625 1079 q 665 1013 665 1040 z "},"×":{"ha":688,"x_min":83,"x_max":606,"o":"m 414 401 l 606 196 q 585 163 599 178 q 549 147 571 147 q 525 153 536 147 q 507 168 514 160 l 346 347 l 140 142 q 103 162 122 149 q 83 196 83 175 q 92 219 83 208 q 111 242 100 231 l 282 408 l 86 617 q 106 651 92 635 q 140 668 119 668 q 165 660 154 668 q 183 644 176 653 l 350 463 l 543 665 q 576 647 560 660 q 593 611 593 633 q 586 588 593 599 q 569 567 579 576 l 414 401 z "},"Ø":{"ha":957,"x_min":68,"x_max":881,"o":"m 881 422 q 850 231 881 314 q 765 94 819 149 q 638 10 711 39 q 478 -18 564 -18 q 218 69 325 -18 l 133 -22 q 83 2 97 -15 q 68 35 68 19 q 77 66 68 53 q 104 97 86 79 l 150 144 q 94 267 114 197 q 75 422 75 338 q 106 613 75 531 q 192 750 138 694 q 319 834 246 806 q 478 863 393 863 q 612 842 549 863 q 726 781 675 821 l 807 869 q 853 849 835 863 q 872 815 872 835 q 865 789 872 803 q 838 751 857 775 l 797 707 q 858 581 836 653 q 881 422 881 510 m 767 422 q 755 534 767 483 q 721 625 743 585 l 290 147 q 374 96 326 114 q 478 78 421 78 q 688 167 610 78 q 767 422 767 256 m 190 422 q 231 228 190 308 l 657 704 q 478 767 583 767 q 360 744 413 767 q 269 677 307 721 q 211 569 232 633 q 190 422 190 506 z "},"Ù":{"ha":901,"x_min":122,"x_max":779,"o":"m 779 292 q 758 164 779 221 q 694 67 736 107 q 590 4 651 26 q 450 -18 529 -18 q 310 4 371 -18 q 207 67 249 26 q 144 164 165 107 q 122 292 122 221 l 122 842 q 144 848 129 844 q 175 851 158 851 q 235 800 235 851 l 235 301 q 251 204 235 246 q 297 134 268 163 q 365 92 325 106 q 450 78 404 78 q 535 92 496 78 q 603 134 575 106 q 649 204 632 163 q 665 301 665 246 l 665 842 q 687 848 672 844 q 718 851 701 851 q 779 800 779 851 l 779 292 m 275 1067 q 274 1083 274 1074 q 287 1120 274 1106 q 321 1135 300 1135 q 371 1110 351 1135 l 488 969 q 474 935 486 947 q 443 922 463 922 q 418 928 428 922 q 397 944 408 933 l 275 1067 z "},"Ú":{"ha":901,"x_min":122,"x_max":779,"o":"m 779 292 q 758 164 779 221 q 694 67 736 107 q 590 4 651 26 q 450 -18 529 -18 q 310 4 371 -18 q 207 67 249 26 q 144 164 165 107 q 122 292 122 221 l 122 842 q 144 848 129 844 q 175 851 158 851 q 235 800 235 851 l 235 301 q 251 204 235 246 q 297 134 268 163 q 365 92 325 106 q 450 78 404 78 q 535 92 496 78 q 603 134 575 106 q 649 204 632 163 q 665 301 665 246 l 665 842 q 687 848 672 844 q 718 851 701 851 q 779 800 779 851 l 779 292 m 557 1139 q 603 1123 588 1138 q 619 1089 619 1108 q 612 1057 619 1069 q 585 1028 604 1044 l 467 922 q 426 936 440 925 q 411 964 411 947 q 417 988 411 978 q 431 1006 422 997 l 557 1139 z "},"Û":{"ha":901,"x_min":122,"x_max":779,"o":"m 779 292 q 758 164 779 221 q 694 67 736 107 q 590 4 651 26 q 450 -18 529 -18 q 310 4 371 -18 q 207 67 249 26 q 144 164 165 107 q 122 292 122 221 l 122 842 q 144 848 129 844 q 175 851 158 851 q 235 800 235 851 l 235 301 q 251 204 235 246 q 297 134 268 163 q 365 92 325 106 q 450 78 404 78 q 535 92 496 78 q 603 134 575 106 q 649 204 632 163 q 665 301 665 246 l 665 842 q 687 848 672 844 q 718 851 701 851 q 779 800 779 851 l 779 292 m 457 1043 q 401 985 433 1019 q 329 915 369 951 q 290 930 306 918 q 275 961 275 942 q 285 990 275 976 q 311 1018 296 1003 l 393 1100 q 458 1131 424 1131 q 496 1122 481 1131 q 528 1094 511 1113 l 642 965 q 628 931 642 944 q 594 918 615 918 q 565 926 579 918 q 532 957 551 935 l 457 1043 z "},"Ü":{"ha":901,"x_min":122,"x_max":779,"o":"m 779 292 q 758 164 779 221 q 694 67 736 107 q 590 4 651 26 q 450 -18 529 -18 q 310 4 371 -18 q 207 67 249 26 q 144 164 165 107 q 122 292 122 221 l 122 842 q 144 848 129 844 q 175 851 158 851 q 235 800 235 851 l 235 301 q 251 204 235 246 q 297 134 268 163 q 365 92 325 106 q 450 78 404 78 q 535 92 496 78 q 603 134 575 106 q 649 204 632 163 q 665 301 665 246 l 665 842 q 687 848 672 844 q 718 851 701 851 q 779 800 779 851 l 779 292 m 397 1013 q 378 965 397 985 q 328 946 358 946 q 280 965 299 946 q 261 1013 261 985 q 280 1060 261 1040 q 328 1079 299 1079 q 378 1060 358 1079 q 397 1013 397 1040 m 638 1013 q 617 965 638 985 q 568 946 597 946 q 520 965 540 946 q 500 1013 500 985 q 520 1060 500 1040 q 568 1079 540 1079 q 617 1060 597 1079 q 638 1013 638 1040 z "},"Ý":{"ha":764,"x_min":29,"x_max":726,"o":"m 726 806 q 706 747 726 790 q 647 638 685 703 q 558 489 610 572 q 443 313 506 406 l 443 3 q 422 -3 436 0 q 392 -7 407 -7 q 331 44 331 -7 l 331 313 q 251 433 292 369 q 169 563 210 497 q 93 690 129 628 q 29 808 57 753 q 50 838 35 824 q 90 853 65 853 q 131 839 117 853 q 161 797 146 825 q 213 706 183 758 q 274 599 243 653 q 335 494 306 544 q 385 410 364 443 l 390 410 q 519 635 463 531 q 631 843 575 739 q 651 851 639 849 q 674 853 663 853 q 726 806 726 853 m 479 1139 q 526 1123 510 1138 q 542 1089 542 1108 q 534 1057 542 1069 q 507 1028 526 1044 l 389 922 q 348 936 363 925 q 333 964 333 947 q 339 988 333 978 q 353 1006 344 997 l 479 1139 z "},"Þ":{"ha":799,"x_min":124,"x_max":725,"o":"m 124 843 q 145 849 131 846 q 175 851 160 851 q 236 801 236 851 l 236 690 l 414 690 q 648 619 571 690 q 725 424 725 547 q 706 315 725 364 q 647 231 686 265 q 550 176 608 196 q 414 157 492 157 l 236 157 l 236 1 q 215 -4 229 -1 q 186 -7 201 -7 q 124 43 124 -7 l 124 843 m 236 253 l 388 253 q 553 294 493 253 q 613 424 613 336 q 553 553 613 511 q 388 594 493 594 l 236 594 l 236 253 z "},"ß":{"ha":801,"x_min":111,"x_max":743,"o":"m 222 -3 q 202 -8 215 -6 q 174 -11 189 -11 q 111 40 111 -11 l 111 660 q 132 776 111 725 q 190 860 153 826 q 276 913 226 894 q 385 931 326 931 q 494 913 443 931 q 582 860 544 896 q 641 769 619 824 q 663 643 663 715 q 614 576 663 596 l 553 553 q 502 518 517 535 q 488 472 488 501 q 504 424 488 444 q 565 376 521 404 q 642 329 608 351 q 697 283 675 307 q 731 229 719 258 q 743 161 743 200 q 679 22 743 68 q 514 -24 615 -24 q 388 1 433 -24 q 343 63 343 26 q 351 96 343 79 q 379 119 360 113 q 439 85 406 99 q 518 71 472 71 q 599 97 568 71 q 631 163 631 122 q 626 197 631 181 q 608 227 621 213 q 572 257 594 242 q 514 292 549 272 q 409 369 444 328 q 374 474 374 411 q 403 569 374 532 q 492 631 433 606 l 551 656 q 539 728 551 694 q 505 785 526 761 q 452 822 483 808 q 383 836 421 836 q 322 826 351 836 q 271 795 293 817 q 235 740 249 774 q 222 658 222 706 l 222 -3 z "},"à":{"ha":693,"x_min":60,"x_max":594,"o":"m 333 72 q 430 84 392 72 q 485 107 468 96 l 485 308 l 313 290 q 206 258 240 283 q 171 182 171 232 q 211 101 171 129 q 333 72 251 72 m 332 660 q 524 606 453 660 q 594 435 594 551 l 594 106 q 583 59 594 75 q 547 29 571 43 q 459 -5 514 10 q 333 -19 404 -19 q 131 32 203 -19 q 60 181 60 83 q 119 319 60 272 q 288 376 179 365 l 485 396 l 485 435 q 443 536 485 504 q 331 568 401 568 q 221 551 272 568 q 129 514 169 535 q 109 536 118 524 q 100 564 100 549 q 110 596 100 583 q 140 619 119 608 q 226 649 178 639 q 332 660 275 660 m 164 881 q 161 899 161 894 q 176 935 161 921 q 214 949 190 949 q 263 925 243 949 l 388 768 q 374 733 386 746 q 342 719 361 719 q 316 725 326 719 q 294 742 306 731 l 164 881 z "},"á":{"ha":693,"x_min":60,"x_max":594,"o":"m 333 72 q 430 84 392 72 q 485 107 468 96 l 485 308 l 313 290 q 206 258 240 283 q 171 182 171 232 q 211 101 171 129 q 333 72 251 72 m 332 660 q 524 606 453 660 q 594 435 594 551 l 594 106 q 583 59 594 75 q 547 29 571 43 q 459 -5 514 10 q 333 -19 404 -19 q 131 32 203 -19 q 60 181 60 83 q 119 319 60 272 q 288 376 179 365 l 485 396 l 485 435 q 443 536 485 504 q 331 568 401 568 q 221 551 272 568 q 129 514 169 535 q 109 536 118 524 q 100 564 100 549 q 110 596 100 583 q 140 619 119 608 q 226 649 178 639 q 332 660 275 660 m 438 954 q 487 937 468 953 q 506 901 506 921 q 497 870 506 882 q 469 840 489 858 l 343 717 q 299 731 315 717 q 282 764 282 746 q 289 785 282 775 q 303 803 296 794 l 438 954 z "},"â":{"ha":693,"x_min":60,"x_max":594,"o":"m 333 72 q 430 84 392 72 q 485 107 468 96 l 485 308 l 313 290 q 206 258 240 283 q 171 182 171 232 q 211 101 171 129 q 333 72 251 72 m 332 660 q 524 606 453 660 q 594 435 594 551 l 594 106 q 583 59 594 75 q 547 29 571 43 q 459 -5 514 10 q 333 -19 404 -19 q 131 32 203 -19 q 60 181 60 83 q 119 319 60 272 q 288 376 179 365 l 485 396 l 485 435 q 443 536 485 504 q 331 568 401 568 q 221 551 272 568 q 129 514 169 535 q 109 536 118 524 q 100 564 100 549 q 110 596 100 583 q 140 619 119 608 q 226 649 178 639 q 332 660 275 660 m 338 858 q 274 787 306 819 q 215 722 243 754 q 174 737 190 725 q 157 768 157 749 q 165 794 157 783 q 188 821 174 806 l 272 913 q 304 936 290 928 q 338 944 318 944 q 374 936 360 944 q 403 911 388 928 l 519 772 q 509 739 519 753 q 476 725 499 725 q 449 733 460 725 q 428 751 439 740 l 338 858 z "},"ã":{"ha":693,"x_min":60,"x_max":594,"o":"m 333 72 q 430 84 392 72 q 485 107 468 96 l 485 308 l 313 290 q 206 258 240 283 q 171 182 171 232 q 211 101 171 129 q 333 72 251 72 m 332 660 q 524 606 453 660 q 594 435 594 551 l 594 106 q 583 59 594 75 q 547 29 571 43 q 459 -5 514 10 q 333 -19 404 -19 q 131 32 203 -19 q 60 181 60 83 q 119 319 60 272 q 288 376 179 365 l 485 396 l 485 435 q 443 536 485 504 q 331 568 401 568 q 221 551 272 568 q 129 514 169 535 q 109 536 118 524 q 100 564 100 549 q 110 596 100 583 q 140 619 119 608 q 226 649 178 639 q 332 660 275 660 m 232 904 q 286 897 261 904 q 333 881 311 889 q 374 865 354 872 q 411 857 393 857 q 448 872 436 857 q 465 910 460 886 l 474 910 q 518 898 499 910 q 538 857 538 886 q 510 794 538 817 q 436 771 482 771 q 381 778 407 771 q 331 795 354 786 q 289 812 308 804 q 253 819 269 819 q 217 804 228 819 q 200 765 206 789 l 192 765 q 147 778 167 765 q 128 818 128 790 q 160 881 128 858 q 232 904 192 904 z "},"ä":{"ha":693,"x_min":60,"x_max":594,"o":"m 333 72 q 430 84 392 72 q 485 107 468 96 l 485 308 l 313 290 q 206 258 240 283 q 171 182 171 232 q 211 101 171 129 q 333 72 251 72 m 332 660 q 524 606 453 660 q 594 435 594 551 l 594 106 q 583 59 594 75 q 547 29 571 43 q 459 -5 514 10 q 333 -19 404 -19 q 131 32 203 -19 q 60 181 60 83 q 119 319 60 272 q 288 376 179 365 l 485 396 l 485 435 q 443 536 485 504 q 331 568 401 568 q 221 551 272 568 q 129 514 169 535 q 109 536 118 524 q 100 564 100 549 q 110 596 100 583 q 140 619 119 608 q 226 649 178 639 q 332 660 275 660 m 293 835 q 274 788 293 807 q 224 768 254 768 q 176 788 194 768 q 157 835 157 807 q 176 882 157 863 q 224 901 194 901 q 274 882 254 901 q 293 835 293 863 m 533 835 q 513 788 533 807 q 464 768 493 768 q 416 788 436 768 q 396 835 396 807 q 416 882 396 863 q 464 901 436 901 q 513 882 493 901 q 533 835 533 863 z "},"å":{"ha":693,"x_min":60,"x_max":594,"o":"m 333 72 q 430 84 392 72 q 485 107 468 96 l 485 308 l 313 290 q 206 258 240 283 q 171 182 171 232 q 211 101 171 129 q 333 72 251 72 m 332 660 q 524 606 453 660 q 594 435 594 551 l 594 106 q 583 59 594 75 q 547 29 571 43 q 459 -5 514 10 q 333 -19 404 -19 q 131 32 203 -19 q 60 181 60 83 q 119 319 60 272 q 288 376 179 365 l 485 396 l 485 435 q 443 536 485 504 q 331 568 401 568 q 221 551 272 568 q 129 514 169 535 q 109 536 118 524 q 100 564 100 549 q 110 596 100 583 q 140 619 119 608 q 226 649 178 639 q 332 660 275 660 m 204 850 q 242 942 204 904 q 349 979 279 979 q 456 942 418 979 q 493 850 493 904 q 456 758 493 796 q 349 721 418 721 q 242 758 279 721 q 204 850 204 796 m 285 850 q 303 803 285 819 q 349 786 321 786 q 395 803 376 786 q 414 850 414 819 q 395 897 414 881 q 349 914 376 914 q 303 897 321 914 q 285 850 285 881 z "},"æ":{"ha":1126,"x_min":60,"x_max":1069,"o":"m 332 660 q 471 631 415 660 q 553 543 526 603 q 649 630 590 600 q 782 660 707 660 q 897 639 844 660 q 988 580 950 618 q 1048 490 1026 542 q 1069 375 1069 438 q 1056 331 1069 344 q 1017 315 1042 318 l 588 256 q 667 119 607 165 q 826 74 728 74 q 932 93 885 74 q 1008 135 979 113 q 1042 82 1042 115 q 1024 44 1042 63 q 977 13 1007 26 q 908 -10 947 -1 q 822 -18 868 -18 q 675 8 738 -18 q 572 83 613 35 q 555 42 569 58 q 521 17 540 26 q 447 -9 490 1 q 333 -19 404 -19 q 131 32 203 -19 q 60 181 60 83 q 119 319 60 272 q 288 376 179 365 l 485 396 l 485 435 q 443 536 485 504 q 331 568 401 568 q 221 551 272 568 q 129 514 169 535 q 109 536 118 524 q 100 564 100 549 q 110 596 100 583 q 140 619 119 608 q 226 649 178 639 q 332 660 275 660 m 333 72 q 430 84 392 72 q 485 107 468 96 l 485 308 l 313 290 q 206 258 240 283 q 171 182 171 232 q 211 101 171 129 q 333 72 251 72 m 781 569 q 640 510 694 569 q 582 343 585 451 l 964 394 q 910 520 957 471 q 781 569 864 569 z "},"ç":{"ha":664,"x_min":68,"x_max":603,"o":"m 401 567 q 314 551 354 567 q 244 503 274 535 q 199 426 215 472 q 182 319 182 379 q 242 137 182 200 q 401 74 301 74 q 499 90 460 74 q 568 126 538 106 q 593 106 583 118 q 603 75 603 93 q 563 19 603 43 q 457 -14 522 -6 q 489 -118 489 -58 q 447 -224 489 -185 q 339 -262 406 -262 q 267 -212 267 -262 q 275 -179 267 -194 l 296 -179 q 369 -158 346 -179 q 392 -100 392 -136 q 385 -59 392 -81 q 364 -17 379 -37 q 244 12 299 -11 q 151 76 190 35 q 90 178 113 118 q 68 319 68 239 q 94 467 68 404 q 165 574 121 531 q 270 638 210 617 q 399 660 331 660 q 478 652 442 660 q 542 631 515 644 q 583 599 568 617 q 597 564 597 582 q 588 535 597 547 q 563 515 578 522 q 496 551 532 536 q 401 567 460 567 z "},"è":{"ha":721,"x_min":68,"x_max":664,"o":"m 183 256 q 422 74 221 74 q 528 93 481 74 q 603 135 575 113 q 636 82 636 115 q 619 44 636 63 q 572 13 601 26 q 502 -10 542 -1 q 417 -18 463 -18 q 162 69 256 -18 q 68 325 68 157 q 91 466 68 404 q 155 571 114 528 q 253 637 196 614 q 376 660 310 660 q 492 639 439 660 q 583 580 544 618 q 642 490 621 542 q 664 375 664 438 q 650 331 664 344 q 611 315 636 318 l 183 256 m 375 569 q 235 510 290 569 q 176 342 179 451 l 558 394 q 505 520 551 471 q 375 569 458 569 m 196 881 q 193 899 193 894 q 208 935 193 921 q 246 949 222 949 q 294 925 275 949 l 419 768 q 406 733 418 746 q 374 719 393 719 q 348 725 358 719 q 326 742 338 731 l 196 881 z "},"é":{"ha":721,"x_min":68,"x_max":664,"o":"m 183 256 q 422 74 221 74 q 528 93 481 74 q 603 135 575 113 q 636 82 636 115 q 619 44 636 63 q 572 13 601 26 q 502 -10 542 -1 q 417 -18 463 -18 q 162 69 256 -18 q 68 325 68 157 q 91 466 68 404 q 155 571 114 528 q 253 637 196 614 q 376 660 310 660 q 492 639 439 660 q 583 580 544 618 q 642 490 621 542 q 664 375 664 438 q 650 331 664 344 q 611 315 636 318 l 183 256 m 375 569 q 235 510 290 569 q 176 342 179 451 l 558 394 q 505 520 551 471 q 375 569 458 569 m 493 954 q 542 937 524 953 q 561 901 561 921 q 553 870 561 882 q 525 840 544 858 l 399 717 q 354 731 371 717 q 338 764 338 746 q 344 785 338 775 q 358 803 351 794 l 493 954 z "},"ê":{"ha":721,"x_min":68,"x_max":664,"o":"m 183 256 q 422 74 221 74 q 528 93 481 74 q 603 135 575 113 q 636 82 636 115 q 619 44 636 63 q 572 13 601 26 q 502 -10 542 -1 q 417 -18 463 -18 q 162 69 256 -18 q 68 325 68 157 q 91 466 68 404 q 155 571 114 528 q 253 637 196 614 q 376 660 310 660 q 492 639 439 660 q 583 580 544 618 q 642 490 621 542 q 664 375 664 438 q 650 331 664 344 q 611 315 636 318 l 183 256 m 375 569 q 235 510 290 569 q 176 342 179 451 l 558 394 q 505 520 551 471 q 375 569 458 569 m 378 858 q 315 787 346 819 q 256 722 283 754 q 214 737 231 725 q 197 768 197 749 q 206 794 197 783 q 228 821 214 806 l 313 913 q 344 936 331 928 q 378 944 358 944 q 414 936 400 944 q 443 911 428 928 l 560 772 q 549 739 560 753 q 517 725 539 725 q 490 733 500 725 q 468 751 479 740 l 378 858 z "},"ë":{"ha":721,"x_min":68,"x_max":664,"o":"m 183 256 q 422 74 221 74 q 528 93 481 74 q 603 135 575 113 q 636 82 636 115 q 619 44 636 63 q 572 13 601 26 q 502 -10 542 -1 q 417 -18 463 -18 q 162 69 256 -18 q 68 325 68 157 q 91 466 68 404 q 155 571 114 528 q 253 637 196 614 q 376 660 310 660 q 492 639 439 660 q 583 580 544 618 q 642 490 621 542 q 664 375 664 438 q 650 331 664 344 q 611 315 636 318 l 183 256 m 375 569 q 235 510 290 569 q 176 342 179 451 l 558 394 q 505 520 551 471 q 375 569 458 569 m 322 835 q 303 788 322 807 q 253 768 283 768 q 205 788 224 768 q 186 835 186 807 q 205 882 186 863 q 253 901 224 901 q 303 882 283 901 q 322 835 322 863 m 563 835 q 542 788 563 807 q 493 768 522 768 q 445 788 465 768 q 425 835 425 807 q 445 882 425 863 q 493 901 465 901 q 542 882 522 901 q 563 835 563 863 z "},"ì":{"ha":335,"x_min":-17,"x_max":222,"o":"m 174 -11 q 111 40 111 -11 l 111 638 q 132 643 118 640 q 161 646 146 646 q 222 594 222 646 l 222 -3 q 202 -8 215 -6 q 174 -11 189 -11 m -14 881 q -17 899 -17 894 q -2 935 -17 921 q 36 949 13 949 q 85 925 65 949 l 210 768 q 196 733 208 746 q 164 719 183 719 q 138 725 149 719 q 117 742 128 731 l -14 881 z "},"í":{"ha":335,"x_min":111,"x_max":347,"o":"m 174 -11 q 111 40 111 -11 l 111 638 q 132 643 118 640 q 161 646 146 646 q 222 594 222 646 l 222 -3 q 202 -8 215 -6 q 174 -11 189 -11 m 279 954 q 328 937 310 953 q 347 901 347 921 q 339 870 347 882 q 311 840 331 858 l 185 717 q 140 731 157 717 q 124 764 124 746 q 131 785 124 775 q 144 803 138 794 l 279 954 z "},"î":{"ha":335,"x_min":-10,"x_max":353,"o":"m 174 -11 q 111 40 111 -11 l 111 638 q 132 643 118 640 q 161 646 146 646 q 222 594 222 646 l 222 -3 q 202 -8 215 -6 q 174 -11 189 -11 m 171 858 q 108 787 139 819 q 49 722 76 754 q 7 737 24 725 q -10 768 -10 749 q -1 794 -10 783 q 21 821 7 806 l 106 913 q 138 936 124 928 q 171 944 151 944 q 207 936 193 944 q 236 911 221 928 l 353 772 q 342 739 353 753 q 310 725 332 725 q 283 733 293 725 q 261 751 272 740 l 171 858 z "},"ï":{"ha":335,"x_min":-21,"x_max":356,"o":"m 174 -11 q 111 40 111 -11 l 111 638 q 132 643 118 640 q 161 646 146 646 q 222 594 222 646 l 222 -3 q 202 -8 215 -6 q 174 -11 189 -11 m 115 835 q 96 788 115 807 q 46 768 76 768 q -2 788 17 768 q -21 835 -21 807 q -2 882 -21 863 q 46 901 17 901 q 96 882 76 901 q 115 835 115 863 m 356 835 q 335 788 356 807 q 286 768 315 768 q 238 788 258 768 q 218 835 218 807 q 238 882 218 863 q 286 901 258 901 q 335 882 315 901 q 356 835 356 863 z "},"ð":{"ha":746,"x_min":68,"x_max":676,"o":"m 522 756 q 631 568 586 678 q 676 332 676 458 q 597 70 676 158 q 376 -18 518 -18 q 249 3 306 -18 q 151 66 192 25 q 90 165 111 107 q 68 297 68 224 q 92 436 68 378 q 158 532 117 494 q 251 588 199 569 q 360 606 303 606 q 451 591 410 606 q 524 553 492 576 q 476 641 501 600 q 415 717 450 682 l 257 661 q 233 684 242 669 q 224 717 224 699 q 258 758 224 746 l 338 788 q 272 824 306 810 q 201 849 238 838 q 216 895 201 875 q 260 915 231 915 q 351 891 300 915 q 451 826 401 867 l 588 881 q 612 858 601 871 q 622 825 622 844 q 614 797 622 806 q 588 781 606 788 l 522 756 m 564 306 q 562 364 564 338 q 557 415 560 390 q 481 488 526 461 q 379 514 435 514 q 231 456 279 514 q 182 297 182 397 q 234 134 182 194 q 378 74 286 74 q 517 137 471 74 q 564 306 564 200 z "},"ñ":{"ha":778,"x_min":118,"x_max":674,"o":"m 563 418 q 519 532 563 496 q 401 568 475 568 q 303 554 346 568 q 229 522 260 540 l 229 3 q 208 -3 222 0 q 178 -7 194 -7 q 118 43 118 -7 l 118 517 q 130 565 118 546 q 171 601 142 583 q 267 642 207 624 q 401 660 326 660 q 601 603 528 660 q 674 424 674 546 l 674 3 q 652 -3 667 0 q 622 -7 638 -7 q 563 43 563 -7 l 563 418 m 282 904 q 336 897 311 904 q 383 881 361 889 q 424 865 404 872 q 461 857 443 857 q 498 872 486 857 q 515 910 510 886 l 524 910 q 568 898 549 910 q 588 857 588 886 q 560 794 588 817 q 486 771 532 771 q 431 778 457 771 q 381 795 404 786 q 339 812 358 804 q 303 819 319 819 q 267 804 278 819 q 250 765 256 789 l 242 765 q 197 778 217 765 q 178 818 178 790 q 210 881 178 858 q 282 904 242 904 z "},"ò":{"ha":768,"x_min":68,"x_max":700,"o":"m 700 321 q 678 181 700 243 q 615 74 656 118 q 515 6 574 29 q 385 -18 457 -18 q 254 6 313 -18 q 154 74 196 29 q 90 181 113 118 q 68 321 68 243 q 91 461 68 399 q 156 568 114 524 q 256 636 197 613 q 385 660 314 660 q 514 636 456 660 q 613 568 572 613 q 677 461 654 524 q 700 321 700 399 m 385 568 q 236 503 290 568 q 182 321 182 438 q 235 138 182 203 q 385 74 289 74 q 533 139 481 74 q 586 321 586 204 q 533 503 586 438 q 385 568 479 568 m 207 881 q 204 899 204 894 q 219 935 204 921 q 257 949 233 949 q 306 925 286 949 l 431 768 q 417 733 429 746 q 385 719 404 719 q 359 725 369 719 q 338 742 349 731 l 207 881 z "},"ó":{"ha":768,"x_min":68,"x_max":700,"o":"m 700 321 q 678 181 700 243 q 615 74 656 118 q 515 6 574 29 q 385 -18 457 -18 q 254 6 313 -18 q 154 74 196 29 q 90 181 113 118 q 68 321 68 243 q 91 461 68 399 q 156 568 114 524 q 256 636 197 613 q 385 660 314 660 q 514 636 456 660 q 613 568 572 613 q 677 461 654 524 q 700 321 700 399 m 385 568 q 236 503 290 568 q 182 321 182 438 q 235 138 182 203 q 385 74 289 74 q 533 139 481 74 q 586 321 586 204 q 533 503 586 438 q 385 568 479 568 m 515 954 q 565 937 546 953 q 583 901 583 921 q 575 870 583 882 q 547 840 567 858 l 421 717 q 376 731 393 717 q 360 764 360 746 q 367 785 360 775 q 381 803 374 794 l 515 954 z "},"ô":{"ha":768,"x_min":68,"x_max":700,"o":"m 700 321 q 678 181 700 243 q 615 74 656 118 q 515 6 574 29 q 385 -18 457 -18 q 254 6 313 -18 q 154 74 196 29 q 90 181 113 118 q 68 321 68 243 q 91 461 68 399 q 156 568 114 524 q 256 636 197 613 q 385 660 314 660 q 514 636 456 660 q 613 568 572 613 q 677 461 654 524 q 700 321 700 399 m 385 568 q 236 503 290 568 q 182 321 182 438 q 235 138 182 203 q 385 74 289 74 q 533 139 481 74 q 586 321 586 204 q 533 503 586 438 q 385 568 479 568 m 385 858 q 322 787 353 819 q 263 722 290 754 q 221 737 238 725 q 204 768 204 749 q 213 794 204 783 q 235 821 221 806 l 319 913 q 351 936 338 928 q 385 944 365 944 q 421 936 407 944 q 450 911 435 928 l 567 772 q 556 739 567 753 q 524 725 546 725 q 497 733 507 725 q 475 751 486 740 l 385 858 z "},"õ":{"ha":768,"x_min":68,"x_max":700,"o":"m 700 321 q 678 181 700 243 q 615 74 656 118 q 515 6 574 29 q 385 -18 457 -18 q 254 6 313 -18 q 154 74 196 29 q 90 181 113 118 q 68 321 68 243 q 91 461 68 399 q 156 568 114 524 q 256 636 197 613 q 385 660 314 660 q 514 636 456 660 q 613 568 572 613 q 677 461 654 524 q 700 321 700 399 m 385 568 q 236 503 290 568 q 182 321 182 438 q 235 138 182 203 q 385 74 289 74 q 533 139 481 74 q 586 321 586 204 q 533 503 586 438 q 385 568 479 568 m 286 904 q 340 897 315 904 q 387 881 365 889 q 428 865 408 872 q 465 857 447 857 q 502 872 490 857 q 519 910 514 886 l 528 910 q 572 898 553 910 q 592 857 592 886 q 564 794 592 817 q 490 771 536 771 q 435 778 461 771 q 385 795 408 786 q 343 812 363 804 q 307 819 324 819 q 271 804 282 819 q 254 765 260 789 l 246 765 q 201 778 221 765 q 182 818 182 790 q 214 881 182 858 q 286 904 246 904 z "},"ö":{"ha":768,"x_min":68,"x_max":700,"o":"m 700 321 q 678 181 700 243 q 615 74 656 118 q 515 6 574 29 q 385 -18 457 -18 q 254 6 313 -18 q 154 74 196 29 q 90 181 113 118 q 68 321 68 243 q 91 461 68 399 q 156 568 114 524 q 256 636 197 613 q 385 660 314 660 q 514 636 456 660 q 613 568 572 613 q 677 461 654 524 q 700 321 700 399 m 385 568 q 236 503 290 568 q 182 321 182 438 q 235 138 182 203 q 385 74 289 74 q 533 139 481 74 q 586 321 586 204 q 533 503 586 438 q 385 568 479 568 m 333 835 q 314 788 333 807 q 264 768 294 768 q 216 788 235 768 q 197 835 197 807 q 216 882 197 863 q 264 901 235 901 q 314 882 294 901 q 333 835 333 863 m 574 835 q 553 788 574 807 q 504 768 533 768 q 456 788 476 768 q 436 835 436 807 q 456 882 436 863 q 504 901 476 901 q 553 882 533 901 q 574 835 574 863 z "},"÷":{"ha":725,"x_min":71,"x_max":654,"o":"m 81 369 q 74 390 76 379 q 71 414 71 400 q 119 461 71 461 l 644 461 q 654 418 654 442 q 606 369 654 369 l 81 369 m 292 188 q 312 240 292 219 q 365 261 332 261 q 419 240 399 261 q 439 188 439 219 q 419 135 439 156 q 365 114 399 114 q 312 135 332 114 q 292 188 292 156 m 292 638 q 312 690 292 669 q 365 711 332 711 q 419 690 399 711 q 439 638 439 669 q 419 585 439 606 q 365 564 399 564 q 312 585 332 564 q 292 638 292 606 z "},"ø":{"ha":768,"x_min":68,"x_max":700,"o":"m 700 321 q 678 181 700 243 q 615 74 656 118 q 515 6 574 29 q 385 -18 457 -18 q 235 14 301 -18 l 168 -85 q 117 -71 136 -85 q 99 -36 99 -57 q 107 -11 99 -24 l 161 67 q 92 175 117 111 q 68 321 68 239 q 91 461 68 399 q 156 568 114 524 q 256 636 197 613 q 385 660 314 660 q 532 628 465 660 l 597 726 q 646 713 626 726 q 665 676 665 700 q 657 654 665 667 l 604 576 q 675 467 650 532 q 700 321 700 403 m 589 321 q 542 490 589 426 l 289 94 q 385 74 331 74 q 535 138 481 74 q 589 321 589 203 m 385 568 q 235 503 290 568 q 179 321 179 438 q 224 153 179 217 l 478 547 q 385 568 436 568 z "},"ù":{"ha":764,"x_min":104,"x_max":660,"o":"m 104 639 q 126 645 111 642 q 157 649 140 649 q 215 597 215 649 l 215 240 q 263 112 215 150 q 393 74 310 74 q 488 85 449 74 q 549 110 526 97 l 549 639 q 570 645 556 642 q 600 649 585 649 q 660 597 660 649 l 660 114 q 652 67 660 85 q 615 33 644 50 q 527 -1 583 15 q 392 -18 471 -18 q 178 43 253 -18 q 104 235 104 104 l 104 639 m 200 881 q 197 899 197 894 q 212 935 197 921 q 250 949 226 949 q 299 925 279 949 l 424 768 q 410 733 422 746 q 378 719 397 719 q 352 725 363 719 q 331 742 342 731 l 200 881 z "},"ú":{"ha":764,"x_min":104,"x_max":660,"o":"m 104 639 q 126 645 111 642 q 157 649 140 649 q 215 597 215 649 l 215 240 q 263 112 215 150 q 393 74 310 74 q 488 85 449 74 q 549 110 526 97 l 549 639 q 570 645 556 642 q 600 649 585 649 q 660 597 660 649 l 660 114 q 652 67 660 85 q 615 33 644 50 q 527 -1 583 15 q 392 -18 471 -18 q 178 43 253 -18 q 104 235 104 104 l 104 639 m 494 954 q 544 937 525 953 q 563 901 563 921 q 554 870 563 882 q 526 840 546 858 l 400 717 q 356 731 372 717 q 339 764 339 746 q 346 785 339 775 q 360 803 353 794 l 494 954 z "},"û":{"ha":764,"x_min":104,"x_max":660,"o":"m 104 639 q 126 645 111 642 q 157 649 140 649 q 215 597 215 649 l 215 240 q 263 112 215 150 q 393 74 310 74 q 488 85 449 74 q 549 110 526 97 l 549 639 q 570 645 556 642 q 600 649 585 649 q 660 597 660 649 l 660 114 q 652 67 660 85 q 615 33 644 50 q 527 -1 583 15 q 392 -18 471 -18 q 178 43 253 -18 q 104 235 104 104 l 104 639 m 386 858 q 323 787 354 819 q 264 722 292 754 q 222 737 239 725 q 206 768 206 749 q 214 794 206 783 q 236 821 222 806 l 321 913 q 353 936 339 928 q 386 944 367 944 q 422 936 408 944 q 451 911 436 928 l 568 772 q 558 739 568 753 q 525 725 547 725 q 498 733 508 725 q 476 751 488 740 l 386 858 z "},"ü":{"ha":764,"x_min":104,"x_max":660,"o":"m 104 639 q 126 645 111 642 q 157 649 140 649 q 215 597 215 649 l 215 240 q 263 112 215 150 q 393 74 310 74 q 488 85 449 74 q 549 110 526 97 l 549 639 q 570 645 556 642 q 600 649 585 649 q 660 597 660 649 l 660 114 q 652 67 660 85 q 615 33 644 50 q 527 -1 583 15 q 392 -18 471 -18 q 178 43 253 -18 q 104 235 104 104 l 104 639 m 328 835 q 308 788 328 807 q 258 768 289 768 q 210 788 229 768 q 192 835 192 807 q 210 882 192 863 q 258 901 229 901 q 308 882 289 901 q 328 835 328 863 m 568 835 q 548 788 568 807 q 499 768 528 768 q 451 788 471 768 q 431 835 431 807 q 451 882 431 863 q 499 901 471 901 q 548 882 528 901 q 568 835 568 863 z "},"ý":{"ha":679,"x_min":42,"x_max":632,"o":"m 235 143 q 193 228 217 176 q 144 343 169 279 q 92 478 118 407 q 42 624 65 550 q 67 646 51 638 q 101 654 83 654 q 140 642 125 654 q 165 600 154 629 q 252 368 207 482 q 354 129 297 254 l 360 129 q 406 234 382 172 q 452 365 429 296 q 495 506 475 435 q 531 643 515 578 q 551 651 540 647 q 578 654 563 654 q 617 642 601 654 q 632 607 632 631 q 613 506 632 579 q 562 340 593 432 q 490 152 531 249 q 408 -19 450 56 q 291 -201 343 -137 q 194 -264 239 -264 q 145 -247 163 -264 q 124 -208 128 -231 q 174 -158 146 -189 q 229 -92 201 -128 q 282 -19 257 -57 q 324 53 307 18 q 280 77 300 60 q 235 143 260 94 m 457 954 q 506 937 488 953 q 525 901 525 921 q 517 870 525 882 q 489 840 508 858 l 363 717 q 318 731 335 717 q 301 764 301 746 q 308 785 301 775 q 322 803 315 794 l 457 954 z "},"þ":{"ha":768,"x_min":107,"x_max":693,"o":"m 381 -18 q 289 -7 332 -18 q 218 19 246 4 l 218 -250 q 197 -256 211 -253 q 167 -260 183 -260 q 107 -208 107 -260 l 107 901 q 128 907 114 904 q 158 910 143 910 q 218 860 218 910 l 218 626 q 288 650 249 640 q 374 660 328 660 q 498 640 440 660 q 599 580 556 621 q 668 475 643 539 q 693 322 693 411 q 670 172 693 236 q 606 66 647 108 q 506 3 564 24 q 381 -18 449 -18 m 365 74 q 522 133 463 74 q 581 322 581 192 q 563 438 581 390 q 516 514 546 485 q 447 556 486 543 q 365 568 408 568 q 281 556 317 568 q 218 529 246 544 l 218 118 q 281 86 244 99 q 365 74 317 74 z "},"ÿ":{"ha":679,"x_min":42,"x_max":632,"o":"m 235 143 q 193 228 217 176 q 144 343 169 279 q 92 478 118 407 q 42 624 65 550 q 67 646 51 638 q 101 654 83 654 q 140 642 125 654 q 165 600 154 629 q 252 368 207 482 q 354 129 297 254 l 360 129 q 406 234 382 172 q 452 365 429 296 q 495 506 475 435 q 531 643 515 578 q 551 651 540 647 q 578 654 563 654 q 617 642 601 654 q 632 607 632 631 q 613 506 632 579 q 562 340 593 432 q 490 152 531 249 q 408 -19 450 56 q 291 -201 343 -137 q 194 -264 239 -264 q 145 -247 163 -264 q 124 -208 128 -231 q 174 -158 146 -189 q 229 -92 201 -128 q 282 -19 257 -57 q 324 53 307 18 q 280 77 300 60 q 235 143 260 94 m 289 835 q 269 788 289 807 q 219 768 250 768 q 172 788 190 768 q 153 835 153 807 q 172 882 153 863 q 219 901 190 901 q 269 882 250 901 q 289 835 289 863 m 529 835 q 509 788 529 807 q 460 768 489 768 q 412 788 432 768 q 392 835 392 807 q 412 882 392 863 q 460 901 432 901 q 509 882 489 901 q 529 835 529 863 z "},"Ā":{"ha":822,"x_min":42,"x_max":782,"o":"m 229 958 q 219 978 224 967 q 214 1003 214 989 q 226 1038 214 1026 q 258 1049 239 1049 l 575 1049 q 585 1028 581 1040 q 589 1004 589 1017 q 544 958 589 958 l 229 958 m 594 225 l 222 225 q 201 165 213 197 q 180 101 190 132 q 160 42 169 69 q 144 -3 150 15 q 99 -11 125 -11 q 59 1 76 -11 q 42 39 42 13 q 46 65 42 51 q 56 93 50 78 q 109 243 76 151 q 180 438 142 335 q 258 647 218 542 q 331 835 297 751 q 364 846 342 840 q 410 851 386 851 q 463 843 438 851 q 496 815 489 835 q 567 631 529 735 q 644 419 606 528 q 719 206 683 311 q 782 17 754 101 q 756 -3 771 4 q 721 -11 740 -11 q 681 1 694 -11 q 657 40 667 13 l 594 225 m 408 757 q 374 662 393 715 q 333 550 354 608 q 292 432 313 492 q 253 318 271 372 l 565 318 q 522 444 544 381 q 480 565 500 507 q 442 673 460 624 q 414 757 425 722 l 408 757 z "},"ā":{"ha":693,"x_min":60,"x_max":594,"o":"m 333 72 q 430 84 392 72 q 485 107 468 96 l 485 308 l 313 290 q 206 258 240 283 q 171 182 171 232 q 211 101 171 129 q 333 72 251 72 m 332 660 q 524 606 453 660 q 594 435 594 551 l 594 106 q 583 59 594 75 q 547 29 571 43 q 459 -5 514 10 q 333 -19 404 -19 q 131 32 203 -19 q 60 181 60 83 q 119 319 60 272 q 288 376 179 365 l 485 396 l 485 435 q 443 536 485 504 q 331 568 401 568 q 221 551 272 568 q 129 514 169 535 q 109 536 118 524 q 100 564 100 549 q 110 596 100 583 q 140 619 119 608 q 226 649 178 639 q 332 660 275 660 m 174 792 q 163 811 168 800 q 158 836 158 822 q 171 871 158 860 q 203 882 183 882 l 519 882 q 529 862 525 874 q 533 838 533 850 q 489 792 533 792 l 174 792 z "},"Ă":{"ha":822,"x_min":42,"x_max":782,"o":"m 594 225 l 222 225 q 201 165 213 197 q 180 101 190 132 q 160 42 169 69 q 144 -3 150 15 q 99 -11 125 -11 q 59 1 76 -11 q 42 39 42 13 q 46 65 42 51 q 56 93 50 78 q 109 243 76 151 q 180 438 142 335 q 258 647 218 542 q 331 835 297 751 q 364 846 342 840 q 410 851 386 851 q 463 843 438 851 q 496 815 489 835 q 567 631 529 735 q 644 419 606 528 q 719 206 683 311 q 782 17 754 101 q 756 -3 771 4 q 721 -11 740 -11 q 681 1 694 -11 q 657 40 667 13 l 594 225 m 408 757 q 374 662 393 715 q 333 550 354 608 q 292 432 313 492 q 253 318 271 372 l 565 318 q 522 444 544 381 q 480 565 500 507 q 442 673 460 624 q 414 757 425 722 l 408 757 m 411 1007 q 517 1099 501 1007 q 528 1101 522 1100 q 540 1101 533 1101 q 576 1089 563 1101 q 589 1049 589 1076 q 578 1005 589 1026 q 544 966 567 983 q 489 938 522 949 q 411 926 456 926 q 332 938 365 926 q 276 966 299 949 q 244 1006 254 983 q 233 1049 233 1028 q 282 1101 233 1101 q 306 1099 294 1101 q 411 1007 321 1007 z "},"ă":{"ha":693,"x_min":60,"x_max":594,"o":"m 333 72 q 430 84 392 72 q 485 107 468 96 l 485 308 l 313 290 q 206 258 240 283 q 171 182 171 232 q 211 101 171 129 q 333 72 251 72 m 332 660 q 524 606 453 660 q 594 435 594 551 l 594 106 q 583 59 594 75 q 547 29 571 43 q 459 -5 514 10 q 333 -19 404 -19 q 131 32 203 -19 q 60 181 60 83 q 119 319 60 272 q 288 376 179 365 l 485 396 l 485 435 q 443 536 485 504 q 331 568 401 568 q 221 551 272 568 q 129 514 169 535 q 109 536 118 524 q 100 564 100 549 q 110 596 100 583 q 140 619 119 608 q 226 649 178 639 q 332 660 275 660 m 351 832 q 457 924 442 832 q 468 926 463 925 q 481 926 474 926 q 516 914 503 926 q 529 874 529 901 q 518 830 529 851 q 485 791 507 808 q 429 763 463 774 q 351 751 396 751 q 272 763 306 751 q 217 791 239 774 q 184 831 194 808 q 174 874 174 853 q 222 926 174 926 q 246 924 235 926 q 351 832 261 832 z "},"Ą":{"ha":822,"x_min":42,"x_max":817,"o":"m 594 225 l 222 225 q 201 165 213 197 q 180 101 190 132 q 160 42 169 69 q 144 -3 150 15 q 99 -11 125 -11 q 59 1 76 -11 q 42 39 42 13 q 46 65 42 51 q 56 93 50 78 q 109 243 76 151 q 180 438 142 335 q 258 647 218 542 q 331 835 297 751 q 364 846 342 840 q 410 851 386 851 q 463 843 438 851 q 496 815 489 835 q 567 631 529 735 q 644 419 606 528 q 719 206 683 311 q 782 17 754 101 q 774 8 778 13 q 764 1 769 4 q 719 -42 738 -18 q 700 -101 700 -65 q 724 -157 700 -139 q 789 -175 749 -175 l 808 -175 q 817 -207 817 -192 q 801 -243 817 -229 q 750 -257 786 -257 q 692 -248 719 -257 q 644 -222 665 -239 q 612 -180 624 -204 q 600 -124 600 -156 q 623 -42 600 -75 q 672 7 646 -10 q 657 40 663 21 l 594 225 m 408 757 q 374 662 393 715 q 333 550 354 608 q 292 432 313 492 q 253 318 271 372 l 565 318 q 522 444 544 381 q 480 565 500 507 q 442 673 460 624 q 414 757 425 722 l 408 757 z "},"ą":{"ha":693,"x_min":60,"x_max":594,"o":"m 332 660 q 524 606 453 660 q 594 435 594 551 l 594 106 q 583 59 594 75 q 549 31 571 43 q 492 -28 513 1 q 471 -101 471 -57 q 494 -157 471 -139 q 558 -175 518 -175 l 579 -175 q 588 -207 588 -192 q 572 -243 588 -229 q 519 -257 557 -257 q 462 -248 489 -257 q 415 -222 435 -239 q 383 -180 394 -204 q 371 -124 371 -156 q 385 -59 371 -86 q 418 -12 399 -32 q 377 -17 399 -15 q 333 -19 356 -19 q 131 32 203 -19 q 60 181 60 83 q 119 319 60 272 q 288 376 179 365 l 485 396 l 485 435 q 443 536 485 504 q 331 568 401 568 q 221 551 272 568 q 129 514 169 535 q 109 536 118 524 q 100 564 100 549 q 110 596 100 583 q 140 619 119 608 q 226 649 178 639 q 332 660 275 660 m 333 72 q 430 84 392 72 q 485 107 468 96 l 485 308 l 313 290 q 206 258 240 283 q 171 182 171 232 q 211 101 171 129 q 333 72 251 72 z "},"Ć":{"ha":817,"x_min":75,"x_max":749,"o":"m 740 751 q 728 718 740 732 q 701 697 717 704 q 617 744 665 722 q 490 767 568 767 q 372 744 426 767 q 278 679 318 722 q 215 571 238 636 q 192 421 192 506 q 214 271 192 335 q 276 164 236 207 q 371 99 315 121 q 494 78 426 78 q 620 98 567 78 q 710 146 674 118 q 736 126 724 140 q 749 92 749 111 q 715 39 749 63 q 628 -1 683 17 q 486 -18 572 -18 q 324 10 399 -18 q 194 92 249 38 q 107 229 139 147 q 75 421 75 311 q 108 613 75 531 q 196 751 140 696 q 326 835 251 807 q 482 863 400 863 q 587 853 539 863 q 669 827 635 843 q 722 791 703 811 q 740 751 740 771 m 568 1139 q 615 1123 599 1138 q 631 1089 631 1108 q 623 1057 631 1069 q 596 1028 615 1044 l 478 922 q 437 936 451 925 q 422 964 422 947 q 428 988 422 978 q 442 1006 433 997 l 568 1139 z "},"ć":{"ha":664,"x_min":68,"x_max":603,"o":"m 401 567 q 314 551 354 567 q 244 503 274 535 q 199 426 215 472 q 182 319 182 379 q 242 137 182 200 q 401 74 301 74 q 499 90 460 74 q 568 126 538 106 q 593 106 583 118 q 603 75 603 93 q 588 39 603 56 q 545 10 572 22 q 481 -10 518 -3 q 401 -18 444 -18 q 268 3 329 -18 q 163 65 207 24 q 93 170 118 107 q 68 319 68 233 q 94 467 68 404 q 165 574 121 531 q 270 638 210 617 q 399 660 331 660 q 478 652 442 660 q 542 631 515 644 q 583 599 568 617 q 597 564 597 582 q 588 535 597 547 q 563 515 578 522 q 496 551 532 536 q 401 567 460 567 m 496 954 q 545 937 526 953 q 564 901 564 921 q 556 870 564 882 q 528 840 547 858 l 401 717 q 357 731 374 717 q 340 764 340 746 q 347 785 340 775 q 361 803 354 794 l 496 954 z "},"Ĉ":{"ha":817,"x_min":75,"x_max":749,"o":"m 740 751 q 728 718 740 732 q 701 697 717 704 q 617 744 665 722 q 490 767 568 767 q 372 744 426 767 q 278 679 318 722 q 215 571 238 636 q 192 421 192 506 q 214 271 192 335 q 276 164 236 207 q 371 99 315 121 q 494 78 426 78 q 620 98 567 78 q 710 146 674 118 q 736 126 724 140 q 749 92 749 111 q 715 39 749 63 q 628 -1 683 17 q 486 -18 572 -18 q 324 10 399 -18 q 194 92 249 38 q 107 229 139 147 q 75 421 75 311 q 108 613 75 531 q 196 751 140 696 q 326 835 251 807 q 482 863 400 863 q 587 853 539 863 q 669 827 635 843 q 722 791 703 811 q 740 751 740 771 m 475 1043 q 419 985 451 1019 q 347 915 388 951 q 308 930 324 918 q 293 961 293 942 q 303 990 293 976 q 329 1018 314 1003 l 411 1100 q 476 1131 442 1131 q 514 1122 499 1131 q 546 1094 529 1113 l 660 965 q 647 931 660 944 q 613 918 633 918 q 583 926 597 918 q 550 957 569 935 l 475 1043 z "},"ĉ":{"ha":664,"x_min":68,"x_max":603,"o":"m 401 567 q 314 551 354 567 q 244 503 274 535 q 199 426 215 472 q 182 319 182 379 q 242 137 182 200 q 401 74 301 74 q 499 90 460 74 q 568 126 538 106 q 593 106 583 118 q 603 75 603 93 q 588 39 603 56 q 545 10 572 22 q 481 -10 518 -3 q 401 -18 444 -18 q 268 3 329 -18 q 163 65 207 24 q 93 170 118 107 q 68 319 68 233 q 94 467 68 404 q 165 574 121 531 q 270 638 210 617 q 399 660 331 660 q 478 652 442 660 q 542 631 515 644 q 583 599 568 617 q 597 564 597 582 q 588 535 597 547 q 563 515 578 522 q 496 551 532 536 q 401 567 460 567 m 385 858 q 322 787 353 819 q 263 722 290 754 q 221 737 238 725 q 204 768 204 749 q 213 794 204 783 q 235 821 221 806 l 319 913 q 351 936 338 928 q 385 944 365 944 q 421 936 407 944 q 450 911 435 928 l 567 772 q 556 739 567 753 q 524 725 546 725 q 497 733 507 725 q 475 751 486 740 l 385 858 z "},"Ċ":{"ha":817,"x_min":75,"x_max":749,"o":"m 740 751 q 728 718 740 732 q 701 697 717 704 q 617 744 665 722 q 490 767 568 767 q 372 744 426 767 q 278 679 318 722 q 215 571 238 636 q 192 421 192 506 q 214 271 192 335 q 276 164 236 207 q 371 99 315 121 q 494 78 426 78 q 620 98 567 78 q 710 146 674 118 q 736 126 724 140 q 749 92 749 111 q 715 39 749 63 q 628 -1 683 17 q 486 -18 572 -18 q 324 10 399 -18 q 194 92 249 38 q 107 229 139 147 q 75 421 75 311 q 108 613 75 531 q 196 751 140 696 q 326 835 251 807 q 482 863 400 863 q 587 853 539 863 q 669 827 635 843 q 722 791 703 811 q 740 751 740 771 m 538 1014 q 518 965 538 983 q 467 946 499 946 q 416 965 435 946 q 397 1014 397 983 q 416 1065 397 1046 q 467 1083 435 1083 q 518 1065 499 1083 q 538 1014 538 1046 z "},"ċ":{"ha":664,"x_min":68,"x_max":603,"o":"m 401 567 q 314 551 354 567 q 244 503 274 535 q 199 426 215 472 q 182 319 182 379 q 242 137 182 200 q 401 74 301 74 q 499 90 460 74 q 568 126 538 106 q 593 106 583 118 q 603 75 603 93 q 588 39 603 56 q 545 10 572 22 q 481 -10 518 -3 q 401 -18 444 -18 q 268 3 329 -18 q 163 65 207 24 q 93 170 118 107 q 68 319 68 233 q 94 467 68 404 q 165 574 121 531 q 270 638 210 617 q 399 660 331 660 q 478 652 442 660 q 542 631 515 644 q 583 599 568 617 q 597 564 597 582 q 588 535 597 547 q 563 515 578 522 q 496 551 532 536 q 401 567 460 567 m 446 843 q 426 794 446 813 q 375 775 407 775 q 324 794 343 775 q 306 843 306 813 q 324 894 306 875 q 375 913 343 913 q 426 894 407 913 q 446 843 446 875 z "},"Č":{"ha":817,"x_min":75,"x_max":749,"o":"m 740 751 q 728 718 740 732 q 701 697 717 704 q 617 744 665 722 q 490 767 568 767 q 372 744 426 767 q 278 679 318 722 q 215 571 238 636 q 192 421 192 506 q 214 271 192 335 q 276 164 236 207 q 371 99 315 121 q 494 78 426 78 q 620 98 567 78 q 710 146 674 118 q 736 126 724 140 q 749 92 749 111 q 715 39 749 63 q 628 -1 683 17 q 486 -18 572 -18 q 324 10 399 -18 q 194 92 249 38 q 107 229 139 147 q 75 421 75 311 q 108 613 75 531 q 196 751 140 696 q 326 835 251 807 q 482 863 400 863 q 587 853 539 863 q 669 827 635 843 q 722 791 703 811 q 740 751 740 771 m 606 1131 q 649 1116 631 1128 q 667 1085 667 1104 q 656 1056 667 1068 q 631 1028 646 1043 l 547 944 q 517 923 532 929 q 483 917 503 917 q 447 925 463 917 q 415 951 431 933 l 300 1074 q 313 1114 300 1100 q 346 1128 325 1128 q 375 1119 361 1128 q 408 1089 389 1111 l 483 1001 l 606 1131 z "},"č":{"ha":664,"x_min":68,"x_max":603,"o":"m 401 567 q 314 551 354 567 q 244 503 274 535 q 199 426 215 472 q 182 319 182 379 q 242 137 182 200 q 401 74 301 74 q 499 90 460 74 q 568 126 538 106 q 593 106 583 118 q 603 75 603 93 q 588 39 603 56 q 545 10 572 22 q 481 -10 518 -3 q 401 -18 444 -18 q 268 3 329 -18 q 163 65 207 24 q 93 170 118 107 q 68 319 68 233 q 94 467 68 404 q 165 574 121 531 q 270 638 210 617 q 399 660 331 660 q 478 652 442 660 q 542 631 515 644 q 583 599 568 617 q 597 564 597 582 q 588 535 597 547 q 563 515 578 522 q 496 551 532 536 q 401 567 460 567 m 379 810 l 501 944 q 545 929 529 942 q 561 897 561 917 q 551 869 561 882 q 526 840 542 857 l 439 751 q 411 731 425 738 q 378 724 397 724 q 342 733 358 724 q 310 760 326 742 l 192 889 q 204 926 192 910 q 238 942 217 942 q 267 934 256 942 q 294 908 279 926 l 379 810 z "},"Ď":{"ha":906,"x_min":124,"x_max":831,"o":"m 715 432 q 688 584 715 521 q 615 688 661 647 q 506 747 568 728 q 374 765 444 765 q 297 763 329 765 q 236 754 264 760 l 236 93 q 308 82 269 85 q 386 79 346 79 q 633 168 550 79 q 715 432 715 257 m 831 432 q 799 234 831 318 q 710 94 768 150 q 571 12 653 39 q 388 -15 489 -15 q 288 -12 343 -15 q 182 7 232 -8 q 124 71 124 25 l 124 785 q 135 819 124 807 q 169 838 146 831 q 267 856 213 851 q 375 860 321 860 q 560 833 476 860 q 704 752 644 806 q 797 619 764 699 q 831 432 831 539 m 560 1131 q 603 1116 585 1128 q 621 1085 621 1104 q 610 1056 621 1068 q 585 1028 600 1043 l 501 944 q 472 923 486 929 q 438 917 457 917 q 401 925 417 917 q 369 951 385 933 l 254 1074 q 267 1114 254 1100 q 300 1128 279 1128 q 329 1119 315 1128 q 363 1089 343 1111 l 438 1001 l 560 1131 z "},"ď":{"ha":867,"x_min":68,"x_max":881,"o":"m 653 106 q 641 63 653 78 q 604 32 629 47 q 525 -2 576 14 q 407 -18 474 -18 q 269 1 332 -18 q 162 62 207 21 q 92 166 117 103 q 68 318 68 229 q 93 473 68 408 q 160 579 118 538 q 260 640 203 621 q 383 660 318 660 q 469 649 428 660 q 542 621 511 638 l 542 900 q 563 906 549 903 q 593 910 578 910 q 653 860 653 910 l 653 106 m 542 521 q 478 554 514 540 q 394 568 442 568 q 313 555 351 568 q 246 512 275 542 q 199 433 217 482 q 182 315 182 385 q 243 131 182 188 q 406 74 304 74 q 485 84 454 74 q 542 110 517 94 l 542 521 m 818 717 q 765 692 797 692 q 722 710 736 692 q 758 809 742 758 q 779 900 775 860 q 829 910 803 910 q 866 899 851 910 q 881 868 881 889 q 875 830 881 851 q 860 788 869 808 q 839 748 850 767 q 818 717 828 729 z "},"Đ":{"ha":960,"x_min":7,"x_max":885,"o":"m 885 432 q 853 234 885 318 q 765 94 822 150 q 625 12 707 39 q 442 -15 543 -15 q 342 -12 397 -15 q 236 7 286 -8 q 178 71 178 25 l 178 375 l 21 375 q 11 394 15 382 q 7 419 7 406 q 19 456 7 443 q 50 469 31 469 l 178 469 l 178 785 q 189 819 178 807 q 224 838 200 831 q 321 856 267 851 q 429 860 375 860 q 615 833 531 860 q 758 752 699 806 q 851 619 818 699 q 885 432 885 539 m 769 432 q 742 584 769 521 q 669 688 715 647 q 560 747 622 728 q 428 765 499 765 q 351 763 383 765 q 290 754 318 760 l 290 469 l 493 469 q 502 451 497 463 q 507 425 507 440 q 495 388 507 401 q 463 375 483 375 l 290 375 l 290 93 q 362 82 324 85 q 440 79 400 79 q 687 168 604 79 q 769 432 769 257 z "},"đ":{"ha":764,"x_min":68,"x_max":757,"o":"m 653 106 q 641 63 653 78 q 604 32 629 47 q 525 -2 576 14 q 407 -18 474 -18 q 269 1 332 -18 q 162 62 207 21 q 92 166 117 103 q 68 318 68 229 q 93 473 68 408 q 160 579 118 538 q 260 640 203 621 q 383 660 318 660 q 469 649 428 660 q 542 621 511 638 l 542 732 l 399 732 q 391 749 394 739 q 388 774 388 760 q 425 815 388 815 l 542 815 l 542 901 q 563 908 549 904 q 593 911 578 911 q 653 861 653 911 l 653 815 l 746 815 q 753 799 749 808 q 757 776 757 789 q 718 732 757 732 l 653 732 l 653 106 m 542 521 q 478 554 514 540 q 394 568 442 568 q 313 555 351 568 q 246 512 275 542 q 199 433 217 482 q 182 315 182 385 q 243 131 182 188 q 406 74 304 74 q 485 84 454 74 q 542 110 517 94 l 542 521 z "},"Ē":{"ha":753,"x_min":140,"x_max":682,"o":"m 201 0 q 157 17 174 0 q 140 61 140 33 l 140 783 q 157 828 140 811 q 201 844 174 844 l 663 844 q 671 826 667 838 q 675 800 675 814 q 664 763 675 776 q 632 749 653 749 l 253 749 l 253 481 l 619 481 q 628 462 624 474 q 632 436 632 450 q 621 399 632 413 q 589 386 610 386 l 253 386 l 253 94 l 669 94 q 678 76 674 88 q 682 50 682 65 q 671 13 682 26 q 639 0 660 0 l 201 0 m 225 958 q 215 978 219 967 q 210 1003 210 989 q 222 1038 210 1026 q 254 1049 235 1049 l 571 1049 q 581 1028 576 1040 q 585 1004 585 1017 q 540 958 585 958 l 225 958 z "},"ē":{"ha":721,"x_min":68,"x_max":664,"o":"m 183 256 q 422 74 221 74 q 528 93 481 74 q 603 135 575 113 q 636 82 636 115 q 619 44 636 63 q 572 13 601 26 q 502 -10 542 -1 q 417 -18 463 -18 q 162 69 256 -18 q 68 325 68 157 q 91 466 68 404 q 155 571 114 528 q 253 637 196 614 q 376 660 310 660 q 492 639 439 660 q 583 580 544 618 q 642 490 621 542 q 664 375 664 438 q 650 331 664 344 q 611 315 636 318 l 183 256 m 375 569 q 235 510 290 569 q 176 342 179 451 l 558 394 q 505 520 551 471 q 375 569 458 569 m 201 792 q 191 811 196 800 q 186 836 186 822 q 199 871 186 860 q 231 882 211 882 l 547 882 q 557 862 553 874 q 561 838 561 850 q 517 792 561 792 l 201 792 z "},"Ĕ":{"ha":753,"x_min":140,"x_max":682,"o":"m 201 0 q 157 17 174 0 q 140 61 140 33 l 140 783 q 157 828 140 811 q 201 844 174 844 l 663 844 q 671 826 667 838 q 675 800 675 814 q 664 763 675 776 q 632 749 653 749 l 253 749 l 253 481 l 619 481 q 628 462 624 474 q 632 436 632 450 q 621 399 632 413 q 589 386 610 386 l 253 386 l 253 94 l 669 94 q 678 76 674 88 q 682 50 682 65 q 671 13 682 26 q 639 0 660 0 l 201 0 m 419 1008 q 525 1100 510 1008 q 536 1102 531 1101 q 549 1103 542 1103 q 584 1090 571 1103 q 597 1050 597 1078 q 586 1006 597 1028 q 553 967 575 985 q 497 939 531 950 q 419 928 464 928 q 340 939 374 928 q 285 967 307 950 q 252 1007 263 985 q 242 1050 242 1029 q 290 1103 242 1103 q 314 1100 303 1103 q 419 1008 329 1008 z "},"ĕ":{"ha":721,"x_min":68,"x_max":664,"o":"m 183 256 q 422 74 221 74 q 528 93 481 74 q 603 135 575 113 q 636 82 636 115 q 619 44 636 63 q 572 13 601 26 q 502 -10 542 -1 q 417 -18 463 -18 q 162 69 256 -18 q 68 325 68 157 q 91 466 68 404 q 155 571 114 528 q 253 637 196 614 q 376 660 310 660 q 492 639 439 660 q 583 580 544 618 q 642 490 621 542 q 664 375 664 438 q 650 331 664 344 q 611 315 636 318 l 183 256 m 375 569 q 235 510 290 569 q 176 342 179 451 l 558 394 q 505 520 551 471 q 375 569 458 569 m 376 832 q 482 924 467 832 q 493 926 488 925 q 506 926 499 926 q 541 914 528 926 q 554 874 554 901 q 543 830 554 851 q 510 791 532 808 q 454 763 488 774 q 376 751 421 751 q 297 763 331 751 q 242 791 264 774 q 209 831 219 808 q 199 874 199 853 q 247 926 199 926 q 271 924 260 926 q 376 832 286 832 z "},"Ė":{"ha":753,"x_min":140,"x_max":682,"o":"m 201 0 q 157 17 174 0 q 140 61 140 33 l 140 783 q 157 828 140 811 q 201 844 174 844 l 663 844 q 671 826 667 838 q 675 800 675 814 q 664 763 675 776 q 632 749 653 749 l 253 749 l 253 481 l 619 481 q 628 462 624 474 q 632 436 632 450 q 621 399 632 413 q 589 386 610 386 l 253 386 l 253 94 l 669 94 q 678 76 674 88 q 682 50 682 65 q 671 13 682 26 q 639 0 660 0 l 201 0 m 504 1014 q 485 965 504 983 q 433 946 465 946 q 383 965 401 946 q 364 1014 364 983 q 383 1065 364 1046 q 433 1083 401 1083 q 485 1065 465 1083 q 504 1014 504 1046 z "},"ė":{"ha":721,"x_min":68,"x_max":664,"o":"m 183 256 q 422 74 221 74 q 528 93 481 74 q 603 135 575 113 q 636 82 636 115 q 619 44 636 63 q 572 13 601 26 q 502 -10 542 -1 q 417 -18 463 -18 q 162 69 256 -18 q 68 325 68 157 q 91 466 68 404 q 155 571 114 528 q 253 637 196 614 q 376 660 310 660 q 492 639 439 660 q 583 580 544 618 q 642 490 621 542 q 664 375 664 438 q 650 331 664 344 q 611 315 636 318 l 183 256 m 375 569 q 235 510 290 569 q 176 342 179 451 l 558 394 q 505 520 551 471 q 375 569 458 569 m 444 843 q 425 794 444 813 q 374 775 406 775 q 323 794 342 775 q 304 843 304 813 q 323 894 304 875 q 374 913 342 913 q 425 894 406 913 q 444 843 444 875 z "},"Ę":{"ha":753,"x_min":140,"x_max":692,"o":"m 201 0 q 157 17 174 0 q 140 61 140 33 l 140 783 q 157 828 140 811 q 201 844 174 844 l 663 844 q 671 826 667 838 q 675 800 675 814 q 664 763 675 776 q 632 749 653 749 l 253 749 l 253 481 l 619 481 q 628 462 624 474 q 632 436 632 450 q 621 399 632 413 q 589 386 610 386 l 253 386 l 253 94 l 669 94 q 678 76 674 88 q 682 50 682 65 q 671 13 682 26 q 639 0 660 0 l 638 0 q 593 -42 611 -19 q 575 -101 575 -65 q 599 -157 575 -139 q 663 -175 622 -175 l 683 -175 q 692 -207 692 -192 q 676 -243 692 -229 q 624 -257 661 -257 q 566 -248 593 -257 q 519 -222 539 -239 q 487 -180 499 -204 q 475 -124 475 -156 q 494 -49 475 -79 q 538 0 514 -19 l 201 0 l 201 0 z "},"ę":{"ha":721,"x_min":68,"x_max":664,"o":"m 183 256 q 422 74 221 74 q 528 93 481 74 q 603 135 575 113 q 636 82 636 115 q 615 39 636 58 q 557 6 593 19 q 507 -38 528 -14 q 486 -101 486 -62 q 510 -157 486 -139 q 574 -175 533 -175 l 594 -175 q 603 -207 603 -192 q 588 -243 603 -229 q 535 -257 572 -257 q 477 -248 504 -257 q 430 -222 450 -239 q 398 -180 410 -204 q 386 -124 386 -156 q 399 -62 386 -87 q 429 -18 411 -37 l 417 -18 q 162 69 256 -18 q 68 325 68 157 q 91 466 68 404 q 155 571 114 528 q 253 637 196 614 q 376 660 310 660 q 492 639 439 660 q 583 580 544 618 q 642 490 621 542 q 664 375 664 438 q 650 331 664 344 q 611 315 636 318 l 183 256 m 375 569 q 235 510 290 569 q 176 342 179 451 l 558 394 q 505 520 551 471 q 375 569 458 569 z "},"Ě":{"ha":753,"x_min":140,"x_max":682,"o":"m 201 0 q 157 17 174 0 q 140 61 140 33 l 140 783 q 157 828 140 811 q 201 844 174 844 l 663 844 q 671 826 667 838 q 675 800 675 814 q 664 763 675 776 q 632 749 653 749 l 253 749 l 253 481 l 619 481 q 628 462 624 474 q 632 436 632 450 q 621 399 632 413 q 589 386 610 386 l 253 386 l 253 94 l 669 94 q 678 76 674 88 q 682 50 682 65 q 671 13 682 26 q 639 0 660 0 l 201 0 m 547 1131 q 590 1116 572 1128 q 608 1085 608 1104 q 598 1056 608 1068 q 572 1028 588 1043 l 489 944 q 459 923 474 929 q 425 917 444 917 q 388 925 404 917 q 357 951 372 933 l 242 1074 q 254 1114 242 1100 q 288 1128 267 1128 q 317 1119 303 1128 q 350 1089 331 1111 l 425 1001 l 547 1131 z "},"ě":{"ha":721,"x_min":68,"x_max":664,"o":"m 183 256 q 422 74 221 74 q 528 93 481 74 q 603 135 575 113 q 636 82 636 115 q 619 44 636 63 q 572 13 601 26 q 502 -10 542 -1 q 417 -18 463 -18 q 162 69 256 -18 q 68 325 68 157 q 91 466 68 404 q 155 571 114 528 q 253 637 196 614 q 376 660 310 660 q 492 639 439 660 q 583 580 544 618 q 642 490 621 542 q 664 375 664 438 q 650 331 664 344 q 611 315 636 318 l 183 256 m 375 569 q 235 510 290 569 q 176 342 179 451 l 558 394 q 505 520 551 471 q 375 569 458 569 m 379 810 l 501 944 q 545 929 529 942 q 561 897 561 917 q 551 869 561 882 q 526 840 542 857 l 439 751 q 411 731 425 738 q 378 724 397 724 q 342 733 358 724 q 310 760 326 742 l 192 889 q 204 926 192 910 q 238 942 217 942 q 267 934 256 942 q 294 908 279 926 l 379 810 z "},"Ĝ":{"ha":888,"x_min":75,"x_max":792,"o":"m 792 97 q 777 56 792 72 q 733 24 763 39 q 638 -6 699 7 q 514 -18 576 -18 q 336 8 417 -18 q 197 89 256 35 q 107 226 139 143 q 75 421 75 308 q 108 615 75 532 q 199 753 142 699 q 333 835 257 808 q 496 863 410 863 q 603 853 554 863 q 688 827 653 843 q 742 792 722 811 q 761 753 761 772 q 750 719 761 733 q 724 699 739 706 q 635 745 686 724 q 503 767 583 767 q 379 744 436 767 q 281 679 322 722 q 215 571 239 636 q 192 421 192 506 q 216 266 192 331 q 284 160 240 201 q 387 98 328 118 q 515 78 446 78 q 610 86 565 78 q 679 107 654 94 l 679 363 l 469 363 q 461 381 465 369 q 457 407 457 393 q 468 444 457 431 q 500 457 479 457 l 732 457 q 774 441 757 457 q 792 399 792 425 l 792 97 m 479 1043 q 424 985 456 1019 q 351 915 392 951 q 313 930 328 918 q 297 961 297 942 q 308 990 297 976 q 333 1018 318 1003 l 415 1100 q 481 1131 446 1131 q 518 1122 503 1131 q 550 1094 533 1113 l 664 965 q 651 931 664 944 q 617 918 638 918 q 588 926 601 918 q 554 957 574 935 l 479 1043 z "},"ĝ":{"ha":746,"x_min":71,"x_max":644,"o":"m 533 67 q 469 33 510 47 q 371 19 428 19 q 256 37 310 19 q 160 92 201 54 q 95 192 119 131 q 71 340 71 253 q 94 479 71 419 q 160 579 118 539 q 261 640 203 619 q 390 660 319 660 q 508 644 454 660 q 597 604 561 628 q 631 573 618 590 q 644 531 644 556 l 644 -28 q 622 -145 644 -97 q 558 -223 599 -193 q 461 -267 517 -253 q 342 -281 406 -281 q 222 -266 271 -281 q 154 -240 172 -251 q 113 -181 113 -217 q 122 -148 113 -161 q 144 -128 131 -135 q 226 -169 174 -150 q 342 -187 279 -187 q 484 -148 435 -187 q 533 -21 533 -108 l 533 67 m 383 111 q 474 128 439 111 q 533 168 510 146 l 533 529 q 474 556 510 544 q 390 568 439 568 q 240 511 296 568 q 183 342 183 454 q 199 235 183 279 q 241 164 214 192 q 305 124 268 136 q 383 111 342 111 m 385 858 q 322 787 353 819 q 263 722 290 754 q 221 737 238 725 q 204 768 204 749 q 213 794 204 783 q 235 821 221 806 l 319 913 q 351 936 338 928 q 385 944 365 944 q 421 936 407 944 q 450 911 435 928 l 567 772 q 556 739 567 753 q 524 725 546 725 q 497 733 507 725 q 475 751 486 740 l 385 858 z "},"Ğ":{"ha":888,"x_min":75,"x_max":792,"o":"m 792 97 q 777 56 792 72 q 733 24 763 39 q 638 -6 699 7 q 514 -18 576 -18 q 336 8 417 -18 q 197 89 256 35 q 107 226 139 143 q 75 421 75 308 q 108 615 75 532 q 199 753 142 699 q 333 835 257 808 q 496 863 410 863 q 603 853 554 863 q 688 827 653 843 q 742 792 722 811 q 761 753 761 772 q 750 719 761 733 q 724 699 739 706 q 635 745 686 724 q 503 767 583 767 q 379 744 436 767 q 281 679 322 722 q 215 571 239 636 q 192 421 192 506 q 216 266 192 331 q 284 160 240 201 q 387 98 328 118 q 515 78 446 78 q 610 86 565 78 q 679 107 654 94 l 679 363 l 469 363 q 461 381 465 369 q 457 407 457 393 q 468 444 457 431 q 500 457 479 457 l 732 457 q 774 441 757 457 q 792 399 792 425 l 792 97 m 472 1008 q 578 1100 563 1008 q 589 1102 583 1101 q 601 1103 594 1103 q 637 1090 624 1103 q 650 1050 650 1078 q 639 1006 650 1028 q 606 967 628 985 q 550 939 583 950 q 472 928 517 928 q 393 939 426 928 q 338 967 360 950 q 305 1007 315 985 q 294 1050 294 1029 q 343 1103 294 1103 q 367 1100 356 1103 q 472 1008 382 1008 z "},"ğ":{"ha":746,"x_min":71,"x_max":644,"o":"m 533 67 q 469 33 510 47 q 371 19 428 19 q 256 37 310 19 q 160 92 201 54 q 95 192 119 131 q 71 340 71 253 q 94 479 71 419 q 160 579 118 539 q 261 640 203 619 q 390 660 319 660 q 508 644 454 660 q 597 604 561 628 q 631 573 618 590 q 644 531 644 556 l 644 -28 q 622 -145 644 -97 q 558 -223 599 -193 q 461 -267 517 -253 q 342 -281 406 -281 q 222 -266 271 -281 q 154 -240 172 -251 q 113 -181 113 -217 q 122 -148 113 -161 q 144 -128 131 -135 q 226 -169 174 -150 q 342 -187 279 -187 q 484 -148 435 -187 q 533 -21 533 -108 l 533 67 m 383 111 q 474 128 439 111 q 533 168 510 146 l 533 529 q 474 556 510 544 q 390 568 439 568 q 240 511 296 568 q 183 342 183 454 q 199 235 183 279 q 241 164 214 192 q 305 124 268 136 q 383 111 342 111 m 382 832 q 488 924 472 832 q 499 926 493 925 q 511 926 504 926 q 547 914 533 926 q 560 874 560 901 q 549 830 560 851 q 515 791 538 808 q 460 763 493 774 q 382 751 426 751 q 303 763 336 751 q 247 791 269 774 q 215 831 225 808 q 204 874 204 853 q 253 926 204 926 q 276 924 265 926 q 382 832 292 832 z "},"Ġ":{"ha":888,"x_min":75,"x_max":792,"o":"m 792 97 q 777 56 792 72 q 733 24 763 39 q 638 -6 699 7 q 514 -18 576 -18 q 336 8 417 -18 q 197 89 256 35 q 107 226 139 143 q 75 421 75 308 q 108 615 75 532 q 199 753 142 699 q 333 835 257 808 q 496 863 410 863 q 603 853 554 863 q 688 827 653 843 q 742 792 722 811 q 761 753 761 772 q 750 719 761 733 q 724 699 739 706 q 635 745 686 724 q 503 767 583 767 q 379 744 436 767 q 281 679 322 722 q 215 571 239 636 q 192 421 192 506 q 216 266 192 331 q 284 160 240 201 q 387 98 328 118 q 515 78 446 78 q 610 86 565 78 q 679 107 654 94 l 679 363 l 469 363 q 461 381 465 369 q 457 407 457 393 q 468 444 457 431 q 500 457 479 457 l 732 457 q 774 441 757 457 q 792 399 792 425 l 792 97 m 564 1014 q 544 965 564 983 q 493 946 525 946 q 442 965 461 946 q 424 1014 424 983 q 442 1065 424 1046 q 493 1083 461 1083 q 544 1065 525 1083 q 564 1014 564 1046 z "},"ġ":{"ha":746,"x_min":71,"x_max":644,"o":"m 533 67 q 469 33 510 47 q 371 19 428 19 q 256 37 310 19 q 160 92 201 54 q 95 192 119 131 q 71 340 71 253 q 94 479 71 419 q 160 579 118 539 q 261 640 203 619 q 390 660 319 660 q 508 644 454 660 q 597 604 561 628 q 631 573 618 590 q 644 531 644 556 l 644 -28 q 622 -145 644 -97 q 558 -223 599 -193 q 461 -267 517 -253 q 342 -281 406 -281 q 222 -266 271 -281 q 154 -240 172 -251 q 113 -181 113 -217 q 122 -148 113 -161 q 144 -128 131 -135 q 226 -169 174 -150 q 342 -187 279 -187 q 484 -148 435 -187 q 533 -21 533 -108 l 533 67 m 383 111 q 474 128 439 111 q 533 168 510 146 l 533 529 q 474 556 510 544 q 390 568 439 568 q 240 511 296 568 q 183 342 183 454 q 199 235 183 279 q 241 164 214 192 q 305 124 268 136 q 383 111 342 111 m 456 843 q 436 794 456 813 q 385 775 417 775 q 334 794 353 775 q 315 843 315 813 q 334 894 315 875 q 385 913 353 913 q 436 894 417 913 q 456 843 456 875 z "},"Ģ":{"ha":888,"x_min":75,"x_max":792,"o":"m 792 97 q 777 56 792 72 q 733 24 763 39 q 638 -6 699 7 q 514 -18 576 -18 q 336 8 417 -18 q 197 89 256 35 q 107 226 139 143 q 75 421 75 308 q 108 615 75 532 q 199 753 142 699 q 333 835 257 808 q 496 863 410 863 q 603 853 554 863 q 688 827 653 843 q 742 792 722 811 q 761 753 761 772 q 750 719 761 733 q 724 699 739 706 q 635 745 686 724 q 503 767 583 767 q 379 744 436 767 q 281 679 322 722 q 215 571 239 636 q 192 421 192 506 q 216 266 192 331 q 284 160 240 201 q 387 98 328 118 q 515 78 446 78 q 610 86 565 78 q 679 107 654 94 l 679 363 l 469 363 q 461 381 465 369 q 457 407 457 393 q 468 444 457 431 q 500 457 479 457 l 732 457 q 774 441 757 457 q 792 399 792 425 l 792 97 m 478 -279 q 425 -304 457 -304 q 382 -286 396 -304 q 418 -187 401 -237 q 439 -96 435 -136 q 489 -86 463 -86 q 526 -97 511 -86 q 540 -128 540 -107 q 535 -166 540 -144 q 519 -208 529 -187 q 499 -248 510 -229 q 478 -279 488 -267 z "},"ģ":{"ha":746,"x_min":71,"x_max":644,"o":"m 386 922 q 439 950 408 950 q 465 944 451 950 q 485 932 478 939 q 447 835 463 885 q 426 742 432 786 q 403 735 415 738 q 379 732 392 732 q 341 741 356 732 q 326 767 326 750 q 332 807 326 785 q 346 851 338 829 q 365 891 354 872 q 386 922 375 910 m 533 67 q 469 33 510 47 q 371 19 428 19 q 256 37 310 19 q 160 92 201 54 q 95 192 119 131 q 71 340 71 253 q 94 479 71 419 q 160 579 118 539 q 261 640 203 619 q 390 660 319 660 q 508 644 454 660 q 597 604 561 628 q 631 573 618 590 q 644 531 644 556 l 644 -28 q 622 -145 644 -97 q 558 -223 599 -193 q 461 -267 517 -253 q 342 -281 406 -281 q 222 -266 271 -281 q 154 -240 172 -251 q 113 -181 113 -217 q 122 -148 113 -161 q 144 -128 131 -135 q 226 -169 174 -150 q 342 -187 279 -187 q 484 -148 435 -187 q 533 -21 533 -108 l 533 67 m 383 111 q 474 128 439 111 q 533 168 510 146 l 533 529 q 474 556 510 544 q 390 568 439 568 q 240 511 296 568 q 183 342 183 454 q 199 235 183 279 q 241 164 214 192 q 305 124 268 136 q 383 111 342 111 z "},"Ĥ":{"ha":896,"x_min":125,"x_max":786,"o":"m 786 3 q 764 -3 778 0 q 733 -7 750 -7 q 672 44 672 -7 l 672 381 l 239 381 l 239 3 q 217 -3 231 0 q 186 -7 203 -7 q 125 44 125 -7 l 125 842 q 147 848 132 844 q 178 851 161 851 q 239 800 239 851 l 239 475 l 672 475 l 672 842 q 694 848 679 844 q 725 851 708 851 q 786 800 786 851 l 786 3 m 453 1043 q 397 985 429 1019 q 325 915 365 951 q 286 930 301 918 q 271 961 271 942 q 281 990 271 976 q 307 1018 292 1003 l 389 1100 q 454 1131 419 1131 q 492 1122 476 1131 q 524 1094 507 1113 l 638 965 q 624 931 638 944 q 590 918 611 918 q 561 926 575 918 q 528 957 547 935 l 453 1043 z "},"ĥ":{"ha":774,"x_min":-51,"x_max":632,"o":"m 189 3 q 168 -3 182 0 q 138 -7 154 -7 q 78 43 78 -7 l 78 900 q 99 906 85 903 q 131 910 114 910 q 189 860 189 910 l 189 610 q 267 644 222 629 q 369 660 313 660 q 476 644 428 660 q 558 598 524 629 q 613 519 593 567 q 632 407 632 471 l 632 3 q 610 -3 625 0 q 581 -7 596 -7 q 521 43 521 -7 l 521 404 q 475 528 521 488 q 354 568 429 568 q 263 551 306 568 q 189 508 221 533 l 189 3 m 131 1050 q 75 992 107 1026 q 3 922 43 958 q -36 937 -21 925 q -51 968 -51 949 q -41 997 -51 983 q -15 1025 -31 1010 l 67 1107 q 132 1138 97 1138 q 169 1128 154 1138 q 201 1101 185 1119 l 315 972 q 302 938 315 951 q 268 925 289 925 q 239 933 253 925 q 206 964 225 942 l 131 1050 z "},"Ħ":{"ha":908,"x_min":33,"x_max":875,"o":"m 790 3 q 768 -3 782 0 q 738 -7 754 -7 q 676 44 676 -7 l 676 381 l 243 381 l 243 3 q 221 -3 235 0 q 190 -7 207 -7 q 129 44 129 -7 l 129 604 l 46 604 q 38 622 42 611 q 33 646 33 632 q 74 690 33 690 l 129 690 l 129 842 q 151 848 136 844 q 182 851 165 851 q 243 800 243 851 l 243 690 l 676 690 l 676 842 q 698 848 683 844 q 729 851 713 851 q 790 800 790 851 l 790 690 l 864 690 q 871 673 867 683 q 875 649 875 663 q 865 614 875 624 q 835 604 854 604 l 790 604 l 790 3 m 676 475 l 676 604 l 243 604 l 243 475 l 676 475 z "},"ħ":{"ha":775,"x_min":7,"x_max":661,"o":"m 107 815 l 107 901 q 128 908 114 904 q 160 911 143 911 q 218 861 218 911 l 218 815 l 364 815 q 373 799 369 808 q 376 775 376 789 q 338 732 376 732 l 218 732 l 218 610 q 297 644 251 629 q 399 660 342 660 q 505 644 457 660 q 588 598 553 629 q 642 519 622 567 q 661 407 661 471 l 661 3 q 640 -3 654 0 q 610 -7 625 -7 q 550 43 550 -7 l 550 404 q 504 528 550 488 q 383 568 458 568 q 292 551 335 568 q 218 508 250 533 l 218 3 q 197 -3 211 0 q 167 -7 183 -7 q 107 43 107 -7 l 107 732 l 18 732 q 11 749 15 739 q 7 772 7 758 q 44 815 7 815 l 107 815 z "},"Ĩ":{"ha":364,"x_min":-22,"x_max":388,"o":"m 238 3 q 217 -3 231 0 q 186 -7 203 -7 q 125 44 125 -7 l 125 842 q 147 848 132 844 q 178 851 161 851 q 238 800 238 851 l 238 3 m 82 1092 q 136 1084 111 1092 q 183 1068 161 1076 q 224 1052 204 1060 q 261 1044 243 1044 q 298 1059 286 1044 q 315 1097 310 1074 l 324 1097 q 368 1085 349 1097 q 388 1044 388 1074 q 360 981 388 1004 q 286 958 332 958 q 231 966 257 958 q 181 983 204 974 q 139 999 158 992 q 103 1007 119 1007 q 67 992 78 1007 q 50 953 56 976 l 42 953 q -3 965 17 953 q -22 1006 -22 978 q 10 1069 -22 1046 q 82 1092 42 1092 z "},"ĩ":{"ha":335,"x_min":-33,"x_max":376,"o":"m 174 -11 q 111 40 111 -11 l 111 638 q 132 643 118 640 q 161 646 146 646 q 222 594 222 646 l 222 -3 q 202 -8 215 -6 q 174 -11 189 -11 m 71 904 q 125 897 100 904 q 172 881 150 889 q 213 865 193 872 q 250 857 232 857 q 287 872 275 857 q 304 910 299 886 l 313 910 q 357 898 338 910 q 376 857 376 886 q 349 794 376 817 q 275 771 321 771 q 219 778 246 771 q 170 795 193 786 q 128 812 147 804 q 92 819 108 819 q 56 804 67 819 q 39 765 44 789 l 31 765 q -14 778 6 765 q -33 818 -33 790 q -1 881 -33 858 q 71 904 31 904 z "},"Ī":{"ha":364,"x_min":-12,"x_max":363,"o":"m 238 3 q 217 -3 231 0 q 186 -7 203 -7 q 125 44 125 -7 l 125 842 q 147 848 132 844 q 178 851 161 851 q 238 800 238 851 l 238 3 m 3 958 q -8 978 -3 967 q -12 1003 -12 989 q 0 1038 -12 1026 q 32 1049 13 1049 l 349 1049 q 358 1028 354 1040 q 363 1004 363 1017 q 318 958 363 958 l 3 958 z "},"ī":{"ha":335,"x_min":-26,"x_max":349,"o":"m 174 -11 q 111 40 111 -11 l 111 638 q 132 643 118 640 q 161 646 146 646 q 222 594 222 646 l 222 -3 q 202 -8 215 -6 q 174 -11 189 -11 m -11 792 q -22 811 -17 800 q -26 836 -26 822 q -14 871 -26 860 q 18 882 -1 882 l 335 882 q 344 862 340 874 q 349 838 349 850 q 304 792 349 792 l -11 792 z "},"Į":{"ha":364,"x_min":88,"x_max":319,"o":"m 238 3 q 202 -37 215 -14 q 189 -92 189 -60 q 213 -156 189 -133 q 278 -178 238 -178 l 311 -178 q 319 -212 319 -193 q 303 -251 319 -236 q 244 -265 286 -265 q 131 -223 174 -265 q 88 -117 88 -181 q 144 1 88 -43 q 125 44 125 13 l 125 842 q 147 848 132 844 q 178 851 161 851 q 238 800 238 851 l 238 3 l 238 3 z "},"į":{"ha":335,"x_min":56,"x_max":272,"o":"m 222 3 q 175 -41 194 -17 q 156 -101 156 -65 q 179 -157 156 -139 q 243 -175 203 -175 l 264 -175 q 272 -207 272 -192 q 257 -243 272 -229 q 204 -257 242 -257 q 147 -248 174 -257 q 99 -222 119 -239 q 67 -180 79 -204 q 56 -124 56 -156 q 77 -44 56 -75 q 125 6 99 -14 q 111 43 111 18 l 111 639 q 133 645 118 642 q 164 649 147 649 q 222 597 222 649 l 222 3 m 94 844 q 115 894 94 874 q 167 914 135 914 q 218 894 199 914 q 238 844 238 874 q 218 795 238 815 q 167 775 199 775 q 115 795 135 775 q 94 844 94 815 z "},"İ":{"ha":364,"x_min":110,"x_max":250,"o":"m 238 3 q 217 -3 231 0 q 186 -7 203 -7 q 125 44 125 -7 l 125 842 q 147 848 132 844 q 178 851 161 851 q 238 800 238 851 l 238 3 m 250 1014 q 231 965 250 983 q 179 946 211 946 q 128 965 147 946 q 110 1014 110 983 q 128 1065 110 1046 q 179 1083 147 1083 q 231 1065 211 1083 q 250 1014 250 1046 z "},"ı":{"ha":335,"x_min":111,"x_max":222,"o":"m 174 -7 q 111 43 111 -7 l 111 640 q 132 646 118 643 q 161 649 146 649 q 222 597 222 649 l 222 1 q 202 -4 215 -1 q 174 -7 189 -7 z "},"Ĵ":{"ha":517,"x_min":22,"x_max":519,"o":"m 286 842 q 308 848 293 844 q 338 851 322 851 q 399 800 399 851 l 399 206 q 381 101 399 143 q 331 33 363 58 q 259 -4 300 7 q 174 -15 218 -15 q 58 3 94 -15 q 22 53 22 22 q 31 86 22 72 q 46 107 39 100 q 96 89 67 97 q 157 81 125 81 q 253 110 219 81 q 286 211 286 140 l 286 842 m 335 1043 q 279 985 311 1019 q 207 915 247 951 q 168 930 183 918 q 153 961 153 942 q 163 990 153 976 q 189 1018 174 1003 l 271 1100 q 336 1131 301 1131 q 374 1122 358 1131 q 406 1094 389 1113 l 519 965 q 506 931 519 944 q 472 918 493 918 q 443 926 457 918 q 410 957 429 935 l 335 1043 z "},"ĵ":{"ha":331,"x_min":-19,"x_max":343,"o":"m 222 -74 q 182 -217 222 -171 q 135 -255 160 -244 q 86 -265 110 -265 q 37 -249 56 -265 q 18 -196 18 -232 l 46 -183 q 96 -140 82 -165 q 110 -61 110 -114 l 110 638 q 131 643 117 640 q 160 646 144 646 q 222 594 222 646 l 222 -74 m 161 858 q 98 787 129 819 q 39 722 67 754 q -3 737 14 725 q -19 768 -19 749 q -11 794 -19 783 q 11 821 -3 806 l 96 913 q 128 936 114 928 q 161 944 142 944 q 197 936 183 944 q 226 911 211 928 l 343 772 q 333 739 343 753 q 300 725 322 725 q 273 733 283 725 q 251 751 263 740 l 161 858 z "},"Ķ":{"ha":774,"x_min":111,"x_max":719,"o":"m 225 403 l 225 1 q 203 -5 217 -1 q 172 -8 189 -8 q 111 43 111 -8 l 111 842 q 133 848 118 844 q 164 851 147 851 q 225 800 225 851 l 225 454 l 607 850 q 661 832 643 849 q 679 793 679 815 q 669 760 679 775 q 642 726 660 744 l 342 432 q 560 212 468 308 q 719 56 653 115 q 701 8 717 25 q 660 -10 685 -10 q 617 3 636 -10 q 579 36 599 17 l 225 403 m 389 -279 q 336 -304 368 -304 q 293 -286 307 -304 q 329 -187 313 -237 q 350 -96 346 -136 q 400 -86 374 -86 q 437 -97 422 -86 q 451 -128 451 -107 q 446 -166 451 -144 q 431 -208 440 -187 q 410 -248 421 -229 q 389 -279 399 -267 z "},"ķ":{"ha":676,"x_min":107,"x_max":633,"o":"m 218 3 q 197 -3 211 0 q 167 -7 183 -7 q 107 43 107 -7 l 107 900 q 128 906 114 903 q 160 910 143 910 q 218 860 218 910 l 218 360 l 522 654 q 574 638 556 653 q 593 600 593 624 q 581 566 593 581 q 547 532 568 551 l 324 336 l 633 58 q 615 10 631 28 q 572 -8 599 -8 q 534 2 551 -8 q 499 32 517 13 l 218 314 l 218 3 m 364 -279 q 311 -304 343 -304 q 268 -286 282 -304 q 304 -187 288 -237 q 325 -96 321 -136 q 375 -86 349 -86 q 412 -97 397 -86 q 426 -128 426 -107 q 421 -166 426 -144 q 406 -208 415 -187 q 385 -248 396 -229 q 364 -279 374 -267 z "},"ĸ":{"ha":676,"x_min":107,"x_max":633,"o":"m 535 654 q 588 638 569 653 q 607 599 607 622 q 593 565 607 581 q 558 532 579 550 l 325 332 l 633 58 q 615 10 631 28 q 572 -8 599 -8 q 535 3 551 -8 q 499 32 518 14 l 218 311 l 218 3 q 197 -3 211 0 q 167 -7 183 -7 q 107 43 107 -7 l 107 640 q 128 646 114 643 q 157 649 142 649 q 218 597 218 649 l 218 357 l 535 654 z "},"Ĺ":{"ha":696,"x_min":124,"x_max":651,"o":"m 185 0 q 141 17 158 0 q 124 61 124 33 l 124 842 q 145 848 131 844 q 176 851 160 851 q 238 800 238 851 l 238 97 l 636 97 q 651 51 651 82 q 639 14 651 28 q 606 0 626 0 l 185 0 m 292 1139 q 338 1123 322 1138 q 354 1089 354 1108 q 347 1057 354 1069 q 319 1028 339 1044 l 201 922 q 160 936 175 925 q 146 964 146 947 q 151 988 146 978 q 165 1006 157 997 l 292 1139 z "},"ĺ":{"ha":342,"x_min":115,"x_max":336,"o":"m 274 1182 q 320 1166 304 1181 q 336 1132 336 1151 q 328 1100 336 1113 q 301 1071 321 1088 l 183 965 q 142 979 157 968 q 128 1007 128 990 q 133 1031 128 1021 q 147 1049 139 1040 l 274 1182 m 226 3 q 206 -3 219 0 q 175 -7 192 -7 q 115 43 115 -7 l 115 900 q 137 906 122 903 q 167 910 151 910 q 226 860 226 910 l 226 3 z "},"Ļ":{"ha":696,"x_min":124,"x_max":651,"o":"m 185 0 q 141 17 158 0 q 124 61 124 33 l 124 842 q 145 848 131 844 q 176 851 160 851 q 238 800 238 851 l 238 97 l 636 97 q 651 51 651 82 q 639 14 651 28 q 606 0 626 0 l 185 0 m 376 -279 q 324 -304 356 -304 q 281 -286 294 -304 q 317 -187 300 -237 q 338 -96 333 -136 q 388 -86 361 -86 q 424 -97 410 -86 q 439 -128 439 -107 q 433 -166 439 -144 q 418 -208 428 -187 q 397 -248 408 -229 q 376 -279 386 -267 z "},"ļ":{"ha":342,"x_min":64,"x_max":226,"o":"m 226 3 q 206 -3 219 0 q 175 -7 192 -7 q 115 43 115 -7 l 115 900 q 137 906 122 903 q 167 910 151 910 q 226 860 226 910 l 226 3 m 160 -279 q 107 -304 139 -304 q 64 -286 78 -304 q 100 -187 83 -237 q 121 -96 117 -136 q 171 -86 144 -86 q 208 -97 193 -86 q 222 -128 222 -107 q 217 -166 222 -144 q 201 -208 211 -187 q 181 -248 192 -229 q 160 -279 169 -267 z "},"Ľ":{"ha":696,"x_min":124,"x_max":651,"o":"m 185 0 q 141 17 158 0 q 124 61 124 33 l 124 842 q 145 848 131 844 q 176 851 160 851 q 238 800 238 851 l 238 97 l 636 97 q 651 51 651 82 q 639 14 651 28 q 606 0 626 0 l 185 0 m 482 658 q 429 633 461 633 q 386 651 400 633 q 422 751 406 700 q 443 842 439 801 q 493 851 467 851 q 530 841 515 851 q 544 810 544 831 q 539 772 544 793 q 524 729 533 750 q 503 690 514 708 q 482 658 492 671 z "},"ľ":{"ha":440,"x_min":115,"x_max":454,"o":"m 226 3 q 206 -3 219 0 q 175 -7 192 -7 q 115 43 115 -7 l 115 900 q 137 906 122 903 q 167 910 151 910 q 226 860 226 910 l 226 3 m 392 717 q 339 692 371 692 q 296 710 310 692 q 332 809 315 758 q 353 900 349 860 q 403 910 376 910 q 440 899 425 910 q 454 868 454 889 q 449 830 454 851 q 433 788 443 808 q 413 748 424 767 q 392 717 401 729 z "},"Ŀ":{"ha":696,"x_min":124,"x_max":651,"o":"m 185 0 q 141 17 158 0 q 124 61 124 33 l 124 842 q 145 848 131 844 q 176 851 160 851 q 238 800 238 851 l 238 97 l 636 97 q 651 51 651 82 q 639 14 651 28 q 606 0 626 0 l 185 0 m 440 444 q 460 500 440 478 q 517 522 481 522 q 572 500 553 522 q 592 444 592 478 q 572 390 592 413 q 517 368 553 368 q 460 390 481 368 q 440 444 440 413 z "},"ŀ":{"ha":439,"x_min":115,"x_max":467,"o":"m 226 3 q 206 -3 219 0 q 175 -7 192 -7 q 115 43 115 -7 l 115 900 q 137 906 122 903 q 167 910 151 910 q 226 860 226 910 l 226 3 m 315 419 q 335 475 315 453 q 392 497 356 497 q 447 475 428 497 q 467 419 467 453 q 447 365 467 388 q 392 343 428 343 q 335 365 356 343 q 315 419 315 388 z "},"Ł":{"ha":724,"x_min":14,"x_max":693,"o":"m 226 0 q 183 17 200 0 q 165 61 165 33 l 165 356 l 51 310 q 26 335 39 319 q 14 371 14 350 q 43 411 14 399 l 165 460 l 165 842 q 187 848 172 844 q 218 851 201 851 q 279 800 279 851 l 279 504 l 486 588 q 511 563 499 579 q 524 528 524 547 q 494 488 524 499 l 279 401 l 279 97 l 678 97 q 693 51 693 82 q 681 14 693 28 q 647 0 668 0 l 226 0 l 226 0 z "},"ł":{"ha":451,"x_min":14,"x_max":438,"o":"m 281 3 q 260 -3 274 0 q 229 -7 246 -7 q 169 43 169 -7 l 169 379 l 51 332 q 26 356 39 340 q 14 393 14 372 q 43 432 14 421 l 169 483 l 169 900 q 191 906 176 903 q 221 910 206 910 q 281 860 281 910 l 281 528 l 401 578 q 426 553 414 569 q 438 517 438 538 q 410 478 438 489 l 281 425 l 281 3 l 281 3 z "},"Ń":{"ha":904,"x_min":121,"x_max":790,"o":"m 182 -7 q 121 43 121 -7 l 121 828 q 196 853 146 853 q 253 840 229 853 q 296 792 276 826 l 561 347 q 596 285 578 318 q 631 220 614 253 q 662 159 647 188 q 686 111 676 131 l 692 113 q 678 339 681 225 q 676 561 676 453 l 676 842 q 699 848 685 844 q 729 851 713 851 q 790 801 790 851 l 790 15 q 758 -2 778 4 q 715 -8 739 -8 q 658 5 682 -8 q 615 53 635 18 l 351 497 q 316 558 335 525 q 280 624 297 592 q 248 685 263 656 q 224 733 233 714 l 218 732 q 229 580 225 665 q 233 418 233 494 l 233 3 q 212 -3 226 0 q 182 -7 197 -7 m 572 1139 q 619 1123 603 1138 q 635 1089 635 1108 q 627 1057 635 1069 q 600 1028 619 1044 l 482 922 q 441 936 456 925 q 426 964 426 947 q 432 988 426 978 q 446 1006 438 997 l 572 1139 z "},"ń":{"ha":764,"x_min":104,"x_max":660,"o":"m 549 418 q 505 532 549 496 q 388 568 461 568 q 289 554 332 568 q 215 522 246 540 l 215 3 q 194 -3 208 0 q 164 -7 181 -7 q 104 43 104 -7 l 104 517 q 116 565 104 546 q 157 601 128 583 q 253 642 193 624 q 388 660 313 660 q 587 603 514 660 q 660 424 660 546 l 660 3 q 638 -3 653 0 q 608 -7 624 -7 q 549 43 549 -7 l 549 418 m 499 954 q 548 937 529 953 q 567 901 567 921 q 558 870 567 882 q 531 840 550 858 l 404 717 q 360 731 376 717 q 343 764 343 746 q 350 785 343 775 q 364 803 357 794 l 499 954 z "},"Ņ":{"ha":904,"x_min":121,"x_max":790,"o":"m 182 -7 q 121 43 121 -7 l 121 828 q 196 853 146 853 q 253 840 229 853 q 296 792 276 826 l 561 347 q 596 285 578 318 q 631 220 614 253 q 662 159 647 188 q 686 111 676 131 l 692 113 q 678 339 681 225 q 676 561 676 453 l 676 842 q 699 848 685 844 q 729 851 713 851 q 790 801 790 851 l 790 15 q 758 -2 778 4 q 715 -8 739 -8 q 658 5 682 -8 q 615 53 635 18 l 351 497 q 316 558 335 525 q 280 624 297 592 q 248 685 263 656 q 224 733 233 714 l 218 732 q 229 580 225 665 q 233 418 233 494 l 233 3 q 212 -3 226 0 q 182 -7 197 -7 m 464 -279 q 411 -304 443 -304 q 368 -286 382 -304 q 404 -187 388 -237 q 425 -96 421 -136 q 475 -86 449 -86 q 512 -97 497 -86 q 526 -128 526 -107 q 521 -166 526 -144 q 506 -208 515 -187 q 485 -248 496 -229 q 464 -279 474 -267 z "},"ņ":{"ha":764,"x_min":104,"x_max":660,"o":"m 549 418 q 505 532 549 496 q 388 568 461 568 q 289 554 332 568 q 215 522 246 540 l 215 3 q 194 -3 208 0 q 164 -7 181 -7 q 104 43 104 -7 l 104 517 q 116 565 104 546 q 157 601 128 583 q 253 642 193 624 q 388 660 313 660 q 587 603 514 660 q 660 424 660 546 l 660 3 q 638 -3 653 0 q 608 -7 624 -7 q 549 43 549 -7 l 549 418 m 378 -279 q 325 -304 357 -304 q 282 -286 296 -304 q 318 -187 301 -237 q 339 -96 335 -136 q 389 -86 363 -86 q 426 -97 411 -86 q 440 -128 440 -107 q 435 -166 440 -144 q 419 -208 429 -187 q 399 -248 410 -229 q 378 -279 388 -267 z "},"Ň":{"ha":904,"x_min":121,"x_max":790,"o":"m 182 -7 q 121 43 121 -7 l 121 828 q 196 853 146 853 q 253 840 229 853 q 296 792 276 826 l 561 347 q 596 285 578 318 q 631 220 614 253 q 662 159 647 188 q 686 111 676 131 l 692 113 q 678 339 681 225 q 676 561 676 453 l 676 842 q 699 848 685 844 q 729 851 713 851 q 790 801 790 851 l 790 15 q 758 -2 778 4 q 715 -8 739 -8 q 658 5 682 -8 q 615 53 635 18 l 351 497 q 316 558 335 525 q 280 624 297 592 q 248 685 263 656 q 224 733 233 714 l 218 732 q 229 580 225 665 q 233 418 233 494 l 233 3 q 212 -3 226 0 q 182 -7 197 -7 m 588 1131 q 631 1116 613 1128 q 649 1085 649 1104 q 638 1056 649 1068 q 613 1028 628 1043 l 529 944 q 499 923 514 929 q 465 917 485 917 q 428 925 444 917 q 397 951 413 933 l 282 1074 q 294 1114 282 1100 q 328 1128 307 1128 q 357 1119 343 1128 q 390 1089 371 1111 l 465 1001 l 588 1131 z "},"ň":{"ha":764,"x_min":104,"x_max":660,"o":"m 549 418 q 505 532 549 496 q 388 568 461 568 q 289 554 332 568 q 215 522 246 540 l 215 3 q 194 -3 208 0 q 164 -7 181 -7 q 104 43 104 -7 l 104 517 q 116 565 104 546 q 157 601 128 583 q 253 642 193 624 q 388 660 313 660 q 587 603 514 660 q 660 424 660 546 l 660 3 q 638 -3 653 0 q 608 -7 624 -7 q 549 43 549 -7 l 549 418 m 374 810 l 496 944 q 540 929 524 942 q 556 897 556 917 q 546 869 556 882 q 521 840 536 857 l 433 751 q 406 731 419 738 q 372 724 392 724 q 337 733 353 724 q 304 760 321 742 l 186 889 q 199 926 186 910 q 232 942 211 942 q 262 934 250 942 q 289 908 274 926 l 374 810 z "},"ŉ":{"ha":871,"x_min":14,"x_max":767,"o":"m 656 418 q 612 532 656 496 q 494 568 568 568 q 396 554 439 568 q 322 522 353 540 l 322 3 q 301 -3 315 0 q 271 -7 288 -7 q 211 43 211 -7 l 211 517 q 223 565 211 546 q 264 601 235 583 q 360 642 300 624 q 494 660 419 660 q 694 603 621 660 q 767 424 767 546 l 767 3 q 745 -3 760 0 q 715 -7 731 -7 q 656 43 656 -7 l 656 418 m 110 607 q 89 578 100 588 q 58 569 78 569 q 34 574 46 569 q 14 585 22 578 q 24 645 18 611 q 35 717 31 679 q 44 791 40 754 q 51 860 49 828 q 104 868 76 868 q 142 855 128 868 q 157 814 157 842 q 152 764 157 793 q 140 705 147 735 q 124 649 132 675 q 110 607 115 622 z "},"Ō":{"ha":957,"x_min":75,"x_max":881,"o":"m 881 422 q 850 231 881 314 q 765 94 819 149 q 638 10 711 39 q 478 -18 564 -18 q 318 10 392 -18 q 190 94 244 39 q 106 231 136 149 q 75 422 75 314 q 106 613 75 531 q 192 750 138 694 q 319 834 246 806 q 478 863 393 863 q 636 834 563 863 q 764 750 710 806 q 849 613 818 694 q 881 422 881 531 m 765 422 q 687 678 765 589 q 478 767 608 767 q 360 744 413 767 q 269 677 307 721 q 212 569 232 633 q 192 422 192 506 q 269 167 192 256 q 478 78 347 78 q 688 167 610 78 q 765 422 765 256 m 299 958 q 288 978 293 967 q 283 1003 283 989 q 296 1038 283 1026 q 328 1049 308 1049 l 644 1049 q 654 1028 650 1040 q 658 1004 658 1017 q 614 958 658 958 l 299 958 z "},"ō":{"ha":768,"x_min":68,"x_max":700,"o":"m 700 321 q 678 181 700 243 q 615 74 656 118 q 515 6 574 29 q 385 -18 457 -18 q 254 6 313 -18 q 154 74 196 29 q 90 181 113 118 q 68 321 68 243 q 91 461 68 399 q 156 568 114 524 q 256 636 197 613 q 385 660 314 660 q 514 636 456 660 q 613 568 572 613 q 677 461 654 524 q 700 321 700 399 m 385 568 q 236 503 290 568 q 182 321 182 438 q 235 138 182 203 q 385 74 289 74 q 533 139 481 74 q 586 321 586 204 q 533 503 586 438 q 385 568 479 568 m 214 792 q 203 811 208 800 q 199 836 199 822 q 211 871 199 860 q 243 882 224 882 l 560 882 q 569 862 565 874 q 574 838 574 850 q 529 792 574 792 l 214 792 z "},"Ő":{"ha":957,"x_min":75,"x_max":881,"o":"m 881 422 q 850 231 881 314 q 765 94 819 149 q 638 10 711 39 q 478 -18 564 -18 q 318 10 392 -18 q 190 94 244 39 q 106 231 136 149 q 75 422 75 314 q 106 613 75 531 q 192 750 138 694 q 319 834 246 806 q 478 863 393 863 q 636 834 563 863 q 764 750 710 806 q 849 613 818 694 q 881 422 881 531 m 765 422 q 687 678 765 589 q 478 767 608 767 q 360 744 413 767 q 269 677 307 721 q 212 569 232 633 q 192 422 192 506 q 269 167 192 256 q 478 78 347 78 q 688 167 610 78 q 765 422 765 256 m 424 1136 q 472 1121 454 1135 q 490 1088 490 1107 q 481 1056 490 1069 q 456 1022 472 1042 l 372 922 q 328 935 344 922 q 313 967 313 949 q 317 989 313 979 q 329 1008 322 999 l 424 1136 m 658 1136 q 707 1121 689 1135 q 725 1088 725 1107 q 715 1055 725 1068 q 690 1022 706 1042 l 607 922 q 563 935 579 922 q 547 967 547 949 q 552 989 547 979 q 564 1008 557 999 l 658 1136 z "},"ő":{"ha":768,"x_min":68,"x_max":700,"o":"m 700 321 q 678 181 700 243 q 615 74 656 118 q 515 6 574 29 q 385 -18 457 -18 q 254 6 313 -18 q 154 74 196 29 q 90 181 113 118 q 68 321 68 243 q 91 461 68 399 q 156 568 114 524 q 256 636 197 613 q 385 660 314 660 q 514 636 456 660 q 613 568 572 613 q 677 461 654 524 q 700 321 700 399 m 385 568 q 236 503 290 568 q 182 321 182 438 q 235 138 182 203 q 385 74 289 74 q 533 139 481 74 q 586 321 586 204 q 533 503 586 438 q 385 568 479 568 m 346 954 q 394 939 376 953 q 413 906 413 925 q 403 873 413 886 q 378 840 393 860 l 279 717 q 235 730 251 717 q 218 761 218 743 q 224 783 218 774 q 236 803 229 793 l 346 954 m 579 954 q 628 939 610 953 q 646 906 646 925 q 636 873 646 886 q 611 840 626 860 l 513 717 q 469 730 485 717 q 453 761 453 743 q 458 783 453 774 q 469 803 463 793 l 579 954 z "},"Œ":{"ha":1324,"x_min":74,"x_max":1251,"o":"m 772 0 q 727 17 743 0 q 711 61 711 33 l 710 83 q 600 6 664 31 q 461 -18 536 -18 q 308 10 379 -18 q 185 92 238 38 q 103 230 133 147 q 74 422 74 313 q 104 613 74 531 q 188 750 135 694 q 311 834 240 806 q 463 863 382 863 q 597 840 533 863 q 710 764 661 818 l 711 783 q 727 828 711 811 q 772 844 743 844 l 1232 844 q 1240 826 1236 838 q 1244 800 1244 814 q 1233 763 1244 776 q 1201 749 1222 749 l 824 749 l 824 481 l 1189 481 q 1198 462 1193 474 q 1203 436 1203 450 q 1191 399 1203 413 q 1160 386 1179 386 l 824 386 l 824 94 l 1239 94 q 1247 76 1243 88 q 1251 50 1251 65 q 1240 13 1251 26 q 1208 0 1229 0 l 772 0 m 710 619 q 610 730 674 693 q 464 767 546 767 q 353 744 403 767 q 267 677 303 721 q 210 569 231 633 q 190 422 190 506 q 265 167 190 256 q 464 78 340 78 q 710 219 640 78 l 710 619 z "},"œ":{"ha":1232,"x_min":68,"x_max":1176,"o":"m 381 660 q 534 624 468 660 q 639 518 600 588 q 741 624 676 588 q 889 660 806 660 q 1004 639 951 660 q 1095 580 1057 618 q 1155 490 1133 542 q 1176 375 1176 438 q 1162 331 1176 344 q 1122 315 1147 318 l 694 256 q 773 119 713 165 q 933 74 833 74 q 1039 93 992 74 q 1114 135 1086 113 q 1139 112 1129 125 q 1149 82 1149 99 q 1131 44 1149 63 q 1083 13 1114 26 q 1013 -10 1053 -1 q 928 -18 974 -18 q 754 17 828 -18 q 639 125 681 51 q 535 19 601 56 q 381 -18 468 -18 q 251 6 308 -18 q 152 74 193 29 q 90 181 111 118 q 68 321 68 243 q 90 461 68 399 q 153 568 113 524 q 252 636 194 613 q 381 660 310 660 m 385 568 q 236 503 290 568 q 182 321 182 438 q 235 138 182 203 q 385 74 289 74 q 533 139 481 74 q 586 321 586 204 q 533 503 586 438 q 385 568 479 568 m 888 569 q 746 510 801 569 q 688 343 690 451 l 1071 394 q 1017 520 1064 471 q 888 569 971 569 z "},"Ŕ":{"ha":818,"x_min":124,"x_max":760,"o":"m 238 3 q 215 -3 229 0 q 185 -7 201 -7 q 124 44 124 -7 l 124 783 q 135 817 124 806 q 169 836 146 829 q 269 854 210 849 q 383 860 328 860 q 644 790 558 860 q 729 590 729 719 q 680 429 729 494 q 531 336 631 364 q 600 247 565 292 q 666 163 635 203 q 722 92 697 124 q 760 42 746 60 q 735 4 754 18 q 697 -10 717 -10 q 658 1 674 -10 q 626 36 643 13 l 424 319 l 238 319 l 238 3 m 396 414 q 557 458 499 414 q 615 590 615 503 q 554 722 615 678 q 379 765 493 765 q 303 762 342 765 q 236 753 265 758 l 236 414 l 396 414 m 513 1139 q 559 1123 543 1138 q 575 1089 575 1108 q 567 1057 575 1069 q 540 1028 560 1044 l 422 922 q 381 936 396 925 q 367 964 367 947 q 372 988 367 978 q 386 1006 378 997 l 513 1139 z "},"ŕ":{"ha":531,"x_min":104,"x_max":504,"o":"m 215 3 q 194 -3 208 0 q 164 -7 181 -7 q 104 43 104 -7 l 104 514 q 116 565 104 546 q 156 601 128 583 q 253 642 192 625 q 393 660 315 660 q 504 604 504 660 q 500 578 504 590 q 489 558 496 567 q 453 564 475 561 q 408 567 431 567 q 296 553 344 567 q 215 522 247 540 l 215 3 m 400 954 q 449 937 431 953 q 468 901 468 921 q 460 870 468 882 q 432 840 451 858 l 306 717 q 261 731 278 717 q 244 764 244 746 q 251 785 244 775 q 265 803 258 794 l 400 954 z "},"Ŗ":{"ha":818,"x_min":124,"x_max":760,"o":"m 238 3 q 215 -3 229 0 q 185 -7 201 -7 q 124 44 124 -7 l 124 783 q 135 817 124 806 q 169 836 146 829 q 269 854 210 849 q 383 860 328 860 q 644 790 558 860 q 729 590 729 719 q 680 429 729 494 q 531 336 631 364 q 600 247 565 292 q 666 163 635 203 q 722 92 697 124 q 760 42 746 60 q 735 4 754 18 q 697 -10 717 -10 q 658 1 674 -10 q 626 36 643 13 l 424 319 l 238 319 l 238 3 m 396 414 q 557 458 499 414 q 615 590 615 503 q 554 722 615 678 q 379 765 493 765 q 303 762 342 765 q 236 753 265 758 l 236 414 l 396 414 m 418 -279 q 365 -304 397 -304 q 322 -286 336 -304 q 358 -187 342 -237 q 379 -96 375 -136 q 429 -86 403 -86 q 466 -97 451 -86 q 481 -128 481 -107 q 475 -166 481 -144 q 460 -208 469 -187 q 439 -248 450 -229 q 418 -279 428 -267 z "},"ŗ":{"ha":531,"x_min":56,"x_max":504,"o":"m 215 3 q 194 -3 208 0 q 164 -7 181 -7 q 104 43 104 -7 l 104 514 q 116 565 104 546 q 156 601 128 583 q 253 642 192 625 q 393 660 315 660 q 504 604 504 660 q 500 578 504 590 q 489 558 496 567 q 453 564 475 561 q 408 567 431 567 q 296 553 344 567 q 215 522 247 540 l 215 3 m 151 -279 q 99 -304 131 -304 q 56 -286 69 -304 q 92 -187 75 -237 q 113 -96 108 -136 q 163 -86 136 -86 q 199 -97 185 -86 q 214 -128 214 -107 q 208 -166 214 -144 q 193 -208 203 -187 q 172 -248 183 -229 q 151 -279 161 -267 z "},"Ř":{"ha":818,"x_min":124,"x_max":760,"o":"m 238 3 q 215 -3 229 0 q 185 -7 201 -7 q 124 44 124 -7 l 124 783 q 135 817 124 806 q 169 836 146 829 q 269 854 210 849 q 383 860 328 860 q 644 790 558 860 q 729 590 729 719 q 680 429 729 494 q 531 336 631 364 q 600 247 565 292 q 666 163 635 203 q 722 92 697 124 q 760 42 746 60 q 735 4 754 18 q 697 -10 717 -10 q 658 1 674 -10 q 626 36 643 13 l 424 319 l 238 319 l 238 3 m 396 414 q 557 458 499 414 q 615 590 615 503 q 554 722 615 678 q 379 765 493 765 q 303 762 342 765 q 236 753 265 758 l 236 414 l 396 414 m 533 1131 q 576 1116 558 1128 q 594 1085 594 1104 q 584 1056 594 1068 q 558 1028 574 1043 l 475 944 q 445 923 460 929 q 411 917 431 917 q 374 925 390 917 q 343 951 358 933 l 228 1074 q 240 1114 228 1100 q 274 1128 253 1128 q 303 1119 289 1128 q 336 1089 317 1111 l 411 1001 l 533 1131 z "},"ř":{"ha":531,"x_min":104,"x_max":504,"o":"m 215 3 q 194 -3 208 0 q 164 -7 181 -7 q 104 43 104 -7 l 104 514 q 116 565 104 546 q 156 601 128 583 q 253 642 192 625 q 393 660 315 660 q 504 604 504 660 q 500 578 504 590 q 489 558 496 567 q 453 564 475 561 q 408 567 431 567 q 296 553 344 567 q 215 522 247 540 l 215 3 m 303 810 l 425 944 q 469 929 453 942 q 485 897 485 917 q 475 869 485 882 q 450 840 465 857 l 363 751 q 335 731 349 738 q 301 724 321 724 q 266 733 282 724 q 233 760 250 742 l 115 889 q 128 926 115 910 q 161 942 140 942 q 191 934 179 942 q 218 908 203 926 l 303 810 z "},"Ś":{"ha":726,"x_min":75,"x_max":661,"o":"m 357 76 q 498 119 450 76 q 546 228 546 161 q 509 322 546 286 q 393 382 472 358 l 272 418 q 133 496 183 444 q 82 635 82 547 q 102 730 82 688 q 160 801 122 772 q 249 847 197 831 q 367 863 301 863 q 470 853 422 863 q 553 828 518 844 q 608 793 589 813 q 628 753 628 774 q 618 719 628 733 q 593 697 608 706 q 499 746 557 725 q 371 767 442 767 q 242 732 289 767 q 196 635 196 697 q 229 556 196 586 q 340 503 263 525 l 425 478 q 598 388 535 446 q 661 228 661 331 q 582 50 661 118 q 357 -18 503 -18 q 241 -7 293 -18 q 152 22 189 4 q 95 62 115 40 q 75 104 75 83 q 90 144 75 128 q 124 167 104 160 q 161 135 139 151 q 213 106 183 119 q 278 85 242 93 q 357 76 314 76 m 457 1139 q 503 1123 488 1138 q 519 1089 519 1108 q 512 1057 519 1069 q 485 1028 504 1044 l 367 922 q 326 936 340 925 q 311 964 311 947 q 317 988 311 978 q 331 1006 322 997 l 457 1139 z "},"ś":{"ha":621,"x_min":64,"x_max":557,"o":"m 557 171 q 492 32 557 82 q 303 -18 426 -18 q 206 -9 250 -18 q 130 15 161 0 q 81 48 99 29 q 64 86 64 67 q 73 118 64 103 q 100 144 82 133 q 188 95 138 117 q 301 74 238 74 q 446 171 446 74 q 350 274 446 250 l 235 304 q 111 369 150 326 q 72 478 72 411 q 87 547 72 514 q 132 606 101 581 q 208 645 163 631 q 314 660 253 660 q 471 631 411 660 q 531 565 531 603 q 522 533 531 547 q 497 513 513 519 q 426 549 472 529 q 318 568 381 568 q 219 544 256 568 q 182 478 182 521 q 203 424 182 446 q 272 390 224 401 l 368 367 q 510 297 463 343 q 557 171 557 250 m 413 954 q 462 937 443 953 q 481 901 481 921 q 472 870 481 882 q 444 840 464 858 l 318 717 q 274 731 290 717 q 257 764 257 746 q 264 785 257 775 q 278 803 271 794 l 413 954 z "},"Ŝ":{"ha":726,"x_min":75,"x_max":661,"o":"m 357 76 q 498 119 450 76 q 546 228 546 161 q 509 322 546 286 q 393 382 472 358 l 272 418 q 133 496 183 444 q 82 635 82 547 q 102 730 82 688 q 160 801 122 772 q 249 847 197 831 q 367 863 301 863 q 470 853 422 863 q 553 828 518 844 q 608 793 589 813 q 628 753 628 774 q 618 719 628 733 q 593 697 608 706 q 499 746 557 725 q 371 767 442 767 q 242 732 289 767 q 196 635 196 697 q 229 556 196 586 q 340 503 263 525 l 425 478 q 598 388 535 446 q 661 228 661 331 q 582 50 661 118 q 357 -18 503 -18 q 241 -7 293 -18 q 152 22 189 4 q 95 62 115 40 q 75 104 75 83 q 90 144 75 128 q 124 167 104 160 q 161 135 139 151 q 213 106 183 119 q 278 85 242 93 q 357 76 314 76 m 376 1043 q 321 985 353 1019 q 249 915 289 951 q 210 930 225 918 q 194 961 194 942 q 205 990 194 976 q 231 1018 215 1003 l 313 1100 q 378 1131 343 1131 q 415 1122 400 1131 q 447 1094 431 1113 l 561 965 q 548 931 561 944 q 514 918 535 918 q 485 926 499 918 q 451 957 471 935 l 376 1043 z "},"ŝ":{"ha":621,"x_min":64,"x_max":557,"o":"m 557 171 q 492 32 557 82 q 303 -18 426 -18 q 206 -9 250 -18 q 130 15 161 0 q 81 48 99 29 q 64 86 64 67 q 73 118 64 103 q 100 144 82 133 q 188 95 138 117 q 301 74 238 74 q 446 171 446 74 q 350 274 446 250 l 235 304 q 111 369 150 326 q 72 478 72 411 q 87 547 72 514 q 132 606 101 581 q 208 645 163 631 q 314 660 253 660 q 471 631 411 660 q 531 565 531 603 q 522 533 531 547 q 497 513 513 519 q 426 549 472 529 q 318 568 381 568 q 219 544 256 568 q 182 478 182 521 q 203 424 182 446 q 272 390 224 401 l 368 367 q 510 297 463 343 q 557 171 557 250 m 311 858 q 248 787 279 819 q 189 722 217 754 q 147 737 164 725 q 131 768 131 749 q 139 794 131 783 q 161 821 147 806 l 246 913 q 278 936 264 928 q 311 944 292 944 q 347 936 333 944 q 376 911 361 928 l 493 772 q 483 739 493 753 q 450 725 472 725 q 423 733 433 725 q 401 751 413 740 l 311 858 z "},"Ş":{"ha":726,"x_min":75,"x_max":661,"o":"m 357 76 q 498 119 450 76 q 546 228 546 161 q 509 322 546 286 q 393 382 472 358 l 272 418 q 133 496 183 444 q 82 635 82 547 q 102 730 82 688 q 160 801 122 772 q 249 847 197 831 q 367 863 301 863 q 470 853 422 863 q 553 828 518 844 q 608 793 589 813 q 628 753 628 774 q 618 719 628 733 q 593 697 608 706 q 499 746 557 725 q 371 767 442 767 q 242 732 289 767 q 196 635 196 697 q 229 556 196 586 q 340 503 263 525 l 425 478 q 598 388 535 446 q 661 228 661 331 q 599 65 661 131 q 419 -14 536 0 q 451 -118 451 -58 q 410 -224 451 -185 q 301 -262 368 -262 q 229 -212 229 -262 q 238 -179 229 -194 l 258 -179 q 331 -158 308 -179 q 354 -100 354 -136 q 348 -59 354 -81 q 326 -17 342 -37 q 223 -2 269 -14 q 144 26 176 10 q 93 64 111 43 q 75 104 75 85 q 90 144 75 128 q 124 167 104 160 q 161 135 139 151 q 213 106 183 119 q 278 85 242 93 q 357 76 314 76 z "},"ş":{"ha":621,"x_min":64,"x_max":557,"o":"m 557 171 q 513 51 557 97 q 382 -11 468 4 q 417 -118 417 -56 q 375 -224 417 -185 q 267 -262 333 -262 q 194 -212 194 -262 q 203 -179 194 -194 l 224 -179 q 297 -158 274 -179 q 319 -100 319 -136 q 313 -60 319 -81 q 292 -18 307 -39 q 199 -8 240 -17 q 127 16 157 1 q 81 49 97 31 q 64 86 64 67 q 73 118 64 103 q 100 144 82 133 q 188 95 138 117 q 301 74 238 74 q 446 171 446 74 q 350 274 446 250 l 235 304 q 111 369 150 326 q 72 478 72 411 q 87 547 72 514 q 132 606 101 581 q 208 645 163 631 q 314 660 253 660 q 471 631 411 660 q 531 565 531 603 q 522 533 531 547 q 497 513 513 519 q 426 549 472 529 q 318 568 381 568 q 219 544 256 568 q 182 478 182 521 q 203 424 182 446 q 272 390 224 401 l 368 367 q 510 297 463 343 q 557 171 557 250 z "},"Š":{"ha":726,"x_min":75,"x_max":661,"o":"m 357 76 q 498 119 450 76 q 546 228 546 161 q 509 322 546 286 q 393 382 472 358 l 272 418 q 133 496 183 444 q 82 635 82 547 q 102 730 82 688 q 160 801 122 772 q 249 847 197 831 q 367 863 301 863 q 470 853 422 863 q 553 828 518 844 q 608 793 589 813 q 628 753 628 774 q 618 719 628 733 q 593 697 608 706 q 499 746 557 725 q 371 767 442 767 q 242 732 289 767 q 196 635 196 697 q 229 556 196 586 q 340 503 263 525 l 425 478 q 598 388 535 446 q 661 228 661 331 q 582 50 661 118 q 357 -18 503 -18 q 241 -7 293 -18 q 152 22 189 4 q 95 62 115 40 q 75 104 75 83 q 90 144 75 128 q 124 167 104 160 q 161 135 139 151 q 213 106 183 119 q 278 85 242 93 q 357 76 314 76 m 490 1131 q 533 1116 515 1128 q 551 1085 551 1104 q 541 1056 551 1068 q 515 1028 531 1043 l 432 944 q 402 923 417 929 q 368 917 388 917 q 331 925 347 917 q 300 951 315 933 l 185 1074 q 197 1114 185 1100 q 231 1128 210 1128 q 260 1119 246 1128 q 293 1089 274 1111 l 368 1001 l 490 1131 z "},"š":{"ha":621,"x_min":64,"x_max":557,"o":"m 557 171 q 492 32 557 82 q 303 -18 426 -18 q 206 -9 250 -18 q 130 15 161 0 q 81 48 99 29 q 64 86 64 67 q 73 118 64 103 q 100 144 82 133 q 188 95 138 117 q 301 74 238 74 q 446 171 446 74 q 350 274 446 250 l 235 304 q 111 369 150 326 q 72 478 72 411 q 87 547 72 514 q 132 606 101 581 q 208 645 163 631 q 314 660 253 660 q 471 631 411 660 q 531 565 531 603 q 522 533 531 547 q 497 513 513 519 q 426 549 472 529 q 318 568 381 568 q 219 544 256 568 q 182 478 182 521 q 203 424 182 446 q 272 390 224 401 l 368 367 q 510 297 463 343 q 557 171 557 250 m 311 810 l 433 944 q 477 929 461 942 q 493 897 493 917 q 483 869 493 882 q 458 840 474 857 l 371 751 q 343 731 357 738 q 310 724 329 724 q 274 733 290 724 q 242 760 258 742 l 124 889 q 136 926 124 910 q 169 942 149 942 q 199 934 188 942 q 226 908 211 926 l 311 810 z "},"Ț":{"ha":726,"x_min":35,"x_max":692,"o":"m 419 749 l 419 3 q 398 -3 413 0 q 368 -7 383 -7 q 307 44 307 -7 l 307 749 l 47 749 q 39 767 43 756 q 35 794 35 779 q 46 831 35 818 q 78 844 57 844 l 679 844 q 688 826 683 838 q 692 800 692 814 q 681 763 692 776 q 649 749 669 749 l 419 749 m 354 -279 q 301 -304 333 -304 q 258 -286 272 -304 q 294 -187 278 -237 q 315 -96 311 -136 q 365 -86 339 -86 q 402 -97 388 -86 q 417 -128 417 -107 q 411 -166 417 -144 q 396 -208 406 -187 q 375 -248 386 -229 q 354 -279 364 -267 z "},"ț":{"ha":517,"x_min":106,"x_max":460,"o":"m 324 -18 q 166 25 226 -18 q 106 168 106 68 l 106 828 q 127 834 113 831 q 158 838 142 838 q 217 788 217 838 l 217 628 l 444 628 q 453 609 449 621 q 457 583 457 597 q 415 536 457 536 l 217 536 l 217 175 q 248 97 217 119 q 336 74 279 74 q 389 82 360 74 q 438 101 418 90 q 453 81 446 93 q 460 51 460 68 q 424 1 460 21 q 324 -18 388 -18 m 278 -279 q 225 -304 257 -304 q 182 -286 196 -304 q 218 -187 201 -237 q 239 -96 235 -136 q 289 -86 263 -86 q 326 -97 311 -86 q 340 -128 340 -107 q 335 -166 340 -144 q 319 -208 329 -187 q 299 -248 310 -229 q 278 -279 288 -267 z "},"Ť":{"ha":726,"x_min":35,"x_max":692,"o":"m 419 749 l 419 3 q 398 -3 413 0 q 368 -7 383 -7 q 307 44 307 -7 l 307 749 l 47 749 q 39 767 43 756 q 35 794 35 779 q 46 831 35 818 q 78 844 57 844 l 679 844 q 688 826 683 838 q 692 800 692 814 q 681 763 692 776 q 649 749 669 749 l 419 749 m 485 1131 q 528 1116 510 1128 q 546 1085 546 1104 q 535 1056 546 1068 q 510 1028 525 1043 l 426 944 q 397 923 411 929 q 363 917 382 917 q 326 925 342 917 q 294 951 310 933 l 179 1074 q 192 1114 179 1100 q 225 1128 204 1128 q 254 1119 240 1128 q 288 1089 268 1111 l 363 1001 l 485 1131 z "},"ť":{"ha":629,"x_min":106,"x_max":657,"o":"m 324 -18 q 166 25 226 -18 q 106 168 106 68 l 106 828 q 127 834 113 831 q 158 838 142 838 q 217 788 217 838 l 217 628 l 444 628 q 453 609 449 621 q 457 583 457 597 q 415 536 457 536 l 217 536 l 217 175 q 248 97 217 119 q 336 74 279 74 q 389 82 360 74 q 438 101 418 90 q 453 81 446 93 q 460 51 460 68 q 424 1 460 21 q 324 -18 388 -18 m 594 717 q 542 692 574 692 q 499 710 513 692 q 535 809 518 758 q 556 900 551 860 q 606 910 579 910 q 642 899 628 910 q 657 868 657 889 q 651 830 657 851 q 636 788 646 808 q 615 748 626 767 q 594 717 604 729 z "},"Ũ":{"ha":901,"x_min":122,"x_max":779,"o":"m 779 292 q 758 164 779 221 q 694 67 736 107 q 590 4 651 26 q 450 -18 529 -18 q 310 4 371 -18 q 207 67 249 26 q 144 164 165 107 q 122 292 122 221 l 122 842 q 144 848 129 844 q 175 851 158 851 q 235 800 235 851 l 235 301 q 251 204 235 246 q 297 134 268 163 q 365 92 325 106 q 450 78 404 78 q 535 92 496 78 q 603 134 575 106 q 649 204 632 163 q 665 301 665 246 l 665 842 q 687 848 672 844 q 718 851 701 851 q 779 800 779 851 l 779 292 m 354 1092 q 408 1084 383 1092 q 455 1068 433 1076 q 496 1052 476 1060 q 533 1044 515 1044 q 570 1059 558 1044 q 588 1097 582 1074 l 596 1097 q 640 1085 621 1097 q 660 1044 660 1074 q 632 981 660 1004 q 558 958 604 958 q 503 966 529 958 q 453 983 476 974 q 411 999 431 992 q 375 1007 392 1007 q 339 992 350 1007 q 322 953 328 976 l 314 953 q 269 965 289 953 q 250 1006 250 978 q 282 1069 250 1046 q 354 1092 314 1092 z "},"ũ":{"ha":765,"x_min":104,"x_max":660,"o":"m 104 639 q 126 645 111 642 q 157 649 140 649 q 215 597 215 649 l 215 240 q 263 112 215 150 q 393 74 310 74 q 488 85 449 74 q 549 110 526 97 l 549 639 q 570 645 556 642 q 600 649 585 649 q 660 597 660 649 l 660 114 q 652 67 660 85 q 615 33 644 50 q 527 -1 583 15 q 392 -18 471 -18 q 178 43 253 -18 q 104 235 104 104 l 104 639 m 282 904 q 336 897 311 904 q 383 881 361 889 q 424 865 404 872 q 461 857 443 857 q 498 872 486 857 q 515 910 510 886 l 524 910 q 568 898 549 910 q 588 857 588 886 q 560 794 588 817 q 486 771 532 771 q 431 778 457 771 q 381 795 404 786 q 339 812 358 804 q 303 819 319 819 q 267 804 278 819 q 250 765 256 789 l 242 765 q 197 778 217 765 q 178 818 178 790 q 210 881 178 858 q 282 904 242 904 z "},"Ū":{"ha":901,"x_min":122,"x_max":779,"o":"m 779 292 q 758 164 779 221 q 694 67 736 107 q 590 4 651 26 q 450 -18 529 -18 q 310 4 371 -18 q 207 67 249 26 q 144 164 165 107 q 122 292 122 221 l 122 842 q 144 848 129 844 q 175 851 158 851 q 235 800 235 851 l 235 301 q 251 204 235 246 q 297 134 268 163 q 365 92 325 106 q 450 78 404 78 q 535 92 496 78 q 603 134 575 106 q 649 204 632 163 q 665 301 665 246 l 665 842 q 687 848 672 844 q 718 851 701 851 q 779 800 779 851 l 779 292 m 274 958 q 263 978 268 967 q 258 1003 258 989 q 271 1038 258 1026 q 303 1049 283 1049 l 619 1049 q 629 1028 625 1040 q 633 1004 633 1017 q 589 958 633 958 l 274 958 z "},"ū":{"ha":764,"x_min":104,"x_max":660,"o":"m 104 639 q 126 645 111 642 q 157 649 140 649 q 215 597 215 649 l 215 240 q 263 112 215 150 q 393 74 310 74 q 488 85 449 74 q 549 110 526 97 l 549 639 q 570 645 556 642 q 600 649 585 649 q 660 597 660 649 l 660 114 q 652 67 660 85 q 615 33 644 50 q 527 -1 583 15 q 392 -18 471 -18 q 178 43 253 -18 q 104 235 104 104 l 104 639 m 210 792 q 199 811 204 800 q 194 836 194 822 q 207 871 194 860 q 239 882 219 882 l 556 882 q 565 862 561 874 q 569 838 569 850 q 525 792 569 792 l 210 792 z "},"Ŭ":{"ha":901,"x_min":122,"x_max":779,"o":"m 779 292 q 758 164 779 221 q 694 67 736 107 q 590 4 651 26 q 450 -18 529 -18 q 310 4 371 -18 q 207 67 249 26 q 144 164 165 107 q 122 292 122 221 l 122 842 q 144 848 129 844 q 175 851 158 851 q 235 800 235 851 l 235 301 q 251 204 235 246 q 297 134 268 163 q 365 92 325 106 q 450 78 404 78 q 535 92 496 78 q 603 134 575 106 q 649 204 632 163 q 665 301 665 246 l 665 842 q 687 848 672 844 q 718 851 701 851 q 779 800 779 851 l 779 292 m 453 994 q 558 1086 543 994 q 569 1088 564 1088 q 582 1089 575 1089 q 617 1076 604 1089 q 631 1036 631 1064 q 619 992 631 1014 q 586 953 608 971 q 531 925 564 936 q 453 914 497 914 q 374 925 407 914 q 318 953 340 936 q 285 993 296 971 q 275 1036 275 1015 q 324 1089 275 1089 q 347 1086 336 1089 q 453 994 363 994 z "},"ŭ":{"ha":765,"x_min":104,"x_max":660,"o":"m 104 639 q 126 645 111 642 q 157 649 140 649 q 215 597 215 649 l 215 240 q 263 112 215 150 q 393 74 310 74 q 488 85 449 74 q 549 110 526 97 l 549 639 q 570 645 556 642 q 600 649 585 649 q 660 597 660 649 l 660 114 q 652 67 660 85 q 615 33 644 50 q 527 -1 583 15 q 392 -18 471 -18 q 178 43 253 -18 q 104 235 104 104 l 104 639 m 382 832 q 488 924 472 832 q 499 926 493 925 q 511 926 504 926 q 547 914 533 926 q 560 874 560 901 q 549 830 560 851 q 515 791 538 808 q 460 763 493 774 q 382 751 426 751 q 303 763 336 751 q 247 791 269 774 q 215 831 225 808 q 204 874 204 853 q 253 926 204 926 q 276 924 265 926 q 382 832 292 832 z "},"Ů":{"ha":901,"x_min":122,"x_max":779,"o":"m 779 292 q 758 164 779 221 q 694 67 736 107 q 590 4 651 26 q 450 -18 529 -18 q 310 4 371 -18 q 207 67 249 26 q 144 164 165 107 q 122 292 122 221 l 122 842 q 144 848 129 844 q 175 851 158 851 q 235 800 235 851 l 235 301 q 251 204 235 246 q 297 134 268 163 q 365 92 325 106 q 450 78 404 78 q 535 92 496 78 q 603 134 575 106 q 649 204 632 163 q 665 301 665 246 l 665 842 q 687 848 672 844 q 718 851 701 851 q 779 800 779 851 l 779 292 m 304 1033 q 343 1124 304 1088 q 451 1160 382 1160 q 560 1124 522 1160 q 599 1033 599 1088 q 560 944 599 981 q 451 908 522 908 q 343 944 382 908 q 304 1033 304 981 m 388 1033 q 406 992 388 1007 q 451 976 424 976 q 498 992 479 976 q 517 1033 517 1007 q 498 1076 517 1061 q 451 1092 479 1092 q 406 1076 424 1092 q 388 1033 388 1061 z "},"ů":{"ha":764,"x_min":104,"x_max":660,"o":"m 104 639 q 126 645 111 642 q 157 649 140 649 q 215 597 215 649 l 215 240 q 263 112 215 150 q 393 74 310 74 q 488 85 449 74 q 549 110 526 97 l 549 639 q 570 645 556 642 q 600 649 585 649 q 660 597 660 649 l 660 114 q 652 67 660 85 q 615 33 644 50 q 527 -1 583 15 q 392 -18 471 -18 q 178 43 253 -18 q 104 235 104 104 l 104 639 m 235 850 q 272 942 235 904 q 379 979 310 979 q 486 942 449 979 q 524 850 524 904 q 486 758 524 796 q 379 721 449 721 q 272 758 310 721 q 235 850 235 796 m 315 850 q 333 803 315 819 q 379 786 351 786 q 426 803 407 786 q 444 850 444 819 q 426 897 444 881 q 379 914 407 914 q 333 897 351 914 q 315 850 315 881 z "},"Ű":{"ha":901,"x_min":122,"x_max":779,"o":"m 779 292 q 758 164 779 221 q 694 67 736 107 q 590 4 651 26 q 450 -18 529 -18 q 310 4 371 -18 q 207 67 249 26 q 144 164 165 107 q 122 292 122 221 l 122 842 q 144 848 129 844 q 175 851 158 851 q 235 800 235 851 l 235 301 q 251 204 235 246 q 297 134 268 163 q 365 92 325 106 q 450 78 404 78 q 535 92 496 78 q 603 134 575 106 q 649 204 632 163 q 665 301 665 246 l 665 842 q 687 848 672 844 q 718 851 701 851 q 779 800 779 851 l 779 292 m 378 1136 q 426 1121 408 1135 q 444 1088 444 1107 q 435 1056 444 1069 q 410 1022 426 1042 l 326 922 q 283 935 299 922 q 267 967 267 949 q 272 989 267 979 q 283 1008 276 999 l 378 1136 m 613 1136 q 661 1121 643 1135 q 679 1088 679 1107 q 669 1055 679 1068 q 644 1022 660 1042 l 561 922 q 517 935 533 922 q 501 967 501 949 q 506 989 501 979 q 518 1008 511 999 l 613 1136 z "},"ű":{"ha":764,"x_min":104,"x_max":660,"o":"m 104 639 q 126 645 111 642 q 157 649 140 649 q 215 597 215 649 l 215 240 q 263 112 215 150 q 393 74 310 74 q 488 85 449 74 q 549 110 526 97 l 549 639 q 570 645 556 642 q 600 649 585 649 q 660 597 660 649 l 660 114 q 652 67 660 85 q 615 33 644 50 q 527 -1 583 15 q 392 -18 471 -18 q 178 43 253 -18 q 104 235 104 104 l 104 639 m 325 954 q 374 939 356 953 q 392 906 392 925 q 382 873 392 886 q 357 840 372 860 l 258 717 q 214 730 231 717 q 197 761 197 743 q 203 783 197 774 q 215 803 208 793 l 325 954 m 558 954 q 607 939 589 953 q 625 906 625 925 q 615 873 625 886 q 590 840 606 860 l 492 717 q 448 730 464 717 q 432 761 432 743 q 437 783 432 774 q 449 803 442 793 l 558 954 z "},"Ų":{"ha":901,"x_min":122,"x_max":779,"o":"m 779 292 q 710 83 779 165 q 511 -14 642 1 q 480 -51 492 -31 q 468 -101 468 -72 q 492 -157 468 -139 q 556 -175 515 -175 l 576 -175 q 585 -207 585 -192 q 569 -243 585 -229 q 517 -257 554 -257 q 459 -248 486 -257 q 412 -222 432 -239 q 380 -180 392 -204 q 368 -124 368 -156 q 381 -62 368 -87 q 413 -17 393 -36 q 197 76 272 -6 q 122 292 122 158 l 122 842 q 144 848 129 844 q 175 851 158 851 q 235 800 235 851 l 235 301 q 251 204 235 246 q 297 134 268 163 q 365 92 325 106 q 450 78 404 78 q 535 92 496 78 q 603 134 575 106 q 649 204 632 163 q 665 301 665 246 l 665 842 q 687 848 672 844 q 718 851 701 851 q 779 800 779 851 l 779 292 l 779 292 z "},"ų":{"ha":764,"x_min":104,"x_max":660,"o":"m 215 240 q 263 112 215 150 q 393 74 310 74 q 488 85 449 74 q 549 110 526 97 l 549 639 q 570 645 556 642 q 600 649 585 649 q 660 597 660 649 l 660 114 q 652 67 660 85 q 617 33 644 50 q 556 -27 579 3 q 533 -101 533 -57 q 558 -157 533 -139 q 622 -175 582 -175 l 643 -175 q 651 -207 651 -192 q 635 -243 651 -229 q 583 -257 619 -257 q 526 -248 553 -257 q 478 -222 499 -239 q 445 -180 457 -204 q 433 -124 433 -156 q 450 -52 433 -81 q 490 -4 467 -24 q 444 -15 468 -11 q 392 -18 419 -18 q 178 43 253 -18 q 104 235 104 104 l 104 639 q 126 645 111 642 q 157 649 140 649 q 215 597 215 649 l 215 240 l 215 240 z "},"Ŵ":{"ha":1110,"x_min":47,"x_max":1047,"o":"m 492 635 q 519 644 503 640 q 554 649 535 649 q 625 613 613 649 q 672 471 650 538 q 715 342 694 404 q 756 221 736 281 q 794 97 775 161 l 800 97 q 839 280 819 190 q 876 460 858 369 q 911 645 894 551 q 943 843 928 739 q 990 853 963 853 q 1032 841 1017 853 q 1047 806 1047 829 q 1040 725 1047 779 q 1019 601 1032 671 q 988 449 1006 531 q 951 290 971 368 q 913 139 932 211 q 875 15 893 67 q 843 2 863 8 q 799 -4 824 -4 q 747 6 768 -4 q 719 32 726 15 q 685 123 704 68 q 644 244 665 178 q 600 381 622 310 q 557 524 578 453 q 514 381 536 454 q 470 238 492 307 q 428 111 449 169 q 390 14 407 53 q 360 1 379 7 q 315 -4 340 -4 q 264 6 283 -4 q 238 32 244 17 q 209 115 225 61 q 176 238 193 169 q 140 386 158 307 q 103 544 121 465 q 72 695 86 622 q 47 826 57 768 q 74 844 57 836 q 110 853 90 853 q 168 801 158 853 q 203 633 186 714 q 237 467 219 551 q 274 293 254 383 q 317 97 293 203 l 322 97 q 360 216 342 160 q 397 333 378 272 q 440 467 417 394 q 492 635 463 539 m 561 1028 q 498 956 529 989 q 439 892 467 924 q 397 906 414 894 q 381 938 381 918 q 389 964 381 953 q 411 990 397 975 l 496 1082 q 528 1106 514 1097 q 561 1114 542 1114 q 597 1106 583 1114 q 626 1081 611 1097 l 743 942 q 733 908 743 922 q 700 894 722 894 q 673 902 683 894 q 651 921 663 910 l 561 1028 z "},"ŵ":{"ha":989,"x_min":40,"x_max":942,"o":"m 494 478 q 455 346 475 413 q 414 218 435 279 q 374 103 393 157 q 338 7 354 49 q 313 -4 326 0 q 275 -8 299 -8 q 234 -1 253 -8 q 208 24 215 7 q 169 132 192 58 q 122 294 146 206 q 76 472 97 382 q 40 628 54 561 q 65 646 50 638 q 100 654 79 654 q 139 640 126 654 q 158 593 151 625 q 188 460 171 535 q 221 315 204 386 q 252 186 238 244 q 274 100 267 128 l 279 100 q 303 175 288 125 q 340 290 319 225 q 386 429 361 354 q 436 579 411 504 q 496 593 461 593 q 560 557 547 593 q 608 413 585 485 q 650 281 631 342 q 683 172 669 219 q 706 99 697 124 l 713 99 q 782 364 744 224 q 843 642 819 504 q 890 654 863 654 q 928 643 914 654 q 942 608 942 632 q 933 549 942 593 q 908 448 924 506 q 874 324 893 390 q 836 197 856 258 q 799 84 817 135 q 769 7 782 33 q 747 -3 763 1 q 710 -8 731 -8 q 666 -2 683 -8 q 643 18 649 4 q 610 107 628 56 q 574 219 593 158 q 534 346 554 279 q 494 478 514 413 m 497 858 q 434 787 465 819 q 375 722 403 754 q 333 737 350 725 q 317 768 317 749 q 325 794 317 783 q 347 821 333 806 l 432 913 q 464 936 450 928 q 497 944 478 944 q 533 936 519 944 q 563 911 547 928 l 679 772 q 669 739 679 753 q 636 725 658 725 q 609 733 619 725 q 588 751 599 740 l 497 858 z "},"Ŷ":{"ha":764,"x_min":29,"x_max":726,"o":"m 726 806 q 706 747 726 790 q 647 638 685 703 q 558 489 610 572 q 443 313 506 406 l 443 3 q 422 -3 436 0 q 392 -7 407 -7 q 331 44 331 -7 l 331 313 q 251 433 292 369 q 169 563 210 497 q 93 690 129 628 q 29 808 57 753 q 50 838 35 824 q 90 853 65 853 q 131 839 117 853 q 161 797 146 825 q 213 706 183 758 q 274 599 243 653 q 335 494 306 544 q 385 410 364 443 l 390 410 q 519 635 463 531 q 631 843 575 739 q 651 851 639 849 q 674 853 663 853 q 726 806 726 853 m 383 1043 q 328 985 360 1019 q 256 915 296 951 q 217 930 232 918 q 201 961 201 942 q 212 990 201 976 q 238 1018 222 1003 l 319 1100 q 385 1131 350 1131 q 422 1122 407 1131 q 454 1094 438 1113 l 568 965 q 555 931 568 944 q 521 918 542 918 q 492 926 506 918 q 458 957 478 935 l 383 1043 z "},"ŷ":{"ha":679,"x_min":42,"x_max":632,"o":"m 235 143 q 193 228 217 176 q 144 343 169 279 q 92 478 118 407 q 42 624 65 550 q 67 646 51 638 q 101 654 83 654 q 140 642 125 654 q 165 600 154 629 q 252 368 207 482 q 354 129 297 254 l 360 129 q 406 234 382 172 q 452 365 429 296 q 495 506 475 435 q 531 643 515 578 q 551 651 540 647 q 578 654 563 654 q 617 642 601 654 q 632 607 632 631 q 613 506 632 579 q 562 340 593 432 q 490 152 531 249 q 408 -19 450 56 q 291 -201 343 -137 q 194 -264 239 -264 q 145 -247 163 -264 q 124 -208 128 -231 q 174 -158 146 -189 q 229 -92 201 -128 q 282 -19 257 -57 q 324 53 307 18 q 280 77 300 60 q 235 143 260 94 m 349 858 q 285 787 317 819 q 226 722 254 754 q 185 737 201 725 q 168 768 168 749 q 176 794 168 783 q 199 821 185 806 l 283 913 q 315 936 301 928 q 349 944 329 944 q 385 936 371 944 q 414 911 399 928 l 531 772 q 520 739 531 753 q 488 725 510 725 q 460 733 471 725 q 439 751 450 740 l 349 858 z "},"Ÿ":{"ha":764,"x_min":29,"x_max":726,"o":"m 726 806 q 706 747 726 790 q 647 638 685 703 q 558 489 610 572 q 443 313 506 406 l 443 3 q 422 -3 436 0 q 392 -7 407 -7 q 331 44 331 -7 l 331 313 q 251 433 292 369 q 169 563 210 497 q 93 690 129 628 q 29 808 57 753 q 50 838 35 824 q 90 853 65 853 q 131 839 117 853 q 161 797 146 825 q 213 706 183 758 q 274 599 243 653 q 335 494 306 544 q 385 410 364 443 l 390 410 q 519 635 463 531 q 631 843 575 739 q 651 851 639 849 q 674 853 663 853 q 726 806 726 853 m 336 1013 q 317 965 336 985 q 267 946 297 946 q 219 965 238 946 q 200 1013 200 985 q 219 1060 200 1040 q 267 1079 238 1079 q 317 1060 297 1079 q 336 1013 336 1040 m 576 1013 q 556 965 576 985 q 507 946 536 946 q 459 965 479 946 q 439 1013 439 985 q 459 1060 439 1040 q 507 1079 479 1079 q 556 1060 536 1079 q 576 1013 576 1040 z "},"Ź":{"ha":774,"x_min":69,"x_max":707,"o":"m 671 844 q 690 821 682 835 q 697 792 697 807 q 690 757 697 772 q 668 722 682 742 l 211 96 l 693 96 q 703 77 699 89 q 707 50 707 65 q 695 13 707 26 q 664 0 683 0 l 96 0 q 77 24 85 10 q 69 53 69 38 q 77 88 69 72 q 99 122 85 103 l 556 749 l 93 749 q 84 767 89 756 q 79 794 79 779 q 91 831 79 818 q 124 844 103 844 l 671 844 m 485 1139 q 531 1123 515 1138 q 547 1089 547 1108 q 540 1057 547 1069 q 513 1028 532 1044 l 394 922 q 353 936 368 925 q 339 964 339 947 q 344 988 339 978 q 358 1006 350 997 l 485 1139 z "},"ź":{"ha":651,"x_min":63,"x_max":590,"o":"m 85 0 q 63 49 63 18 q 69 80 63 65 q 88 108 76 94 l 440 550 l 83 550 q 75 569 79 557 q 71 596 71 581 q 113 642 71 642 l 557 642 q 581 592 581 622 q 554 533 581 564 l 201 90 l 578 90 q 586 72 582 83 q 590 46 590 61 q 547 0 590 0 l 85 0 m 442 954 q 491 937 472 953 q 510 901 510 921 q 501 870 510 882 q 474 840 493 858 l 347 717 q 303 731 319 717 q 286 764 286 746 q 293 785 286 775 q 307 803 300 794 l 442 954 z "},"Ż":{"ha":774,"x_min":69,"x_max":707,"o":"m 671 844 q 690 821 682 835 q 697 792 697 807 q 690 757 697 772 q 668 722 682 742 l 211 96 l 693 96 q 703 77 699 89 q 707 50 707 65 q 695 13 707 26 q 664 0 683 0 l 96 0 q 77 24 85 10 q 69 53 69 38 q 77 88 69 72 q 99 122 85 103 l 556 749 l 93 749 q 84 767 89 756 q 79 794 79 779 q 91 831 79 818 q 124 844 103 844 l 671 844 m 463 1014 q 443 965 463 983 q 392 946 424 946 q 341 965 360 946 q 322 1014 322 983 q 341 1065 322 1046 q 392 1083 360 1083 q 443 1065 424 1083 q 463 1014 463 1046 z "},"ż":{"ha":651,"x_min":63,"x_max":590,"o":"m 85 0 q 63 49 63 18 q 69 80 63 65 q 88 108 76 94 l 440 550 l 83 550 q 75 569 79 557 q 71 596 71 581 q 113 642 71 642 l 557 642 q 581 592 581 622 q 554 533 581 564 l 201 90 l 578 90 q 586 72 582 83 q 590 46 590 61 q 547 0 590 0 l 85 0 m 393 843 q 374 794 393 813 q 322 775 354 775 q 272 794 290 775 q 253 843 253 813 q 272 894 253 875 q 322 913 290 913 q 374 894 354 913 q 393 843 393 875 z "},"Ž":{"ha":774,"x_min":69,"x_max":707,"o":"m 671 844 q 690 821 682 835 q 697 792 697 807 q 690 757 697 772 q 668 722 682 742 l 211 96 l 693 96 q 703 77 699 89 q 707 50 707 65 q 695 13 707 26 q 664 0 683 0 l 96 0 q 77 24 85 10 q 69 53 69 38 q 77 88 69 72 q 99 122 85 103 l 556 749 l 93 749 q 84 767 89 756 q 79 794 79 779 q 91 831 79 818 q 124 844 103 844 l 671 844 m 517 1131 q 560 1116 542 1128 q 578 1085 578 1104 q 567 1056 578 1068 q 542 1028 557 1043 l 458 944 q 428 923 443 929 q 394 917 414 917 q 358 925 374 917 q 326 951 342 933 l 211 1074 q 224 1114 211 1100 q 257 1128 236 1128 q 286 1119 272 1128 q 319 1089 300 1111 l 394 1001 l 517 1131 z "},"ž":{"ha":651,"x_min":63,"x_max":590,"o":"m 85 0 q 63 49 63 18 q 69 80 63 65 q 88 108 76 94 l 440 550 l 83 550 q 75 569 79 557 q 71 596 71 581 q 113 642 71 642 l 557 642 q 581 592 581 622 q 554 533 581 564 l 201 90 l 578 90 q 586 72 582 83 q 590 46 590 61 q 547 0 590 0 l 85 0 m 328 810 l 450 944 q 494 929 478 942 q 510 897 510 917 q 500 869 510 882 q 475 840 490 857 l 388 751 q 360 731 374 738 q 326 724 346 724 q 291 733 307 724 q 258 760 275 742 l 140 889 q 153 926 140 910 q 186 942 165 942 q 216 934 204 942 q 243 908 228 926 l 328 810 z "},"Ə":{"ha":903,"x_min":68,"x_max":826,"o":"m 68 333 q 87 389 68 372 q 136 411 106 406 l 703 501 q 663 615 690 567 q 597 696 635 664 q 510 744 558 728 q 408 760 463 760 q 262 729 326 760 q 157 658 197 699 q 124 680 138 667 q 110 715 110 693 q 126 758 110 740 q 157 786 142 775 q 261 833 193 811 q 410 856 329 856 q 565 831 490 856 q 699 751 640 806 q 792 613 757 697 q 826 411 826 529 q 800 230 826 310 q 724 94 774 150 q 602 9 674 39 q 440 -21 531 -21 q 281 8 350 -21 q 164 85 211 36 q 92 199 117 135 q 68 333 68 263 m 440 75 q 640 154 568 75 q 713 397 713 233 l 713 406 l 182 321 q 205 224 186 269 q 256 146 224 179 q 335 94 289 113 q 440 75 381 75 z "},"ƒ":{"ha":703,"x_min":-4,"x_max":689,"o":"m 368 494 l 329 111 q 267 -45 318 0 q 125 -90 215 -90 q 31 -72 67 -90 q -4 -21 -4 -53 q 17 26 -4 10 q 63 10 40 17 q 117 3 85 3 q 189 30 165 3 q 219 121 213 57 l 279 685 q 359 859 292 803 q 531 915 426 915 q 647 894 604 915 q 689 842 689 874 q 668 794 689 811 q 610 814 642 806 q 536 822 578 822 q 433 786 468 822 q 389 675 397 750 l 378 585 l 615 585 q 625 567 621 578 q 629 540 629 556 q 586 494 629 494 l 368 494 z "},"Ơ":{"ha":967,"x_min":75,"x_max":942,"o":"m 881 422 q 850 231 881 314 q 765 94 819 149 q 638 10 711 39 q 478 -18 564 -18 q 318 10 392 -18 q 190 94 244 39 q 106 231 136 149 q 75 422 75 314 q 106 613 75 531 q 192 750 138 694 q 319 834 246 806 q 478 863 393 863 q 640 832 565 863 q 771 743 715 801 q 823 776 803 750 q 843 856 843 801 l 843 903 q 892 915 865 915 q 927 903 913 915 q 942 864 942 892 l 942 847 q 906 728 942 769 q 821 672 869 686 q 865 560 849 622 q 881 422 881 497 m 765 422 q 687 678 765 589 q 478 767 608 767 q 360 744 413 767 q 269 677 307 721 q 212 569 232 633 q 192 422 192 506 q 269 167 192 256 q 478 78 347 78 q 688 167 610 78 q 765 422 765 256 z "},"ơ":{"ha":807,"x_min":78,"x_max":772,"o":"m 710 321 q 688 181 710 243 q 624 74 665 118 q 525 6 583 29 q 394 -18 467 -18 q 264 6 322 -18 q 164 74 206 29 q 100 181 122 118 q 78 321 78 243 q 101 461 78 399 q 165 568 124 524 q 265 636 207 613 q 394 660 324 660 q 526 635 468 660 q 626 563 585 610 q 660 599 647 575 q 674 665 674 624 l 674 713 q 722 725 696 725 q 758 713 743 725 q 772 674 772 701 l 772 657 q 744 549 772 589 q 675 489 715 508 q 710 321 710 415 m 394 568 q 246 503 300 568 q 192 321 192 438 q 245 138 192 203 q 394 74 299 74 q 543 139 490 74 q 596 321 596 204 q 542 503 596 438 q 394 568 489 568 z "},"Ư":{"ha":946,"x_min":122,"x_max":969,"o":"m 779 292 q 758 164 779 221 q 694 67 736 107 q 590 4 651 26 q 450 -18 529 -18 q 310 4 371 -18 q 207 67 249 26 q 144 164 165 107 q 122 292 122 221 l 122 842 q 144 848 129 844 q 175 851 158 851 q 235 800 235 851 l 235 301 q 251 204 235 246 q 297 134 268 163 q 365 92 325 106 q 450 78 404 78 q 535 92 496 78 q 603 134 575 106 q 649 204 632 163 q 665 301 665 246 l 665 842 q 687 848 672 844 q 718 851 701 851 q 779 800 779 851 l 779 740 q 844 769 817 744 q 871 856 871 794 l 871 903 q 919 915 893 915 q 955 903 940 915 q 969 864 969 892 l 969 847 q 954 763 969 797 q 914 706 939 728 q 857 674 889 685 q 792 664 825 664 l 779 664 l 779 292 l 779 292 z "},"ư":{"ha":824,"x_min":104,"x_max":836,"o":"m 104 639 q 126 645 111 642 q 157 649 140 649 q 215 597 215 649 l 215 240 q 263 112 215 150 q 393 74 310 74 q 488 85 449 74 q 549 110 526 97 l 549 639 q 570 645 556 642 q 600 649 585 649 q 660 597 660 649 l 660 551 q 715 583 693 558 q 738 665 738 608 l 738 713 q 786 725 760 725 q 822 713 807 725 q 836 674 836 701 l 836 657 q 821 572 836 607 q 781 516 806 538 q 724 484 756 494 q 660 474 692 474 l 660 114 q 652 67 660 85 q 615 33 644 50 q 527 -1 583 15 q 392 -18 471 -18 q 178 43 253 -18 q 104 235 104 104 l 104 639 z "},"Ǧ":{"ha":888,"x_min":75,"x_max":792,"o":"m 792 97 q 777 56 792 72 q 733 24 763 39 q 638 -6 699 7 q 514 -18 576 -18 q 336 8 417 -18 q 197 89 256 35 q 107 226 139 143 q 75 421 75 308 q 108 615 75 532 q 199 753 142 699 q 333 835 257 808 q 496 863 410 863 q 603 853 554 863 q 688 827 653 843 q 742 792 722 811 q 761 753 761 772 q 750 719 761 733 q 724 699 739 706 q 635 745 686 724 q 503 767 583 767 q 379 744 436 767 q 281 679 322 722 q 215 571 239 636 q 192 421 192 506 q 216 266 192 331 q 284 160 240 201 q 387 98 328 118 q 515 78 446 78 q 610 86 565 78 q 679 107 654 94 l 679 363 l 469 363 q 461 381 465 369 q 457 407 457 393 q 468 444 457 431 q 500 457 479 457 l 732 457 q 774 441 757 457 q 792 399 792 425 l 792 97 m 607 1131 q 650 1116 632 1128 q 668 1085 668 1104 q 658 1056 668 1068 q 632 1028 647 1043 l 549 944 q 519 923 533 929 q 485 917 504 917 q 448 925 464 917 q 417 951 432 933 l 301 1074 q 314 1114 301 1100 q 347 1128 326 1128 q 376 1119 363 1128 q 410 1089 390 1111 l 485 1001 l 607 1131 z "},"ǧ":{"ha":746,"x_min":71,"x_max":644,"o":"m 533 67 q 469 33 510 47 q 371 19 428 19 q 256 37 310 19 q 160 92 201 54 q 95 192 119 131 q 71 340 71 253 q 94 479 71 419 q 160 579 118 539 q 261 640 203 619 q 390 660 319 660 q 508 644 454 660 q 597 604 561 628 q 631 573 618 590 q 644 531 644 556 l 644 -28 q 622 -145 644 -97 q 558 -223 599 -193 q 461 -267 517 -253 q 342 -281 406 -281 q 222 -266 271 -281 q 154 -240 172 -251 q 113 -181 113 -217 q 122 -148 113 -161 q 144 -128 131 -135 q 226 -169 174 -150 q 342 -187 279 -187 q 484 -148 435 -187 q 533 -21 533 -108 l 533 67 m 383 111 q 474 128 439 111 q 533 168 510 146 l 533 529 q 474 556 510 544 q 390 568 439 568 q 240 511 296 568 q 183 342 183 454 q 199 235 183 279 q 241 164 214 192 q 305 124 268 136 q 383 111 342 111 m 385 810 l 507 944 q 551 929 535 942 q 567 897 567 917 q 557 869 567 882 q 532 840 547 857 l 444 751 q 417 731 431 738 q 383 724 403 724 q 348 733 364 724 q 315 760 332 742 l 197 889 q 210 926 197 910 q 243 942 222 942 q 273 934 261 942 q 300 908 285 926 l 385 810 z "},"Ș":{"ha":726,"x_min":75,"x_max":661,"o":"m 357 76 q 498 119 450 76 q 546 228 546 161 q 509 322 546 286 q 393 382 472 358 l 272 418 q 133 496 183 444 q 82 635 82 547 q 102 730 82 688 q 160 801 122 772 q 249 847 197 831 q 367 863 301 863 q 470 853 422 863 q 553 828 518 844 q 608 793 589 813 q 628 753 628 774 q 618 719 628 733 q 593 697 608 706 q 499 746 557 725 q 371 767 442 767 q 242 732 289 767 q 196 635 196 697 q 229 556 196 586 q 340 503 263 525 l 425 478 q 598 388 535 446 q 661 228 661 331 q 582 50 661 118 q 357 -18 503 -18 q 241 -7 293 -18 q 152 22 189 4 q 95 62 115 40 q 75 104 75 83 q 90 144 75 128 q 124 167 104 160 q 161 135 139 151 q 213 106 183 119 q 278 85 242 93 q 357 76 314 76 m 358 -279 q 306 -304 338 -304 q 263 -286 276 -304 q 299 -187 282 -237 q 319 -96 315 -136 q 369 -86 343 -86 q 406 -97 392 -86 q 421 -128 421 -107 q 415 -166 421 -144 q 400 -208 410 -187 q 379 -248 390 -229 q 358 -279 368 -267 z "},"ș":{"ha":621,"x_min":64,"x_max":557,"o":"m 557 171 q 492 32 557 82 q 303 -18 426 -18 q 206 -9 250 -18 q 130 15 161 0 q 81 48 99 29 q 64 86 64 67 q 73 118 64 103 q 100 144 82 133 q 188 95 138 117 q 301 74 238 74 q 446 171 446 74 q 350 274 446 250 l 235 304 q 111 369 150 326 q 72 478 72 411 q 87 547 72 514 q 132 606 101 581 q 208 645 163 631 q 314 660 253 660 q 471 631 411 660 q 531 565 531 603 q 522 533 531 547 q 497 513 513 519 q 426 549 472 529 q 318 568 381 568 q 219 544 256 568 q 182 478 182 521 q 203 424 182 446 q 272 390 224 401 l 368 367 q 510 297 463 343 q 557 171 557 250 m 318 -279 q 265 -304 297 -304 q 222 -286 236 -304 q 258 -187 242 -237 q 279 -96 275 -136 q 329 -86 303 -86 q 366 -97 351 -86 q 381 -128 381 -107 q 375 -166 381 -144 q 360 -208 369 -187 q 339 -248 350 -229 q 318 -279 328 -267 z "},"Ẁ":{"ha":1110,"x_min":47,"x_max":1047,"o":"m 492 635 q 519 644 503 640 q 554 649 535 649 q 625 613 613 649 q 672 471 650 538 q 715 342 694 404 q 756 221 736 281 q 794 97 775 161 l 800 97 q 839 280 819 190 q 876 460 858 369 q 911 645 894 551 q 943 843 928 739 q 990 853 963 853 q 1032 841 1017 853 q 1047 806 1047 829 q 1040 725 1047 779 q 1019 601 1032 671 q 988 449 1006 531 q 951 290 971 368 q 913 139 932 211 q 875 15 893 67 q 843 2 863 8 q 799 -4 824 -4 q 747 6 768 -4 q 719 32 726 15 q 685 123 704 68 q 644 244 665 178 q 600 381 622 310 q 557 524 578 453 q 514 381 536 454 q 470 238 492 307 q 428 111 449 169 q 390 14 407 53 q 360 1 379 7 q 315 -4 340 -4 q 264 6 283 -4 q 238 32 244 17 q 209 115 225 61 q 176 238 193 169 q 140 386 158 307 q 103 544 121 465 q 72 695 86 622 q 47 826 57 768 q 74 844 57 836 q 110 853 90 853 q 168 801 158 853 q 203 633 186 714 q 237 467 219 551 q 274 293 254 383 q 317 97 293 203 l 322 97 q 360 216 342 160 q 397 333 378 272 q 440 467 417 394 q 492 635 463 539 m 369 1067 q 368 1083 368 1074 q 381 1120 368 1106 q 415 1135 394 1135 q 465 1110 446 1135 l 582 969 q 569 935 581 947 q 538 922 557 922 q 513 928 522 922 q 492 944 503 933 l 369 1067 z "},"ẁ":{"ha":989,"x_min":40,"x_max":942,"o":"m 494 478 q 455 346 475 413 q 414 218 435 279 q 374 103 393 157 q 338 7 354 49 q 313 -4 326 0 q 275 -8 299 -8 q 234 -1 253 -8 q 208 24 215 7 q 169 132 192 58 q 122 294 146 206 q 76 472 97 382 q 40 628 54 561 q 65 646 50 638 q 100 654 79 654 q 139 640 126 654 q 158 593 151 625 q 188 460 171 535 q 221 315 204 386 q 252 186 238 244 q 274 100 267 128 l 279 100 q 303 175 288 125 q 340 290 319 225 q 386 429 361 354 q 436 579 411 504 q 496 593 461 593 q 560 557 547 593 q 608 413 585 485 q 650 281 631 342 q 683 172 669 219 q 706 99 697 124 l 713 99 q 782 364 744 224 q 843 642 819 504 q 890 654 863 654 q 928 643 914 654 q 942 608 942 632 q 933 549 942 593 q 908 448 924 506 q 874 324 893 390 q 836 197 856 258 q 799 84 817 135 q 769 7 782 33 q 747 -3 763 1 q 710 -8 731 -8 q 666 -2 683 -8 q 643 18 649 4 q 610 107 628 56 q 574 219 593 158 q 534 346 554 279 q 494 478 514 413 m 300 881 q 297 899 297 894 q 312 935 297 921 q 350 949 326 949 q 399 925 379 949 l 524 768 q 510 733 522 746 q 478 719 497 719 q 452 725 463 719 q 431 742 442 731 l 300 881 z "},"Ẃ":{"ha":1110,"x_min":47,"x_max":1047,"o":"m 492 635 q 519 644 503 640 q 554 649 535 649 q 625 613 613 649 q 672 471 650 538 q 715 342 694 404 q 756 221 736 281 q 794 97 775 161 l 800 97 q 839 280 819 190 q 876 460 858 369 q 911 645 894 551 q 943 843 928 739 q 990 853 963 853 q 1032 841 1017 853 q 1047 806 1047 829 q 1040 725 1047 779 q 1019 601 1032 671 q 988 449 1006 531 q 951 290 971 368 q 913 139 932 211 q 875 15 893 67 q 843 2 863 8 q 799 -4 824 -4 q 747 6 768 -4 q 719 32 726 15 q 685 123 704 68 q 644 244 665 178 q 600 381 622 310 q 557 524 578 453 q 514 381 536 454 q 470 238 492 307 q 428 111 449 169 q 390 14 407 53 q 360 1 379 7 q 315 -4 340 -4 q 264 6 283 -4 q 238 32 244 17 q 209 115 225 61 q 176 238 193 169 q 140 386 158 307 q 103 544 121 465 q 72 695 86 622 q 47 826 57 768 q 74 844 57 836 q 110 853 90 853 q 168 801 158 853 q 203 633 186 714 q 237 467 219 551 q 274 293 254 383 q 317 97 293 203 l 322 97 q 360 216 342 160 q 397 333 378 272 q 440 467 417 394 q 492 635 463 539 m 676 1139 q 723 1123 707 1138 q 739 1089 739 1108 q 731 1057 739 1069 q 704 1028 724 1044 l 586 922 q 545 936 560 925 q 531 964 531 947 q 536 988 531 978 q 550 1006 542 997 l 676 1139 z "}}}
